<?xml version="1.0" encoding="utf-8" standalone="no"?>
<!DOCTYPE svg PUBLIC "-//W3C//DTD SVG 1.1//EN"
  "http://www.w3.org/Graphics/SVG/1.1/DTD/svg11.dtd">
<!-- Created with matplotlib (https://matplotlib.org/) -->
<svg height="307.762pt" version="1.1" viewBox="0 0 415.645 307.762" width="415.645pt" xmlns="http://www.w3.org/2000/svg" xmlns:xlink="http://www.w3.org/1999/xlink">
 <defs>
  <style type="text/css">
*{stroke-linecap:butt;stroke-linejoin:round;}
  </style>
 </defs>
 <g id="figure_1">
  <g id="patch_1">
   <path d="M 0 307.762 
L 415.645 307.762 
L 415.645 0 
L 0 0 
z
" style="fill:#ffffff;"/>
  </g>
  <g id="axes_1">
   <g id="patch_2">
    <path d="M 51.325 273.312 
L 408.445 273.312 
L 408.445 7.2 
L 51.325 7.2 
z
" style="fill:#ffffff;"/>
   </g>
   <g id="matplotlib.axis_1">
    <g id="xtick_1">
     <g id="line2d_1">
      <defs>
       <path d="M 0 0 
L 0 3.5 
" id="m6b01bb3a3b" style="stroke:#000000;stroke-width:0.8;"/>
      </defs>
      <g>
       <use style="stroke:#000000;stroke-width:0.8;" x="67.557727" xlink:href="#m6b01bb3a3b" y="273.312"/>
      </g>
     </g>
     <g id="text_1">
      <!-- 0 -->
      <defs>
       <path d="M 46.484375 35.15625 
Q 46.484375 21.09375 41.40625 10.9375 
Q 36.328125 0.78125 25 0.78125 
Q 13.671875 0.78125 8.390625 10.9375 
Q 3.125 21.09375 3.125 35.15625 
Q 3.125 49.21875 8.390625 59.171875 
Q 13.671875 69.140625 25 69.140625 
Q 36.328125 69.140625 41.40625 59.171875 
Q 46.484375 49.21875 46.484375 35.15625 
z
M 37.109375 35.15625 
Q 37.109375 47.65625 34.171875 54.6875 
Q 31.25 61.71875 25 61.71875 
Q 18.75 61.71875 15.625 54.6875 
Q 12.5 47.65625 12.5 35.15625 
Q 12.5 22.65625 15.625 15.421875 
Q 18.75 8.203125 25 8.203125 
Q 31.25 8.203125 34.171875 15.421875 
Q 37.109375 22.65625 37.109375 35.15625 
z
" id="SimHei-48"/>
      </defs>
      <g transform="translate(65.057727 287.147937)scale(0.1 -0.1)">
       <use xlink:href="#SimHei-48"/>
      </g>
     </g>
    </g>
    <g id="xtick_2">
     <g id="line2d_2">
      <g>
       <use style="stroke:#000000;stroke-width:0.8;" x="132.49513" xlink:href="#m6b01bb3a3b" y="273.312"/>
      </g>
     </g>
     <g id="text_2">
      <!-- 2000 -->
      <defs>
       <path d="M 44.53125 1.5625 
L 4.6875 1.5625 
L 4.6875 7.8125 
Q 7.03125 14.0625 11.125 19.328125 
Q 15.234375 24.609375 23.046875 31.25 
Q 28.90625 36.328125 31.4375 40.625 
Q 33.984375 44.921875 33.984375 50 
Q 33.984375 55.078125 31.828125 58.390625 
Q 29.6875 61.71875 25 61.71875 
Q 21.09375 61.71875 18.15625 58.203125 
Q 15.234375 54.6875 15.234375 45.703125 
L 6.25 45.703125 
Q 6.640625 57.03125 11.515625 63.078125 
Q 16.40625 69.140625 25.390625 69.140625 
Q 33.984375 69.140625 38.671875 63.859375 
Q 43.359375 58.59375 43.359375 49.609375 
Q 43.359375 42.1875 39.0625 36.71875 
Q 34.765625 31.25 28.515625 25.78125 
Q 21.484375 19.53125 18.75 16.40625 
Q 16.015625 13.28125 13.671875 8.984375 
L 44.53125 8.984375 
z
" id="SimHei-50"/>
      </defs>
      <g transform="translate(122.49513 287.147937)scale(0.1 -0.1)">
       <use xlink:href="#SimHei-50"/>
       <use x="50" xlink:href="#SimHei-48"/>
       <use x="100" xlink:href="#SimHei-48"/>
       <use x="150" xlink:href="#SimHei-48"/>
      </g>
     </g>
    </g>
    <g id="xtick_3">
     <g id="line2d_3">
      <g>
       <use style="stroke:#000000;stroke-width:0.8;" x="197.432533" xlink:href="#m6b01bb3a3b" y="273.312"/>
      </g>
     </g>
     <g id="text_3">
      <!-- 4000 -->
      <defs>
       <path d="M 46.484375 18.75 
L 38.28125 18.75 
L 38.28125 1.5625 
L 29.296875 1.5625 
L 29.296875 18.75 
L 3.125 18.75 
L 3.125 26.171875 
L 29.296875 69.140625 
L 38.28125 69.140625 
L 38.28125 26.171875 
L 46.484375 26.171875 
z
M 29.296875 26.171875 
L 29.296875 55.078125 
L 11.71875 26.171875 
z
" id="SimHei-52"/>
      </defs>
      <g transform="translate(187.432533 287.147937)scale(0.1 -0.1)">
       <use xlink:href="#SimHei-52"/>
       <use x="50" xlink:href="#SimHei-48"/>
       <use x="100" xlink:href="#SimHei-48"/>
       <use x="150" xlink:href="#SimHei-48"/>
      </g>
     </g>
    </g>
    <g id="xtick_4">
     <g id="line2d_4">
      <g>
       <use style="stroke:#000000;stroke-width:0.8;" x="262.369936" xlink:href="#m6b01bb3a3b" y="273.312"/>
      </g>
     </g>
     <g id="text_4">
      <!-- 6000 -->
      <defs>
       <path d="M 44.53125 24.21875 
Q 44.53125 13.28125 39.84375 7.03125 
Q 35.15625 0.78125 25.78125 0.78125 
Q 16.40625 0.78125 10.9375 8.59375 
Q 5.46875 16.40625 5.46875 33.984375 
Q 5.46875 50 11.125 59.5625 
Q 16.796875 69.140625 27.34375 69.140625 
Q 34.765625 69.140625 39.25 63.671875 
Q 43.75 58.203125 43.75 51.5625 
L 34.765625 51.5625 
Q 34.765625 55.46875 32.609375 58.59375 
Q 30.46875 61.71875 26.953125 61.71875 
Q 21.09375 61.71875 17.96875 55.65625 
Q 14.84375 49.609375 14.453125 37.109375 
Q 17.1875 42.1875 20.3125 44.140625 
Q 23.4375 46.09375 27.734375 46.09375 
Q 35.15625 46.09375 39.84375 40.234375 
Q 44.53125 34.375 44.53125 24.21875 
z
M 35.15625 24.21875 
Q 35.15625 31.25 32.8125 35.15625 
Q 30.46875 39.0625 26.171875 39.0625 
Q 21.09375 39.0625 18.15625 35.15625 
Q 15.234375 31.25 15.234375 25.78125 
Q 15.234375 17.1875 18.15625 12.5 
Q 21.09375 7.8125 26.171875 7.8125 
Q 29.6875 7.8125 32.421875 11.328125 
Q 35.15625 14.84375 35.15625 24.21875 
z
" id="SimHei-54"/>
      </defs>
      <g transform="translate(252.369936 287.147937)scale(0.1 -0.1)">
       <use xlink:href="#SimHei-54"/>
       <use x="50" xlink:href="#SimHei-48"/>
       <use x="100" xlink:href="#SimHei-48"/>
       <use x="150" xlink:href="#SimHei-48"/>
      </g>
     </g>
    </g>
    <g id="xtick_5">
     <g id="line2d_5">
      <g>
       <use style="stroke:#000000;stroke-width:0.8;" x="327.307339" xlink:href="#m6b01bb3a3b" y="273.312"/>
      </g>
     </g>
     <g id="text_5">
      <!-- 8000 -->
      <defs>
       <path d="M 44.921875 20.703125 
Q 44.921875 10.9375 39.453125 5.859375 
Q 33.984375 0.78125 24.609375 0.78125 
Q 15.234375 0.78125 9.765625 5.859375 
Q 4.296875 10.9375 4.296875 20.703125 
Q 4.296875 25.78125 7.421875 29.875 
Q 10.546875 33.984375 16.015625 35.9375 
Q 11.328125 37.890625 8.78125 41.40625 
Q 6.25 44.921875 6.25 50.390625 
Q 6.25 58.984375 11.71875 64.0625 
Q 17.1875 69.140625 24.609375 69.140625 
Q 32.03125 69.140625 37.5 64.0625 
Q 42.96875 58.984375 42.96875 50.390625 
Q 42.96875 44.921875 40.421875 41.40625 
Q 37.890625 37.890625 33.203125 35.9375 
Q 38.671875 33.984375 41.796875 29.875 
Q 44.921875 25.78125 44.921875 20.703125 
z
M 34.375 50.390625 
Q 34.375 56.640625 31.640625 59.375 
Q 28.90625 62.109375 24.609375 62.109375 
Q 20.3125 62.109375 17.578125 59.375 
Q 14.84375 56.640625 14.84375 50.390625 
Q 14.84375 44.140625 17.765625 41.59375 
Q 20.703125 39.0625 24.609375 39.0625 
Q 28.515625 39.0625 31.4375 41.59375 
Q 34.375 44.140625 34.375 50.390625 
z
M 35.9375 20.703125 
Q 35.9375 26.171875 33 29.296875 
Q 30.078125 32.421875 24.609375 32.421875 
Q 19.140625 32.421875 16.203125 29.296875 
Q 13.28125 26.171875 13.28125 20.703125 
Q 13.28125 14.453125 16.40625 11.125 
Q 19.53125 7.8125 24.609375 7.8125 
Q 29.6875 7.8125 32.8125 11.125 
Q 35.9375 14.453125 35.9375 20.703125 
z
" id="SimHei-56"/>
      </defs>
      <g transform="translate(317.307339 287.147937)scale(0.1 -0.1)">
       <use xlink:href="#SimHei-56"/>
       <use x="50" xlink:href="#SimHei-48"/>
       <use x="100" xlink:href="#SimHei-48"/>
       <use x="150" xlink:href="#SimHei-48"/>
      </g>
     </g>
    </g>
    <g id="xtick_6">
     <g id="line2d_6">
      <g>
       <use style="stroke:#000000;stroke-width:0.8;" x="392.244741" xlink:href="#m6b01bb3a3b" y="273.312"/>
      </g>
     </g>
     <g id="text_6">
      <!-- 10000 -->
      <defs>
       <path d="M 30.46875 1.5625 
L 21.484375 1.5625 
L 21.484375 53.515625 
L 9.765625 53.515625 
L 9.765625 58.203125 
Q 16.796875 58.203125 20.703125 60.9375 
Q 24.609375 63.671875 25.78125 69.140625 
L 30.46875 69.140625 
z
" id="SimHei-49"/>
      </defs>
      <g transform="translate(379.744741 287.147937)scale(0.1 -0.1)">
       <use xlink:href="#SimHei-49"/>
       <use x="50" xlink:href="#SimHei-48"/>
       <use x="100" xlink:href="#SimHei-48"/>
       <use x="150" xlink:href="#SimHei-48"/>
       <use x="200" xlink:href="#SimHei-48"/>
      </g>
     </g>
    </g>
    <g id="text_7">
     <!-- Number of Generation -->
     <defs>
      <path d="M 44.921875 1.5625 
L 35.15625 1.5625 
L 13.671875 50 
L 13.28125 50 
L 13.28125 1.5625 
L 4.296875 1.5625 
L 4.296875 68.359375 
L 14.0625 68.359375 
L 35.546875 19.921875 
L 35.9375 19.921875 
L 35.9375 68.359375 
L 44.921875 68.359375 
z
" id="SimHei-78"/>
      <path d="M 44.140625 1.5625 
L 36.328125 1.5625 
L 36.328125 9.765625 
Q 33.203125 5.46875 29.484375 3.125 
Q 25.78125 0.78125 19.921875 0.78125 
Q 12.890625 0.78125 9.375 4.6875 
Q 5.859375 8.59375 5.859375 14.453125 
L 5.859375 45.3125 
L 13.671875 45.3125 
L 13.671875 17.1875 
Q 13.671875 12.5 16.015625 9.765625 
Q 18.359375 7.03125 22.265625 7.03125 
Q 27.34375 7.03125 31.828125 12.296875 
Q 36.328125 17.578125 36.328125 25.390625 
L 36.328125 45.3125 
L 44.140625 45.3125 
z
" id="SimHei-117"/>
      <path d="M 48.046875 1.5625 
L 40.234375 1.5625 
L 40.234375 33.203125 
Q 40.234375 35.546875 39.453125 37.109375 
Q 38.671875 38.671875 36.328125 38.671875 
Q 33.59375 38.671875 31.25 35.734375 
Q 28.90625 32.8125 28.90625 28.125 
L 28.90625 1.5625 
L 21.09375 1.5625 
L 21.09375 33.203125 
Q 21.09375 35.546875 20.3125 37.109375 
Q 19.53125 38.671875 17.1875 38.671875 
Q 14.453125 38.671875 12.109375 35.734375 
Q 9.765625 32.8125 9.765625 28.125 
L 9.765625 1.5625 
L 1.953125 1.5625 
L 1.953125 45.3125 
L 9.765625 45.3125 
L 9.765625 39.453125 
Q 11.71875 42.578125 14.453125 44.328125 
Q 17.1875 46.09375 20.3125 46.09375 
Q 23.4375 46.09375 25.578125 44.328125 
Q 27.734375 42.578125 28.515625 39.453125 
Q 30.46875 42.578125 33 44.328125 
Q 35.546875 46.09375 38.671875 46.09375 
Q 43.359375 46.09375 45.703125 43.546875 
Q 48.046875 41.015625 48.046875 36.328125 
z
" id="SimHei-109"/>
      <path d="M 44.53125 23.4375 
Q 44.53125 12.109375 39.0625 6.4375 
Q 33.59375 0.78125 25.78125 0.78125 
Q 21.484375 0.78125 18.359375 2.34375 
Q 15.234375 3.90625 12.890625 7.421875 
L 12.890625 1.5625 
L 5.078125 1.5625 
L 5.078125 68.359375 
L 12.890625 68.359375 
L 12.890625 39.453125 
Q 15.234375 42.96875 18.359375 44.71875 
Q 21.484375 46.484375 25.78125 46.484375 
Q 33.59375 46.484375 39.0625 40.625 
Q 44.53125 34.765625 44.53125 23.4375 
z
M 35.9375 23.4375 
Q 35.9375 30.859375 33 35.15625 
Q 30.078125 39.453125 24.21875 39.453125 
Q 19.53125 39.453125 16.203125 35.15625 
Q 12.890625 30.859375 12.890625 23.4375 
Q 12.890625 16.015625 16.203125 11.90625 
Q 19.53125 7.8125 24.21875 7.8125 
Q 30.078125 7.8125 33 11.90625 
Q 35.9375 16.015625 35.9375 23.4375 
z
" id="SimHei-98"/>
      <path d="M 44.921875 16.40625 
Q 44.140625 9.375 38.671875 5.078125 
Q 33.203125 0.78125 25.78125 0.78125 
Q 16.40625 0.78125 10.34375 6.828125 
Q 4.296875 12.890625 4.296875 23.4375 
Q 4.296875 33.984375 10.34375 40.03125 
Q 16.40625 46.09375 25.78125 46.09375 
Q 33.984375 46.09375 39.25 40.8125 
Q 44.53125 35.546875 44.53125 23.4375 
L 12.890625 23.4375 
Q 12.890625 14.84375 16.59375 11.328125 
Q 20.3125 7.8125 25.78125 7.8125 
Q 30.078125 7.8125 32.8125 9.953125 
Q 35.546875 12.109375 36.328125 16.40625 
z
M 35.546875 29.6875 
Q 34.765625 35.15625 32.03125 37.296875 
Q 29.296875 39.453125 25 39.453125 
Q 21.09375 39.453125 17.96875 37.296875 
Q 14.84375 35.15625 13.28125 29.6875 
z
" id="SimHei-101"/>
      <path d="M 39.453125 37.5 
Q 32.03125 38.671875 26.953125 35.34375 
Q 21.875 32.03125 18.359375 23.828125 
L 18.359375 1.5625 
L 10.546875 1.5625 
L 10.546875 45.3125 
L 18.359375 45.3125 
L 18.359375 33.984375 
Q 21.875 40.234375 27.140625 43.15625 
Q 32.421875 46.09375 39.453125 46.09375 
z
" id="SimHei-114"/>
      <path id="SimHei-32"/>
      <path d="M 46.09375 23.4375 
Q 46.09375 13.28125 39.84375 7.03125 
Q 33.59375 0.78125 25 0.78125 
Q 16.40625 0.78125 10.15625 7.03125 
Q 3.90625 13.28125 3.90625 23.4375 
Q 3.90625 33.59375 10.15625 39.84375 
Q 16.40625 46.09375 25 46.09375 
Q 33.59375 46.09375 39.84375 39.84375 
Q 46.09375 33.59375 46.09375 23.4375 
z
M 37.5 23.4375 
Q 37.5 31.25 33.59375 35.15625 
Q 29.6875 39.0625 25 39.0625 
Q 20.3125 39.0625 16.40625 35.15625 
Q 12.5 31.25 12.5 23.4375 
Q 12.5 15.625 16.40625 11.71875 
Q 20.3125 7.8125 25 7.8125 
Q 29.6875 7.8125 33.59375 11.71875 
Q 37.5 15.625 37.5 23.4375 
z
" id="SimHei-111"/>
      <path d="M 44.921875 59.375 
Q 42.96875 60.546875 40.234375 61.328125 
Q 37.5 62.109375 33.203125 62.109375 
Q 28.90625 62.109375 27.34375 59.953125 
Q 25.78125 57.8125 25.78125 54.6875 
L 25.78125 45.3125 
L 41.796875 45.3125 
L 41.796875 39.0625 
L 25.78125 39.0625 
L 25.78125 1.5625 
L 17.96875 1.5625 
L 17.96875 39.0625 
L 4.6875 39.0625 
L 4.6875 45.3125 
L 17.96875 45.3125 
L 17.96875 54.296875 
Q 17.96875 61.328125 22.265625 65.234375 
Q 26.5625 69.140625 33.59375 69.140625 
Q 37.890625 69.140625 40.421875 68.546875 
Q 42.96875 67.96875 44.921875 67.1875 
z
" id="SimHei-102"/>
      <path d="M 44.921875 0.78125 
L 38.28125 0.78125 
L 37.109375 6.25 
Q 35.546875 3.90625 32.21875 2.34375 
Q 28.90625 0.78125 25 0.78125 
Q 16.796875 0.78125 10.34375 8.390625 
Q 3.90625 16.015625 3.90625 32.8125 
Q 3.90625 51.171875 9.765625 60.15625 
Q 15.625 69.140625 25.78125 69.140625 
Q 34.765625 69.140625 39.84375 62.5 
Q 44.921875 55.859375 44.921875 45.3125 
L 36.328125 45.3125 
Q 36.328125 53.515625 33.59375 57.609375 
Q 30.859375 61.71875 25.78125 61.71875 
Q 19.53125 61.71875 16.40625 55.265625 
Q 13.28125 48.828125 13.28125 33.59375 
Q 13.28125 19.140625 17.1875 13.671875 
Q 21.09375 8.203125 26.171875 8.203125 
Q 31.25 8.203125 34.171875 11.90625 
Q 37.109375 15.625 37.109375 23.4375 
L 37.109375 27.734375 
L 25 27.734375 
L 25 35.15625 
L 44.921875 35.15625 
z
" id="SimHei-71"/>
      <path d="M 44.140625 1.5625 
L 36.328125 1.5625 
L 36.328125 29.6875 
Q 36.328125 34.375 33.984375 37.109375 
Q 31.640625 39.84375 27.734375 39.84375 
Q 22.65625 39.84375 18.15625 34.5625 
Q 13.671875 29.296875 13.671875 21.484375 
L 13.671875 1.5625 
L 5.859375 1.5625 
L 5.859375 45.3125 
L 13.671875 45.3125 
L 13.671875 37.109375 
Q 16.796875 41.40625 20.5 43.75 
Q 24.21875 46.09375 30.078125 46.09375 
Q 37.109375 46.09375 40.625 42.1875 
Q 44.140625 38.28125 44.140625 32.421875 
z
" id="SimHei-110"/>
      <path d="M 45.3125 1.5625 
L 35.9375 1.5625 
Q 35.15625 2.34375 34.765625 3.703125 
Q 34.375 5.078125 34.375 7.03125 
Q 31.640625 3.90625 27.734375 2.34375 
Q 23.828125 0.78125 19.53125 0.78125 
Q 13.28125 0.78125 8.984375 3.90625 
Q 4.6875 7.03125 4.6875 12.890625 
Q 4.6875 18.75 8.59375 22.265625 
Q 12.5 25.78125 20.703125 26.953125 
Q 26.171875 27.734375 30.265625 28.90625 
Q 34.375 30.078125 34.375 32.03125 
Q 34.375 34.375 32.609375 36.71875 
Q 30.859375 39.0625 25 39.0625 
Q 20.3125 39.0625 18.15625 37.296875 
Q 16.015625 35.546875 15.234375 32.421875 
L 6.640625 32.421875 
Q 7.421875 38.671875 12.296875 42.375 
Q 17.1875 46.09375 25 46.09375 
Q 33.59375 46.09375 37.890625 42.1875 
Q 42.1875 38.28125 42.1875 31.25 
L 42.1875 9.765625 
Q 42.1875 7.421875 42.96875 5.46875 
Q 43.75 3.515625 45.3125 1.5625 
z
M 34.375 16.015625 
L 34.375 23.828125 
Q 32.03125 23.046875 29.875 22.453125 
Q 27.734375 21.875 22.65625 21.09375 
Q 16.796875 20.3125 15.03125 18.359375 
Q 13.28125 16.40625 13.28125 13.671875 
Q 13.28125 11.328125 15.03125 9.5625 
Q 16.796875 7.8125 20.3125 7.8125 
Q 23.828125 7.8125 27.921875 9.765625 
Q 32.03125 11.71875 34.375 16.015625 
z
" id="SimHei-97"/>
      <path d="M 43.359375 2.734375 
Q 41.40625 1.953125 38.859375 1.359375 
Q 36.328125 0.78125 32.03125 0.78125 
Q 25 0.78125 20.703125 4.6875 
Q 16.40625 8.59375 16.40625 15.625 
L 16.40625 39.0625 
L 3.125 39.0625 
L 3.125 45.3125 
L 16.40625 45.3125 
L 16.40625 60.546875 
L 24.21875 60.546875 
L 24.21875 45.3125 
L 40.234375 45.3125 
L 40.234375 39.0625 
L 24.21875 39.0625 
L 24.21875 15.234375 
Q 24.21875 12.109375 25.78125 9.953125 
Q 27.34375 7.8125 31.640625 7.8125 
Q 35.9375 7.8125 38.671875 8.59375 
Q 41.40625 9.375 43.359375 10.546875 
z
" id="SimHei-116"/>
      <path d="M 28.515625 57.8125 
L 20.703125 57.8125 
L 20.703125 67.96875 
L 28.515625 67.96875 
z
M 28.515625 1.5625 
L 20.703125 1.5625 
L 20.703125 45.3125 
L 28.515625 45.3125 
z
" id="SimHei-105"/>
     </defs>
     <g transform="translate(179.885 299.272937)scale(0.1 -0.1)">
      <use xlink:href="#SimHei-78"/>
      <use x="50" xlink:href="#SimHei-117"/>
      <use x="100" xlink:href="#SimHei-109"/>
      <use x="150" xlink:href="#SimHei-98"/>
      <use x="200" xlink:href="#SimHei-101"/>
      <use x="250" xlink:href="#SimHei-114"/>
      <use x="300" xlink:href="#SimHei-32"/>
      <use x="350" xlink:href="#SimHei-111"/>
      <use x="400" xlink:href="#SimHei-102"/>
      <use x="450" xlink:href="#SimHei-32"/>
      <use x="500" xlink:href="#SimHei-71"/>
      <use x="550" xlink:href="#SimHei-101"/>
      <use x="600" xlink:href="#SimHei-110"/>
      <use x="650" xlink:href="#SimHei-101"/>
      <use x="700" xlink:href="#SimHei-114"/>
      <use x="750" xlink:href="#SimHei-97"/>
      <use x="800" xlink:href="#SimHei-116"/>
      <use x="850" xlink:href="#SimHei-105"/>
      <use x="900" xlink:href="#SimHei-111"/>
      <use x="950" xlink:href="#SimHei-110"/>
     </g>
    </g>
   </g>
   <g id="matplotlib.axis_2">
    <g id="ytick_1">
     <g id="line2d_7">
      <defs>
       <path d="M 0 0 
L -3.5 0 
" id="m49ee26d8a1" style="stroke:#000000;stroke-width:0.8;"/>
      </defs>
      <g>
       <use style="stroke:#000000;stroke-width:0.8;" x="51.325" xlink:href="#m49ee26d8a1" y="271.254143"/>
      </g>
     </g>
     <g id="text_8">
      <!-- 0 -->
      <g transform="translate(39.325 274.672112)scale(0.1 -0.1)">
       <use xlink:href="#SimHei-48"/>
      </g>
     </g>
    </g>
    <g id="ytick_2">
     <g id="line2d_8">
      <g>
       <use style="stroke:#000000;stroke-width:0.8;" x="51.325" xlink:href="#m49ee26d8a1" y="231.591764"/>
      </g>
     </g>
     <g id="text_9">
      <!-- 2000 -->
      <g transform="translate(24.325 235.009732)scale(0.1 -0.1)">
       <use xlink:href="#SimHei-50"/>
       <use x="50" xlink:href="#SimHei-48"/>
       <use x="100" xlink:href="#SimHei-48"/>
       <use x="150" xlink:href="#SimHei-48"/>
      </g>
     </g>
    </g>
    <g id="ytick_3">
     <g id="line2d_9">
      <g>
       <use style="stroke:#000000;stroke-width:0.8;" x="51.325" xlink:href="#m49ee26d8a1" y="191.929384"/>
      </g>
     </g>
     <g id="text_10">
      <!-- 4000 -->
      <g transform="translate(24.325 195.347353)scale(0.1 -0.1)">
       <use xlink:href="#SimHei-52"/>
       <use x="50" xlink:href="#SimHei-48"/>
       <use x="100" xlink:href="#SimHei-48"/>
       <use x="150" xlink:href="#SimHei-48"/>
      </g>
     </g>
    </g>
    <g id="ytick_4">
     <g id="line2d_10">
      <g>
       <use style="stroke:#000000;stroke-width:0.8;" x="51.325" xlink:href="#m49ee26d8a1" y="152.267005"/>
      </g>
     </g>
     <g id="text_11">
      <!-- 6000 -->
      <g transform="translate(24.325 155.684974)scale(0.1 -0.1)">
       <use xlink:href="#SimHei-54"/>
       <use x="50" xlink:href="#SimHei-48"/>
       <use x="100" xlink:href="#SimHei-48"/>
       <use x="150" xlink:href="#SimHei-48"/>
      </g>
     </g>
    </g>
    <g id="ytick_5">
     <g id="line2d_11">
      <g>
       <use style="stroke:#000000;stroke-width:0.8;" x="51.325" xlink:href="#m49ee26d8a1" y="112.604626"/>
      </g>
     </g>
     <g id="text_12">
      <!-- 8000 -->
      <g transform="translate(24.325 116.022595)scale(0.1 -0.1)">
       <use xlink:href="#SimHei-56"/>
       <use x="50" xlink:href="#SimHei-48"/>
       <use x="100" xlink:href="#SimHei-48"/>
       <use x="150" xlink:href="#SimHei-48"/>
      </g>
     </g>
    </g>
    <g id="ytick_6">
     <g id="line2d_12">
      <g>
       <use style="stroke:#000000;stroke-width:0.8;" x="51.325" xlink:href="#m49ee26d8a1" y="72.942247"/>
      </g>
     </g>
     <g id="text_13">
      <!-- 10000 -->
      <g transform="translate(19.325 76.360215)scale(0.1 -0.1)">
       <use xlink:href="#SimHei-49"/>
       <use x="50" xlink:href="#SimHei-48"/>
       <use x="100" xlink:href="#SimHei-48"/>
       <use x="150" xlink:href="#SimHei-48"/>
       <use x="200" xlink:href="#SimHei-48"/>
      </g>
     </g>
    </g>
    <g id="ytick_7">
     <g id="line2d_13">
      <g>
       <use style="stroke:#000000;stroke-width:0.8;" x="51.325" xlink:href="#m49ee26d8a1" y="33.279867"/>
      </g>
     </g>
     <g id="text_14">
      <!-- 12000 -->
      <g transform="translate(19.325 36.697836)scale(0.1 -0.1)">
       <use xlink:href="#SimHei-49"/>
       <use x="50" xlink:href="#SimHei-50"/>
       <use x="100" xlink:href="#SimHei-48"/>
       <use x="150" xlink:href="#SimHei-48"/>
       <use x="200" xlink:href="#SimHei-48"/>
      </g>
     </g>
    </g>
    <g id="text_15">
     <!-- Value -->
     <defs>
      <path d="M 48.046875 68.359375 
L 28.515625 0.78125 
L 20.703125 0.78125 
L 1.171875 68.359375 
L 10.546875 68.359375 
L 24.21875 17.1875 
L 25 17.1875 
L 38.671875 68.359375 
z
" id="SimHei-86"/>
      <path d="M 28.90625 1.5625 
L 21.09375 1.5625 
L 21.09375 68.359375 
L 28.90625 68.359375 
z
" id="SimHei-108"/>
     </defs>
     <g transform="translate(14.035938 152.756)rotate(-90)scale(0.1 -0.1)">
      <use xlink:href="#SimHei-86"/>
      <use x="50" xlink:href="#SimHei-97"/>
      <use x="100" xlink:href="#SimHei-108"/>
      <use x="150" xlink:href="#SimHei-117"/>
      <use x="200" xlink:href="#SimHei-101"/>
     </g>
    </g>
   </g>
   <g id="line2d_14">
    <path clip-path="url(#p168cac4b6b)" d="M 67.557727 19.296 
L 67.752539 50.2087 
L 68.23957 63.038562 
L 68.304507 63.049289 
L 68.661663 66.827459 
L 68.791538 68.100516 
L 68.856475 68.1182 
L 68.921413 68.430513 
L 69.181162 72.448809 
L 69.375975 72.451509 
L 69.668193 75.767143 
L 69.700662 75.767143 
L 69.830536 76.366024 
L 70.057817 78.125019 
L 70.252629 78.131583 
L 70.447442 78.787443 
L 70.577317 78.787443 
L 70.707191 79.355749 
L 70.837066 79.355749 
L 70.966941 80.725696 
L 71.551378 80.774745 
L 71.74619 81.453029 
L 71.843596 81.453029 
L 72.135814 82.493405 
L 73.304687 82.577064 
L 73.434562 83.209043 
L 73.661843 83.229676 
L 73.791718 84.121804 
L 73.889124 84.121804 
L 74.051468 84.586257 
L 74.278748 84.586257 
L 74.408623 84.800637 
L 74.798248 84.831765 
L 74.960591 85.38981 
L 75.187872 85.38981 
L 75.317747 85.527601 
L 75.415153 85.543894 
L 75.545028 85.856685 
L 75.609965 85.856685 
L 75.73984 86.205997 
L 75.837246 86.214709 
L 75.99959 86.398874 
L 77.135994 86.504748 
L 77.265869 86.942488 
L 77.363275 86.942488 
L 77.655493 87.682198 
L 77.850306 87.776007 
L 77.98018 89.074304 
L 78.272399 89.074304 
L 78.467211 89.875845 
L 78.597086 90.085327 
L 78.824367 90.085327 
L 78.954241 91.124768 
L 79.084116 91.709902 
L 79.24646 92.222844 
L 79.311397 92.222844 
L 79.441272 92.541158 
L 79.668553 92.541158 
L 79.798428 92.851469 
L 79.830896 92.851469 
L 79.960771 93.420839 
L 80.350396 93.507372 
L 80.48027 93.687145 
L 80.707551 93.687145 
L 81.032238 95.103128 
L 81.162113 95.174995 
L 81.291988 95.419318 
L 82.038768 95.456699 
L 82.23358 95.843134 
L 82.330986 95.843134 
L 82.590736 96.625291 
L 82.655673 96.625291 
L 82.785548 97.016498 
L 82.882954 97.016498 
L 83.012829 97.275132 
L 83.434922 97.275132 
L 83.564797 97.507701 
L 85.577857 97.602627 
L 85.7402 97.639407 
L 85.870075 97.639407 
L 85.99995 97.883452 
L 86.097356 97.883452 
L 86.324637 98.963526 
L 86.454511 99.446564 
L 87.23376 99.446564 
L 87.363635 99.874525 
L 88.272759 99.874525 
L 88.467571 100.305602 
L 88.954602 100.354615 
L 89.181882 101.023664 
L 89.603976 101.047944 
L 89.798788 101.728105 
L 89.831256 101.728105 
L 89.961131 101.855535 
L 90.48063 101.87586 
L 90.675443 102.901083 
L 92.948252 102.901083 
L 93.078127 103.13036 
L 93.305407 103.219985 
L 93.50022 103.480631 
L 94.052188 103.53517 
L 94.247 103.908257 
L 94.506749 103.908257 
L 94.636624 104.636663 
L 95.578217 104.733823 
L 95.708091 104.954956 
L 96.00031 104.954956 
L 96.130185 105.152663 
L 97.071777 105.230925 
L 97.299058 106.05146 
L 97.851026 106.05146 
L 97.9809 106.263995 
L 98.013369 106.263995 
L 98.143244 106.466659 
L 98.565337 106.567954 
L 98.695212 106.669046 
L 99.474461 106.669046 
L 99.604336 107.278992 
L 99.929023 107.319115 
L 100.058897 107.534551 
L 100.318647 107.613828 
L 100.448522 107.810617 
L 100.513459 107.810617 
L 100.643334 108.30576 
L 102.818737 108.371844 
L 102.948612 108.556159 
L 104.214891 108.66718 
L 104.344766 108.999401 
L 104.799328 108.999401 
L 104.929203 109.113298 
L 105.026609 109.113298 
L 105.156484 109.315881 
L 105.74092 109.315881 
L 106.00067 110.153418 
L 106.390294 110.184591 
L 106.520169 110.267025 
L 107.137074 110.267025 
L 107.266949 110.75942 
L 108.046198 110.75942 
L 108.176073 111.165057 
L 108.663103 111.219312 
L 108.792978 112.065471 
L 108.857915 112.065471 
L 108.98779 112.790148 
L 110.189132 112.870334 
L 110.319007 113.187369 
L 110.351476 113.187369 
L 110.481351 113.452797 
L 110.578757 113.452797 
L 110.708631 113.619365 
L 111.260599 113.619365 
L 111.390474 114.047368 
L 111.617755 114.047368 
L 111.74763 114.346671 
L 112.267129 114.346671 
L 112.397004 114.526531 
L 113.630815 114.526531 
L 113.760689 114.706954 
L 114.799688 114.706954 
L 114.929563 115.401046 
L 115.643874 115.401046 
L 115.838686 115.763682 
L 116.520529 115.844491 
L 116.650404 116.250386 
L 118.176433 116.27142 
L 118.338776 116.496053 
L 118.371245 116.496053 
L 118.630995 117.180442 
L 119.118025 117.180442 
L 119.2479 117.544149 
L 119.312837 117.544149 
L 119.442712 117.689606 
L 120.416773 117.745184 
L 120.708991 118.100845 
L 121.163553 118.183469 
L 121.293428 118.566307 
L 121.74799 118.6072 
L 121.877865 118.708852 
L 122.429833 118.708852 
L 122.559707 119.151429 
L 122.916863 119.210103 
L 123.046738 119.335297 
L 124.929923 119.411835 
L 124.962391 119.463773 
L 125.092266 119.829727 
L 125.124735 119.829727 
L 125.25461 120.682809 
L 125.352016 120.682809 
L 125.481891 121.739809 
L 125.514359 121.739809 
L 125.644234 122.312644 
L 126.455952 122.312644 
L 126.585826 122.469023 
L 126.715701 122.469023 
L 126.845576 122.604467 
L 127.884575 122.604467 
L 128.014449 122.771968 
L 129.24826 122.771968 
L 129.378135 122.971833 
L 129.475541 122.971833 
L 129.605416 123.175856 
L 130.222321 123.18542 
L 130.352196 123.57575 
L 132.170443 123.57575 
L 132.300318 123.772473 
L 132.430193 123.772473 
L 132.560068 123.98963 
L 133.858816 124.084869 
L 133.98869 124.22957 
L 134.053628 124.22957 
L 134.24844 124.80414 
L 134.410783 124.80414 
L 134.540658 125.037559 
L 134.930283 125.080009 
L 135.060158 125.253197 
L 135.579657 125.253197 
L 135.709532 125.366655 
L 135.936812 125.366655 
L 136.066687 125.749159 
L 136.099156 125.749159 
L 136.229031 125.89306 
L 136.618655 125.89306 
L 136.74853 126.016887 
L 136.780999 126.016887 
L 136.910873 126.197943 
L 137.49531 126.216307 
L 137.625185 126.770608 
L 139.573307 126.860908 
L 139.735651 127.584245 
L 139.768119 127.584245 
L 139.897994 128.048186 
L 140.385025 128.048186 
L 140.514899 128.659702 
L 140.644774 128.659702 
L 140.774649 128.916268 
L 142.430553 128.95924 
L 142.560428 129.465648 
L 144.281269 129.483384 
L 144.411144 129.765281 
L 144.443612 129.765281 
L 144.573487 129.906427 
L 144.605956 129.906427 
L 144.735831 130.092659 
L 144.768299 130.092659 
L 144.898174 130.270301 
L 146.554078 130.312913 
L 146.683953 130.486136 
L 147.073577 130.486136 
L 147.203452 131.03136 
L 147.333327 131.03136 
L 147.463201 131.357725 
L 147.75542 131.357725 
L 147.885295 131.596482 
L 148.534669 131.596482 
L 148.664543 131.919937 
L 149.151574 131.919937 
L 149.281449 132.473185 
L 149.736011 132.503038 
L 149.865885 132.75494 
L 150.385385 132.83641 
L 150.515259 133.05905 
L 151.00229 133.05905 
L 151.229571 133.509191 
L 151.391914 133.509191 
L 151.521789 133.639697 
L 151.554258 133.639697 
L 151.684133 134.132026 
L 151.943882 134.132026 
L 152.073757 134.796394 
L 152.203632 134.796394 
L 152.365975 135.028869 
L 153.015349 135.028869 
L 153.145224 135.741122 
L 153.469911 135.741122 
L 153.599786 136.015101 
L 157.236281 136.093443 
L 157.366155 136.593247 
L 158.859716 136.593247 
L 158.98959 136.826257 
L 160.320807 136.826257 
L 160.450682 137.064011 
L 161.522149 137.122295 
L 161.652024 137.271974 
L 162.49621 137.271974 
L 162.658554 137.774547 
L 165.645674 137.793532 
L 165.872955 138.640937 
L 166.717141 138.640937 
L 166.847016 138.770356 
L 166.944422 138.770356 
L 167.074297 139.197181 
L 168.340576 139.287427 
L 168.730201 139.86219 
L 168.925013 139.86219 
L 169.054888 140.129361 
L 169.152294 140.129361 
L 169.282169 140.461165 
L 169.834137 140.461165 
L 169.964012 140.65221 
L 172.529039 140.652381 
L 172.658914 141.43345 
L 173.665443 141.43345 
L 173.795318 141.565496 
L 173.957662 141.565496 
L 174.087537 141.8731 
L 174.217411 141.8731 
L 174.347286 142.552995 
L 177.237001 142.552995 
L 177.366875 144.063222 
L 177.464282 144.063222 
L 177.594156 144.373524 
L 177.626625 144.373524 
L 177.7565 144.739184 
L 178.048718 144.739184 
L 178.178593 144.925897 
L 179.087717 144.925897 
L 179.217591 145.227339 
L 179.769559 145.227339 
L 179.899434 145.443449 
L 180.321527 145.443449 
L 180.451402 145.583766 
L 183.081367 145.630276 
L 183.211242 145.822109 
L 183.76321 145.822109 
L 183.828147 145.957921 
L 183.958022 147.27839 
L 184.737271 147.27839 
L 184.867145 147.843578 
L 185.126895 147.843578 
L 185.25677 148.001126 
L 185.484051 148.001126 
L 185.613926 148.129455 
L 186.068487 148.200997 
L 186.198362 148.845552 
L 188.373765 148.929899 
L 188.536109 149.445405 
L 189.412764 149.512443 
L 189.640045 149.735677 
L 189.964732 149.735677 
L 190.094606 149.967379 
L 190.873855 149.967379 
L 191.00373 150.149005 
L 191.880385 150.149005 
L 192.01026 150.271941 
L 192.302478 150.381633 
L 192.432353 151.015925 
L 192.594696 151.015925 
L 192.724571 151.18625 
L 192.854446 151.279835 
L 192.984321 151.624725 
L 193.114196 151.624725 
L 193.24407 151.762973 
L 194.575287 151.817124 
L 194.802568 152.177421 
L 195.387005 152.246032 
L 195.614286 152.756764 
L 196.977971 152.756764 
L 197.107846 153.483074 
L 197.887095 153.483074 
L 198.01697 153.868267 
L 198.24425 153.868267 
L 198.374125 154.323013 
L 199.25078 154.421665 
L 199.380655 155.245311 
L 200.159904 155.339228 
L 200.289779 155.544367 
L 201.815808 155.589442 
L 201.945682 155.962967 
L 203.179493 156.053095 
L 203.341837 156.674536 
L 203.569118 156.736626 
L 203.861336 157.257127 
L 203.893805 157.257127 
L 204.023679 158.028781 
L 204.802928 158.077992 
L 204.932803 158.175729 
L 205.095146 158.175729 
L 205.225021 158.576277 
L 205.322427 158.576277 
L 205.452302 158.740976 
L 206.491301 158.740976 
L 206.621175 159.045521 
L 207.173143 159.15438 
L 207.303018 159.247721 
L 207.75758 159.305108 
L 207.887455 159.387303 
L 208.309548 159.391426 
L 208.439423 159.538868 
L 208.634235 159.538868 
L 208.76411 159.871032 
L 209.056328 159.871032 
L 209.25114 160.340468 
L 210.127795 160.390473 
L 210.25767 160.679597 
L 210.647294 160.690859 
L 210.809638 161.136009 
L 211.459012 161.240083 
L 211.621355 161.370624 
L 212.270729 161.458714 
L 212.400604 161.533546 
L 212.660354 161.533546 
L 212.822697 162.229056 
L 212.920104 162.229056 
L 213.082447 162.595551 
L 213.634415 162.595551 
L 213.76429 162.986805 
L 214.024039 163.071387 
L 214.186383 163.238062 
L 214.51107 163.238062 
L 214.738351 163.885382 
L 215.160444 163.885382 
L 215.290319 164.057573 
L 215.485131 164.057573 
L 215.615006 164.426973 
L 215.744881 164.559038 
L 216.491661 164.600156 
L 216.621535 165.091214 
L 218.537189 165.091214 
L 218.667064 165.472396 
L 219.024219 165.525814 
L 219.154094 166.157582 
L 219.2515 166.157582 
L 219.381375 166.307193 
L 219.413844 166.307193 
L 219.576187 166.70975 
L 219.965812 166.74471 
L 220.095687 167.071574 
L 220.355436 167.071574 
L 220.485311 167.226365 
L 220.874935 167.241355 
L 221.00481 167.44715 
L 222.49837 167.537401 
L 222.628245 167.762311 
L 222.790589 167.763057 
L 222.952932 168.249509 
L 223.212682 168.249509 
L 223.342557 169.052619 
L 223.537369 169.145541 
L 223.699712 169.361605 
L 224.121805 169.361605 
L 224.25168 169.502464 
L 224.284149 169.502464 
L 224.414024 169.932537 
L 224.641305 170.627496 
L 225.842647 170.691112 
L 225.972521 170.805497 
L 226.654364 170.829978 
L 226.784239 171.296898 
L 227.725831 171.296898 
L 227.855706 171.491653 
L 228.375205 171.491653 
L 228.537549 171.771165 
L 228.862236 171.851284 
L 229.024579 171.944769 
L 229.089517 171.944769 
L 229.219392 172.736292 
L 229.381735 172.736292 
L 229.51161 172.941488 
L 230.907764 173.036738 
L 231.037639 173.184408 
L 231.135045 173.184408 
L 231.297389 173.723452 
L 231.622076 173.824458 
L 231.75195 173.980647 
L 232.628605 173.980647 
L 232.790949 174.417128 
L 232.823417 174.417128 
L 232.953292 174.984715 
L 233.01823 174.984715 
L 233.148104 175.172813 
L 234.219572 175.278899 
L 234.349446 175.366791 
L 235.063758 175.471689 
L 235.193633 175.834442 
L 235.420914 176.275688 
L 236.946943 176.361183 
L 237.076817 176.770141 
L 237.109286 176.770141 
L 237.239161 177.010959 
L 237.433973 177.010959 
L 237.563848 177.144557 
L 237.953472 177.144557 
L 238.083347 177.755867 
L 238.115816 177.755867 
L 238.245691 177.916329 
L 238.537909 177.916329 
L 238.700252 178.245796 
L 238.76519 178.245796 
L 238.895065 178.373532 
L 239.057408 178.373532 
L 239.187283 179.042255 
L 239.739251 179.077375 
L 239.869126 179.548331 
L 239.901594 179.548331 
L 240.031469 179.666136 
L 240.161344 179.666136 
L 240.323688 180.546074 
L 240.648375 180.546074 
L 240.778249 180.784751 
L 240.875655 180.784751 
L 241.00553 180.955545 
L 241.037999 180.955545 
L 241.167874 181.319898 
L 241.26528 181.319898 
L 241.460092 182.068419 
L 241.719842 182.173767 
L 241.914654 182.198164 
L 242.044529 182.198164 
L 242.174403 182.619797 
L 242.304278 182.686305 
L 242.49909 182.686305 
L 242.628965 182.918203 
L 242.856246 182.918203 
L 242.986121 183.325419 
L 243.148465 183.325419 
L 243.245871 183.777901 
L 243.408214 184.528893 
L 243.700432 184.528973 
L 243.862776 184.982133 
L 244.317338 185.027145 
L 244.447213 185.20457 
L 244.804368 185.256907 
L 244.934243 185.654062 
L 245.421274 185.715201 
L 245.583617 186.254892 
L 245.745961 186.254892 
L 245.875835 186.499178 
L 246.135585 186.499178 
L 246.297929 186.975724 
L 246.395335 186.975724 
L 246.525209 187.616472 
L 246.720022 187.616472 
L 246.882365 188.405451 
L 246.947303 188.405451 
L 247.077177 189.253886 
L 247.207052 189.645489 
L 247.304458 189.645489 
L 247.434333 190.028 
L 247.499271 190.028 
L 247.888895 191.508038 
L 248.5058 191.563989 
L 248.733081 192.061019 
L 248.992831 192.154117 
L 249.122706 192.236419 
L 249.739611 192.302152 
L 249.934423 192.416643 
L 250.811078 192.521827 
L 250.940953 193.156525 
L 251.135765 193.156525 
L 251.26564 193.311554 
L 251.947483 193.311554 
L 252.077357 193.50526 
L 252.207232 193.527778 
L 252.337107 194.408376 
L 253.01895 194.451518 
L 253.181293 195.119804 
L 253.570918 195.188901 
L 253.76573 195.596809 
L 254.382635 195.631425 
L 254.51251 196.409997 
L 254.999541 196.467212 
L 255.129415 196.843565 
L 255.51904 197.505929 
L 255.681383 198.372124 
L 256.038539 198.372124 
L 256.168414 198.549568 
L 256.330757 198.652759 
L 256.817788 198.975437 
L 256.980131 198.975437 
L 257.110006 199.31357 
L 257.661974 199.358258 
L 257.856786 199.649042 
L 258.051598 199.64961 
L 258.278879 200.637743 
L 258.700973 200.701388 
L 258.993191 200.995737 
L 259.188003 201.061892 
L 259.220472 201.061892 
L 259.545159 202.023825 
L 259.77244 202.023825 
L 259.902314 202.397224 
L 260.129595 202.448983 
L 260.25947 202.514244 
L 260.356876 202.514244 
L 260.51922 202.816334 
L 260.551688 202.816334 
L 260.681563 202.934443 
L 261.363406 202.934443 
L 261.493281 203.273477 
L 261.52575 203.273477 
L 261.655624 203.713857 
L 261.850437 203.713857 
L 261.980311 203.881287 
L 262.662154 203.892798 
L 262.792029 204.27263 
L 263.116716 204.367383 
L 263.246591 204.588464 
L 264.805088 204.63217 
L 264.934963 204.732228 
L 265.746681 204.775568 
L 265.909024 204.933486 
L 266.980491 205.036993 
L 267.110366 205.185535 
L 267.564928 205.240463 
L 267.727271 205.869362 
L 268.474052 205.869362 
L 268.603926 206.140334 
L 269.2533 206.20953 
L 269.448113 206.648189 
L 269.577987 206.738174 
L 269.740331 206.862364 
L 270.194893 206.954032 
L 270.324768 207.186197 
L 270.357236 207.186197 
L 270.51958 207.639782 
L 270.649455 207.639782 
L 270.844267 208.558519 
L 271.298829 208.558519 
L 271.461172 208.926842 
L 272.078077 208.970748 
L 272.240421 209.452853 
L 272.402765 209.471068 
L 272.597577 209.91559 
L 272.694983 209.91559 
L 272.824858 210.042501 
L 272.857326 210.042501 
L 273.117076 211.5634 
L 274.545699 211.671542 
L 274.805448 211.757595 
L 274.967792 211.757595 
L 275.162604 212.152582 
L 275.389885 212.245847 
L 275.51976 212.392108 
L 275.584697 212.392108 
L 275.714572 212.578992 
L 275.747041 212.578992 
L 275.876916 212.74337 
L 276.461352 212.74337 
L 276.623696 212.950652 
L 276.818508 212.950652 
L 276.948383 213.257864 
L 277.889975 213.343969 
L 278.01985 213.412155 
L 278.149725 213.438386 
L 278.312068 213.657009 
L 278.474412 213.657009 
L 278.604286 213.892246 
L 279.02638 213.897524 
L 279.156254 214.05884 
L 279.286129 214.147236 
L 279.805628 214.829772 
L 280.26019 214.829772 
L 280.390065 214.952856 
L 280.974502 214.999252 
L 281.136845 215.209097 
L 281.234251 215.251878 
L 281.364126 215.650992 
L 281.494001 215.731682 
L 281.623876 216.190072 
L 281.883625 216.201561 
L 282.0135 216.360155 
L 282.240781 216.360155 
L 282.403125 216.676875 
L 282.565468 216.739905 
L 282.695343 216.921156 
L 282.792749 216.921156 
L 283.084967 217.659996 
L 283.344717 217.720528 
L 283.50706 217.995106 
L 283.669404 218.016176 
L 283.799279 218.17497 
L 283.961622 218.188903 
L 284.091497 218.367141 
L 284.708402 218.395856 
L 284.870746 218.631542 
L 285.227902 218.731159 
L 285.747401 218.99354 
L 285.909744 219.302759 
L 286.072088 219.364846 
L 286.201963 219.437967 
L 286.494181 219.507158 
L 286.656524 219.675175 
L 286.688993 219.675175 
L 286.818868 220.057621 
L 287.111086 220.166989 
L 287.27343 220.513618 
L 287.663054 220.618485 
L 287.857866 220.937227 
L 288.215022 220.937227 
L 288.344897 221.152306 
L 288.669584 221.198519 
L 288.799459 221.26942 
L 289.091677 221.347107 
L 289.448833 222.349857 
L 289.643645 222.349857 
L 289.805988 222.547378 
L 290.065738 222.64605 
L 290.195613 223.029439 
L 290.26055 223.029439 
L 290.390425 223.379085 
L 290.682643 223.429475 
L 291.104737 224.613344 
L 291.169674 224.688091 
L 291.299549 225.166272 
L 291.396955 225.240026 
L 291.559298 225.52797 
L 291.656704 225.52797 
L 291.981391 226.468957 
L 292.111266 226.477717 
L 292.306078 227.072258 
L 292.500891 227.147869 
L 292.663234 227.189248 
L 292.695703 227.189248 
L 292.858046 227.45349 
L 292.987921 227.504194 
L 293.117796 227.583845 
L 293.994451 227.910885 
L 294.124326 228.233639 
L 294.481481 228.271015 
L 294.611356 228.465488 
L 295.065918 228.465488 
L 295.195793 228.687953 
L 295.228262 228.687953 
L 295.358136 228.980051 
L 295.488011 228.980051 
L 295.617886 229.145569 
L 296.332197 229.211339 
L 296.462072 229.320398 
L 296.591947 229.345117 
L 296.754291 229.654916 
L 296.851697 229.654916 
L 297.01404 230.085971 
L 297.793289 230.194719 
L 297.858226 230.210895 
L 298.053039 230.94084 
L 298.669944 231.030906 
L 298.832287 231.412319 
L 299.059568 231.420536 
L 299.189443 231.788223 
L 299.676474 231.848323 
L 299.806348 231.927816 
L 300.001161 231.927816 
L 300.131036 232.047369 
L 300.942753 232.087889 
L 301.072628 232.326883 
L 301.397315 232.419183 
L 301.52719 232.696613 
L 301.981751 233.375171 
L 302.371376 233.460797 
L 302.858406 233.808275 
L 302.955813 233.895243 
L 303.150625 234.308432 
L 303.2805 234.342868 
L 303.410374 234.481883 
L 303.670124 234.574588 
L 303.929874 235.559917 
L 304.02728 235.589408 
L 304.157154 235.991785 
L 304.287029 236.015191 
L 304.676654 236.888729 
L 304.871466 236.888729 
L 305.001341 237.466887 
L 305.098747 238.071068 
L 305.228622 240.401925 
L 305.358496 241.508007 
L 305.585777 241.569608 
L 305.813058 241.82446 
L 307.826118 241.870201 
L 307.955993 241.990347 
L 308.02093 241.990347 
L 308.150805 242.126507 
L 309.319678 242.196976 
L 309.482022 242.245544 
L 309.676834 242.245544 
L 309.806709 242.4656 
L 310.456083 242.510688 
L 310.618426 242.659446 
L 310.910644 242.745704 
L 311.040519 242.948681 
L 311.495081 243.046181 
L 311.722362 243.064696 
L 312.956173 243.141893 
L 313.118516 243.193577 
L 314.254921 243.290525 
L 314.449733 243.314882 
L 314.936763 243.408672 
L 315.423794 243.669995 
L 316.105637 243.778495 
L 316.26798 243.828973 
L 316.819948 243.936366 
L 317.177104 244.274919 
L 318.573258 244.339263 
L 318.735601 244.596992 
L 319.677194 244.694688 
L 319.936943 244.711463 
L 320.196693 244.776307 
L 320.26163 244.850244 
L 320.391505 245.30802 
L 320.911004 245.393492 
L 321.073348 245.424314 
L 321.885065 245.524818 
L 322.047409 245.58086 
L 322.664314 245.657629 
L 322.924064 245.809929 
L 323.086407 245.841886 
L 323.735781 245.911741 
L 323.865656 245.974526 
L 325.554029 246.07747 
L 325.878716 246.16469 
L 327.859307 246.268552 
L 328.054119 246.291792 
L 328.800899 246.3235 
L 328.995711 247.043928 
L 331.365926 247.152105 
L 331.723082 247.163854 
L 334.02836 247.229557 
L 334.158235 247.288224 
L 335.164764 247.390498 
L 335.359577 247.418941 
L 335.651795 247.507247 
L 335.78167 248.443179 
L 339.677914 248.548562 
L 340.197413 248.561131 
L 344.061189 248.64566 
L 344.191063 248.790867 
L 353.02255 248.887689 
L 353.152425 249.041459 
L 377.146795 249.152236 
L 378.02345 249.160365 
L 384.614597 249.190923 
L 387.147155 249.196243 
L 387.27703 249.372016 
L 387.309499 249.372016 
L 387.439374 249.487259 
L 392.212273 249.527845 
L 392.212273 249.527845 
" style="fill:none;stroke:#1f77b4;stroke-linecap:square;stroke-width:1.5;"/>
   </g>
   <g id="line2d_15">
    <path clip-path="url(#p168cac4b6b)" d="M 67.557727 60.684239 
L 67.590196 60.684239 
L 67.655133 76.797453 
L 67.785008 98.02877 
L 67.817477 98.02877 
L 67.947352 103.669555 
L 70.577317 103.669555 
L 70.707191 109.002643 
L 77.135994 109.002643 
L 77.265869 113.735257 
L 77.850306 113.735257 
L 77.98018 116.782969 
L 87.23376 116.782969 
L 87.363635 121.841486 
L 94.506749 121.841486 
L 94.636624 130.640265 
L 108.857915 130.640265 
L 108.98779 136.655503 
L 114.799688 136.655503 
L 114.929563 144.239733 
L 147.073577 144.239733 
L 147.203452 144.912401 
L 151.554258 144.912401 
L 151.684133 148.372606 
L 168.925013 148.372606 
L 169.054888 149.713012 
L 172.529039 149.713012 
L 172.658914 172.758537 
L 177.237001 172.758537 
L 177.366875 184.248278 
L 224.284149 184.248278 
L 224.414024 184.404471 
L 229.089517 184.404471 
L 229.219392 196.91815 
L 240.648375 196.91815 
L 240.778249 201.031832 
L 246.849896 201.031832 
L 246.979771 204.196849 
L 247.499271 204.196849 
L 247.629145 205.080885 
L 249.739611 205.080885 
L 249.869486 206.454596 
L 250.811078 206.454596 
L 250.940953 206.881627 
L 254.317698 206.881627 
L 254.382635 207.043636 
L 254.51251 210.408088 
L 254.999541 210.408088 
L 255.129415 219.195848 
L 267.694803 219.195848 
L 267.824678 221.088227 
L 273.01967 221.088227 
L 273.149545 233.971862 
L 291.169674 233.971862 
L 291.299549 234.144306 
L 295.228262 234.144306 
L 295.358136 236.264147 
L 297.923164 236.264147 
L 298.053039 236.388147 
L 298.669944 236.388147 
L 298.799819 238.459394 
L 299.059568 238.459394 
L 299.189443 238.611944 
L 303.2805 238.636822 
L 303.410374 240.590403 
L 304.059748 240.590403 
L 304.189623 241.940954 
L 304.351967 241.940954 
L 304.481842 243.30263 
L 304.871466 243.30263 
L 305.001341 247.754119 
L 305.098747 247.754119 
L 305.131216 248.791786 
L 305.293559 261.11969 
L 392.212273 261.216 
L 392.212273 261.216 
" style="fill:none;stroke:#ff7f0e;stroke-linecap:square;stroke-width:1.5;"/>
   </g>
   <g id="patch_3">
    <path d="M 51.325 273.312 
L 51.325 7.2 
" style="fill:none;stroke:#000000;stroke-linecap:square;stroke-linejoin:miter;stroke-width:0.8;"/>
   </g>
   <g id="patch_4">
    <path d="M 408.445 273.312 
L 408.445 7.2 
" style="fill:none;stroke:#000000;stroke-linecap:square;stroke-linejoin:miter;stroke-width:0.8;"/>
   </g>
   <g id="patch_5">
    <path d="M 51.325 273.312 
L 408.445 273.312 
" style="fill:none;stroke:#000000;stroke-linecap:square;stroke-linejoin:miter;stroke-width:0.8;"/>
   </g>
   <g id="patch_6">
    <path d="M 51.325 7.2 
L 408.445 7.2 
" style="fill:none;stroke:#000000;stroke-linecap:square;stroke-linejoin:miter;stroke-width:0.8;"/>
   </g>
   <g id="legend_1">
    <g id="patch_7">
     <path d="M 259.445 43.559375 
L 401.445 43.559375 
Q 403.445 43.559375 403.445 41.559375 
L 403.445 14.2 
Q 403.445 12.2 401.445 12.2 
L 259.445 12.2 
Q 257.445 12.2 257.445 14.2 
L 257.445 41.559375 
Q 257.445 43.559375 259.445 43.559375 
z
" style="fill:#ffffff;opacity:0.8;stroke:#cccccc;stroke-linejoin:miter;"/>
    </g>
    <g id="line2d_16">
     <path d="M 261.445 20.590625 
L 281.445 20.590625 
" style="fill:none;stroke:#1f77b4;stroke-linecap:square;stroke-width:1.5;"/>
    </g>
    <g id="line2d_17"/>
    <g id="text_16">
     <!-- 种群个体平均目标函数值 -->
     <defs>
      <path d="M 14.0625 42.96875 
Q 9.765625 42.96875 6.25 42.578125 
L 6.25 49.609375 
Q 12.109375 49.21875 18.75 49.21875 
L 21.875 49.21875 
L 21.875 65.234375 
Q 17.96875 64.0625 8.984375 62.109375 
Q 7.421875 65.625 5.46875 69.53125 
Q 13.671875 69.921875 21.671875 71.875 
Q 29.6875 73.828125 36.328125 77.34375 
Q 38.28125 74.21875 41.796875 69.53125 
Q 37.890625 68.75 35.34375 68.15625 
Q 32.8125 67.578125 29.296875 66.796875 
L 29.296875 49.21875 
Q 34.375 49.21875 41.40625 49.609375 
L 41.40625 42.578125 
Q 34.375 42.96875 29.296875 42.96875 
L 29.296875 3.90625 
Q 29.296875 -1.171875 29.6875 -8.984375 
L 21.484375 -8.984375 
Q 21.875 -1.171875 21.875 3.90625 
L 21.875 28.515625 
Q 18.75 21.09375 16.203125 16.59375 
Q 13.671875 12.109375 9.765625 5.859375 
Q 6.640625 10.15625 3.90625 13.28125 
Q 9.375 19.140625 13.671875 26.5625 
Q 17.96875 33.984375 19.921875 42.96875 
z
M 29.296875 33.984375 
Q 31.640625 35.546875 35.546875 37.5 
Q 36.71875 35.15625 38.46875 32.421875 
Q 40.234375 29.6875 42.578125 25 
Q 39.0625 23.4375 36.328125 21.09375 
Q 34.375 25.390625 33 28.125 
Q 31.640625 30.859375 29.296875 33.984375 
z
M 72.265625 54.6875 
L 72.265625 28.125 
L 84.375 28.125 
L 84.375 54.6875 
z
M 44.921875 60.9375 
L 64.84375 60.9375 
Q 64.84375 75.390625 64.453125 79.6875 
L 72.65625 79.6875 
Q 72.265625 75.78125 72.265625 60.9375 
L 92.1875 60.9375 
Q 91.796875 56.640625 91.796875 49.609375 
L 91.796875 23.828125 
Q 91.796875 19.921875 92.1875 14.453125 
L 84.375 14.453125 
L 84.375 21.875 
L 72.265625 21.875 
L 72.265625 6.25 
Q 72.265625 -3.515625 72.65625 -9.765625 
L 64.453125 -9.765625 
Q 64.84375 -3.515625 64.84375 6.25 
L 64.84375 21.875 
L 52.734375 21.875 
L 52.734375 12.890625 
L 44.921875 12.890625 
Q 45.3125 17.578125 45.3125 23.046875 
L 45.3125 48.828125 
Q 45.3125 56.640625 44.921875 60.9375 
z
M 52.734375 54.6875 
L 52.734375 28.125 
L 64.84375 28.125 
L 64.84375 54.6875 
z
" id="SimHei-31181"/>
      <path d="M 23.4375 21.09375 
L 23.4375 5.859375 
L 39.0625 5.859375 
L 39.0625 21.09375 
z
M 46.09375 26.5625 
Q 45.703125 22.265625 45.703125 10.546875 
Q 45.703125 -1.171875 46.09375 -6.25 
L 39.0625 -6.25 
L 39.0625 0.390625 
L 23.4375 0.390625 
L 23.4375 -8.984375 
L 16.40625 -8.984375 
Q 16.796875 -3.125 16.796875 22.65625 
Q 13.28125 17.1875 10.15625 13.28125 
Q 7.8125 16.40625 3.90625 17.578125 
Q 8.203125 21.484375 11.90625 26.75 
Q 15.625 32.03125 17.1875 36.71875 
Q 13.671875 36.71875 9.375 36.328125 
L 9.375 42.578125 
Q 14.453125 42.1875 18.359375 42.1875 
Q 19.53125 48.046875 19.53125 52.734375 
Q 11.328125 52.734375 6.640625 52.34375 
L 6.640625 58.59375 
Q 11.71875 58.203125 19.53125 58.203125 
L 19.53125 69.53125 
Q 16.796875 69.53125 10.9375 69.140625 
L 10.9375 75.390625 
Q 16.40625 75 20.3125 75 
L 46.09375 75 
Q 45.703125 69.921875 45.703125 58.203125 
Q 48.046875 58.203125 51.5625 58.59375 
L 51.5625 52.34375 
Q 48.046875 52.734375 45.703125 52.734375 
Q 45.703125 41.40625 46.09375 36.71875 
L 23.828125 36.71875 
Q 21.484375 29.6875 19.53125 26.5625 
z
M 25.78125 69.53125 
L 25.78125 58.203125 
L 39.0625 58.203125 
L 39.0625 69.53125 
z
M 25.78125 52.734375 
Q 25.390625 48.046875 24.609375 42.1875 
L 39.0625 42.1875 
L 39.0625 52.734375 
z
M 68.75 68.359375 
Q 65.234375 66.796875 62.890625 64.84375 
Q 59.765625 70.703125 55.859375 76.171875 
Q 58.984375 77.34375 61.71875 79.6875 
Q 64.453125 75 68.75 68.359375 
z
M 91.40625 34.765625 
Q 86.328125 35.15625 75.78125 35.15625 
L 75.78125 19.921875 
Q 90.625 19.921875 94.53125 20.3125 
L 94.53125 14.0625 
Q 90.625 14.453125 75.78125 14.453125 
L 75.78125 3.515625 
Q 75.78125 -3.125 76.171875 -10.546875 
L 68.75 -10.546875 
Q 69.140625 -3.125 69.140625 3.515625 
L 69.140625 14.453125 
Q 55.859375 14.453125 50.390625 14.0625 
L 50.390625 20.3125 
Q 55.859375 19.921875 69.140625 19.921875 
L 69.140625 35.15625 
Q 57.8125 35.15625 53.515625 34.765625 
L 53.515625 41.015625 
Q 58.203125 40.625 69.140625 40.625 
L 69.140625 54.6875 
Q 60.9375 54.6875 54.6875 54.296875 
L 54.6875 60.546875 
Q 60.9375 60.15625 74.21875 60.15625 
Q 79.296875 69.921875 81.640625 80.078125 
Q 86.328125 78.125 91.015625 76.953125 
Q 88.671875 75 86.328125 70.890625 
Q 83.984375 66.796875 80.859375 60.15625 
Q 87.5 60.15625 92.578125 60.546875 
L 92.578125 54.296875 
Q 87.890625 54.6875 75.78125 54.6875 
L 75.78125 40.625 
L 81.640625 40.625 
L 91.40625 41.015625 
z
" id="SimHei-32676"/>
      <path d="M 56.25 77.734375 
Q 54.6875 76.171875 53.125 74.21875 
Q 67.96875 50.390625 95.3125 43.75 
Q 89.84375 37.890625 89.0625 33.984375 
Q 64.453125 44.140625 48.4375 67.96875 
Q 36.328125 46.484375 12.109375 32.8125 
Q 10.15625 36.71875 5.078125 40.625 
Q 22.65625 48.4375 32.609375 60.15625 
Q 42.578125 71.875 45.3125 81.25 
Q 50.78125 78.90625 56.25 77.734375 
z
M 44.921875 -10.15625 
Q 45.703125 -0.78125 45.703125 7.421875 
L 45.703125 35.15625 
Q 45.703125 41.40625 44.921875 50 
L 54.296875 50 
Q 53.515625 44.140625 53.515625 34.765625 
L 53.515625 7.8125 
Q 53.515625 -1.171875 54.296875 -10.15625 
z
" id="SimHei-20010"/>
      <path d="M 30.859375 60.15625 
Q 35.546875 59.765625 41.796875 59.765625 
L 57.03125 59.765625 
Q 57.03125 73.828125 56.640625 79.6875 
L 64.453125 79.6875 
Q 64.0625 74.21875 64.0625 59.765625 
L 81.25 59.765625 
Q 89.0625 59.765625 92.578125 60.15625 
L 92.578125 53.125 
Q 89.0625 53.515625 81.640625 53.515625 
L 69.921875 53.515625 
Q 75.390625 27.734375 96.484375 13.671875 
Q 92.1875 11.328125 90.234375 7.03125 
Q 69.140625 23.046875 64.0625 53.125 
L 64.0625 14.84375 
Q 73.828125 14.84375 77.34375 15.234375 
L 77.34375 8.203125 
Q 73.828125 8.59375 64.0625 8.59375 
Q 64.0625 0.78125 64.453125 -9.375 
L 56.640625 -9.375 
Q 57.03125 1.171875 57.03125 8.59375 
Q 51.5625 8.59375 43.75 8.203125 
L 43.75 15.234375 
Q 51.5625 14.84375 57.03125 14.84375 
L 57.03125 53.515625 
L 56.640625 53.515625 
Q 50.390625 22.65625 32.03125 5.859375 
Q 29.6875 9.375 25.390625 11.328125 
Q 43.75 25.390625 49.609375 53.515625 
L 41.796875 53.515625 
Q 35.546875 53.515625 30.859375 53.125 
z
M 22.265625 79.6875 
Q 26.5625 77.734375 31.25 76.171875 
Q 28.515625 72.65625 23.828125 58.59375 
L 23.828125 8.59375 
Q 23.828125 -3.515625 24.21875 -8.984375 
L 16.40625 -8.984375 
Q 16.796875 -3.90625 16.796875 8.203125 
L 16.796875 44.921875 
Q 14.84375 40.625 8.984375 31.640625 
Q 7.03125 35.15625 3.515625 37.5 
Q 8.203125 42.1875 14.453125 56.046875 
Q 20.703125 69.921875 22.265625 79.6875 
z
" id="SimHei-20307"/>
      <path d="M 14.453125 78.125 
Q 22.265625 77.734375 28.125 77.734375 
L 70.703125 77.734375 
Q 76.953125 77.734375 85.15625 78.125 
L 85.15625 70.703125 
Q 77.34375 71.09375 70.703125 71.09375 
L 54.6875 71.09375 
L 54.6875 31.25 
L 78.90625 31.25 
Q 87.109375 31.25 94.140625 31.640625 
L 94.140625 24.21875 
Q 87.109375 24.609375 78.90625 24.609375 
L 54.6875 24.609375 
L 54.6875 5.859375 
Q 54.6875 -1.171875 55.078125 -10.15625 
L 46.484375 -10.15625 
Q 46.875 -1.171875 46.875 5.859375 
L 46.875 24.609375 
L 18.359375 24.609375 
Q 12.890625 24.609375 6.640625 24.21875 
L 6.640625 31.640625 
Q 12.890625 31.25 18.75 31.25 
L 46.875 31.25 
L 46.875 71.09375 
L 28.515625 71.09375 
Q 22.265625 71.09375 14.453125 70.703125 
z
M 35.546875 42.96875 
Q 31.640625 41.796875 28.125 39.453125 
Q 25.390625 48.828125 19.53125 58.203125 
Q 23.046875 59.375 26.171875 61.71875 
Q 32.03125 51.5625 35.546875 42.96875 
z
M 71.09375 37.890625 
Q 67.578125 40.234375 63.671875 41.40625 
Q 70.703125 51.5625 74.21875 62.5 
Q 78.125 60.15625 82.8125 58.59375 
Q 76.953125 49.609375 71.09375 37.890625 
z
" id="SimHei-24179"/>
      <path d="M 91.015625 62.5 
L 88.28125 5.078125 
Q 88.28125 -3.90625 81.828125 -5.65625 
Q 75.390625 -7.421875 67.578125 -7.8125 
Q 66.796875 -3.125 64.84375 1.171875 
Q 75.390625 0.390625 78.125 1.75 
Q 80.859375 3.125 80.859375 8.203125 
L 83.203125 55.859375 
L 55.859375 55.859375 
Q 53.515625 51.171875 50.96875 46.484375 
Q 48.4375 41.796875 44.921875 36.71875 
Q 41.40625 39.0625 37.5 40.625 
Q 41.40625 44.921875 44.328125 49.796875 
Q 47.265625 54.6875 49.21875 59.765625 
Q 51.171875 64.84375 52.53125 69.71875 
Q 53.90625 74.609375 54.6875 78.515625 
Q 59.375 76.953125 64.84375 75.78125 
Q 63.28125 73.4375 61.71875 70.3125 
Q 60.15625 67.1875 58.59375 62.5 
z
M 54.296875 42.578125 
Q 57.03125 44.53125 60.15625 46.484375 
Q 64.0625 41.796875 68.75 33.203125 
Q 64.84375 31.25 62.109375 29.296875 
Q 59.765625 34.765625 54.296875 42.578125 
z
M 75.78125 28.515625 
Q 76.171875 25 77.34375 21.484375 
Q 72.65625 19.53125 63.859375 16.203125 
Q 55.078125 12.890625 46.484375 8.59375 
Q 45.3125 13.28125 43.359375 17.1875 
Q 54.296875 19.921875 58.78125 21.484375 
Q 63.28125 23.046875 75.78125 28.515625 
z
M 7.03125 55.46875 
Q 12.890625 55.078125 16.796875 55.078125 
L 19.140625 55.078125 
L 19.140625 66.796875 
Q 19.140625 72.65625 18.75 77.34375 
L 26.953125 77.34375 
Q 26.5625 71.875 26.5625 66.796875 
L 26.5625 55.078125 
L 28.90625 55.078125 
Q 33.59375 55.078125 38.671875 55.46875 
L 38.671875 48.046875 
Q 33.59375 48.4375 28.90625 48.4375 
L 26.5625 48.4375 
L 26.5625 17.1875 
L 38.28125 21.09375 
Q 37.890625 17.578125 38.671875 14.0625 
Q 18.75 7.421875 14.640625 5.859375 
Q 10.546875 4.296875 7.03125 2.734375 
Q 5.46875 7.421875 3.515625 11.71875 
Q 8.59375 12.5 12.109375 13.28125 
Q 15.625 14.0625 19.140625 15.234375 
L 19.140625 48.4375 
L 17.1875 48.4375 
Q 12.890625 48.4375 7.03125 48.046875 
z
" id="SimHei-22343"/>
      <path d="M 28.125 46.09375 
L 28.125 28.125 
L 73.828125 28.125 
L 73.828125 46.09375 
z
M 28.125 22.265625 
L 28.125 3.515625 
L 73.828125 3.515625 
L 73.828125 22.265625 
z
M 28.125 69.140625 
L 28.125 51.953125 
L 73.828125 51.953125 
L 73.828125 69.140625 
z
M 19.53125 75 
L 81.640625 75 
Q 81.25 64.0625 81.25 53.90625 
L 81.25 8.203125 
Q 81.25 2.34375 81.640625 -9.765625 
L 73.828125 -9.765625 
L 73.828125 -2.34375 
L 28.125 -2.34375 
L 28.125 -9.375 
L 19.921875 -9.375 
Q 20.703125 1.171875 20.703125 7.421875 
L 20.703125 53.90625 
Q 20.3125 65.234375 19.53125 75 
z
" id="SimHei-30446"/>
      <path d="M 5.078125 59.375 
Q 10.9375 58.59375 18.359375 58.984375 
L 18.359375 68.359375 
Q 18.359375 74.609375 17.96875 80.46875 
L 26.171875 80.46875 
Q 25.390625 75 25.390625 68.359375 
L 25.390625 58.984375 
Q 31.640625 58.984375 39.453125 59.375 
L 39.453125 51.5625 
Q 31.640625 52.34375 25.390625 52.34375 
L 25.390625 35.546875 
Q 28.90625 37.5 31.640625 39.453125 
Q 35.9375 33.203125 40.625 25.78125 
Q 36.328125 23.828125 33.203125 21.484375 
Q 30.078125 28.90625 25.390625 35.546875 
L 25.390625 7.03125 
Q 25.390625 -1.171875 25.78125 -9.375 
L 17.96875 -9.375 
Q 18.359375 -0.78125 18.359375 7.03125 
L 18.359375 33.203125 
Q 14.84375 22.65625 8.984375 12.109375 
Q 7.03125 16.015625 3.515625 19.140625 
Q 8.59375 25.390625 12.109375 34.5625 
Q 15.625 43.75 17.1875 52.34375 
Q 10.546875 52.34375 5.078125 51.5625 
z
M 44.140625 74.21875 
Q 49.609375 73.828125 56.25 73.828125 
L 75.390625 73.828125 
Q 81.25 73.828125 86.328125 74.21875 
L 86.328125 66.40625 
Q 81.25 67.1875 75.390625 67.1875 
L 56.25 67.1875 
Q 50 67.1875 44.140625 66.40625 
z
M 39.84375 49.609375 
Q 44.921875 49.21875 52.734375 49.21875 
L 80.46875 49.21875 
Q 86.71875 49.21875 92.578125 49.609375 
L 92.578125 42.1875 
Q 86.71875 42.578125 80.46875 42.578125 
L 67.96875 42.578125 
L 67.96875 1.953125 
Q 67.96875 -5.078125 64.640625 -6.4375 
Q 61.328125 -7.8125 53.90625 -9.375 
Q 53.125 -4.6875 50.78125 0 
Q 57.03125 -0.390625 58.984375 0.1875 
Q 60.9375 0.78125 60.9375 4.6875 
L 60.9375 42.578125 
L 52.734375 42.578125 
Q 44.53125 42.578125 39.84375 41.796875 
z
M 47.265625 32.03125 
Q 51.5625 30.078125 55.859375 28.90625 
Q 53.90625 26.953125 49.796875 16.59375 
Q 45.703125 6.25 42.1875 -0.78125 
Q 38.671875 1.171875 34.375 2.734375 
Q 39.0625 9.375 42.375 17.375 
Q 45.703125 25.390625 47.265625 32.03125 
z
M 72.265625 27.734375 
Q 75.78125 29.6875 78.90625 32.421875 
Q 88.28125 19.921875 94.921875 9.375 
Q 91.015625 7.421875 87.5 4.296875 
Q 80.859375 16.40625 72.265625 27.734375 
z
" id="SimHei-26631"/>
      <path d="M 16.015625 72.65625 
Q 23.046875 72.265625 29.6875 72.265625 
L 83.59375 72.265625 
L 83.59375 64.453125 
Q 77.34375 62.890625 67.96875 58.984375 
Q 58.59375 55.078125 53.515625 52.34375 
L 53.515625 16.015625 
Q 53.515625 8.984375 49.21875 7.8125 
Q 44.921875 6.640625 38.671875 5.46875 
Q 37.890625 9.765625 35.9375 14.453125 
Q 42.1875 14.0625 44.140625 14.84375 
Q 46.09375 15.625 46.09375 19.921875 
L 46.09375 45.703125 
Q 46.09375 52.734375 45.3125 57.03125 
Q 50.78125 58.59375 57.609375 61.328125 
Q 64.453125 64.0625 67.578125 66.015625 
L 29.6875 66.015625 
Q 21.875 66.015625 16.015625 65.625 
z
M 40.234375 43.359375 
Q 37.890625 40.625 35.546875 37.890625 
Q 32.8125 41.015625 29.875 43.75 
Q 26.953125 46.484375 23.046875 49.609375 
Q 25.390625 52.34375 27.34375 55.078125 
Q 30.859375 51.953125 34.171875 48.828125 
Q 37.5 45.703125 40.234375 43.359375 
z
M 39.0625 32.8125 
Q 39.84375 29.6875 41.40625 26.171875 
Q 37.890625 23.828125 33.78125 21.09375 
Q 29.6875 18.359375 24.609375 14.0625 
Q 22.65625 17.1875 19.921875 21.09375 
Q 25.390625 23.828125 30.078125 26.5625 
Q 34.765625 29.296875 39.0625 32.8125 
z
M 70.703125 53.125 
Q 73.4375 50 76.5625 47.265625 
Q 73.828125 46.09375 69.921875 43.359375 
Q 66.015625 40.625 61.71875 37.5 
Q 59.375 40.234375 57.03125 42.578125 
Q 61.328125 45.3125 64.25 47.453125 
Q 67.1875 49.609375 70.703125 53.125 
z
M 55.859375 26.953125 
Q 58.59375 29.6875 60.9375 32.03125 
Q 64.0625 29.6875 67.96875 26.5625 
Q 71.875 23.4375 76.171875 19.53125 
Q 73.4375 16.796875 70.703125 13.28125 
Q 67.1875 17.1875 64.25 19.921875 
Q 61.328125 22.65625 55.859375 26.953125 
z
M 19.140625 45.703125 
Q 18.359375 41.40625 18.359375 36.71875 
L 18.359375 2.734375 
L 80.078125 2.734375 
L 80.078125 32.8125 
Q 80.078125 38.671875 79.296875 44.140625 
L 87.5 44.140625 
Q 87.109375 37.109375 87.109375 32.8125 
L 87.109375 0.390625 
Q 87.109375 -4.6875 87.5 -9.765625 
L 80.078125 -9.765625 
L 80.078125 -3.90625 
L 10.15625 -3.90625 
Q 10.9375 0.390625 10.9375 20.3125 
Q 10.9375 40.234375 10.546875 45.703125 
z
" id="SimHei-20989"/>
      <path d="M 10.9375 75.78125 
Q 14.84375 76.953125 17.1875 78.515625 
Q 20.3125 73.4375 23.046875 68.359375 
Q 19.53125 66.796875 16.796875 65.234375 
Q 14.453125 71.09375 10.9375 75.78125 
z
M 44.921875 78.515625 
Q 49.21875 76.5625 53.125 75 
Q 50.78125 73.4375 49.21875 70.703125 
Q 47.65625 67.96875 45.703125 64.453125 
Q 42.578125 66.015625 39.453125 66.796875 
Q 42.578125 71.875 44.921875 78.515625 
z
M 38.28125 49.609375 
Q 41.796875 51.171875 44.140625 53.515625 
Q 48.828125 46.875 51.953125 41.40625 
Q 48.4375 39.84375 45.3125 37.5 
Q 42.1875 44.921875 38.28125 49.609375 
z
M 8.203125 61.71875 
Q 14.453125 61.328125 28.125 61.328125 
Q 28.125 72.65625 27.734375 80.859375 
L 35.546875 80.859375 
Q 35.15625 72.65625 35.15625 61.328125 
Q 48.046875 61.328125 53.90625 61.71875 
L 53.90625 54.6875 
Q 48.046875 55.078125 35.15625 55.078125 
Q 35.15625 46.09375 35.546875 39.453125 
L 27.734375 39.453125 
Q 28.125 45.3125 28.125 51.953125 
Q 26.171875 48.046875 21.671875 43.546875 
Q 17.1875 39.0625 11.71875 35.9375 
Q 10.15625 39.453125 6.640625 41.796875 
Q 10.15625 42.96875 15.421875 46.875 
Q 20.703125 50.78125 23.046875 55.078125 
Q 14.84375 55.078125 8.203125 54.6875 
z
M 26.953125 24.21875 
Q 25 20.3125 22.65625 16.40625 
Q 27.34375 15.234375 35.15625 13.28125 
Q 37.890625 16.796875 40.234375 24.21875 
z
M 24.21875 38.28125 
Q 28.515625 36.71875 32.8125 35.546875 
Q 31.25 33.984375 29.296875 30.46875 
L 44.53125 30.46875 
L 48.828125 30.46875 
Q 46.484375 20.3125 42.1875 11.328125 
Q 48.828125 9.375 52.734375 8.203125 
Q 49.609375 3.90625 48.046875 0.390625 
Q 44.53125 2.734375 37.5 5.46875 
Q 28.125 -3.90625 9.375 -10.15625 
Q 7.8125 -6.25 4.6875 -3.90625 
Q 21.484375 0 31.25 8.203125 
Q 20.3125 10.9375 13.28125 12.890625 
Q 15.625 16.015625 19.53125 24.21875 
Q 13.28125 24.21875 4.6875 23.828125 
L 4.6875 30.859375 
Q 12.109375 30.46875 21.875 30.46875 
Q 23.046875 33.59375 24.21875 38.28125 
z
M 63.671875 80.46875 
Q 68.359375 78.515625 73.4375 77.734375 
Q 71.484375 75.390625 70.5 72.265625 
Q 69.53125 69.140625 67.96875 63.28125 
L 85.546875 63.28125 
Q 89.0625 63.28125 94.53125 63.671875 
L 94.53125 56.640625 
Q 90.234375 57.03125 87.5 57.03125 
Q 87.109375 48.828125 85.546875 35.34375 
Q 83.984375 21.875 78.125 11.71875 
Q 82.03125 6.25 87.109375 2.734375 
Q 92.1875 -0.78125 96.09375 -2.34375 
Q 90.625 -5.859375 89.0625 -9.375 
Q 82.421875 -4.6875 79.296875 -1.359375 
Q 76.171875 1.953125 73.4375 5.859375 
Q 68.75 1.171875 64.640625 -1.953125 
Q 60.546875 -5.078125 51.5625 -10.15625 
Q 49.609375 -6.640625 45.3125 -3.90625 
Q 52.734375 -1.171875 58.984375 3.125 
Q 65.234375 7.421875 69.53125 12.109375 
Q 65.234375 20.703125 62.890625 29.09375 
Q 60.546875 37.5 60.15625 41.015625 
Q 59.375 38.28125 58.203125 34.765625 
Q 54.6875 36.328125 50.390625 37.890625 
Q 55.078125 46.484375 58.984375 58.59375 
Q 62.890625 70.703125 63.671875 80.46875 
z
M 66.40625 57.03125 
Q 64.84375 53.125 64.0625 50.578125 
Q 63.28125 48.046875 66.984375 36.71875 
Q 70.703125 25.390625 74.21875 19.140625 
Q 77.734375 28.515625 79.09375 38.671875 
Q 80.46875 48.828125 80.46875 57.03125 
z
" id="SimHei-25968"/>
      <path d="M 47.65625 9.375 
L 47.65625 1.953125 
L 76.5625 1.953125 
L 76.5625 9.375 
z
M 34.765625 70.3125 
Q 39.453125 69.921875 49.609375 69.921875 
L 57.421875 69.921875 
Q 57.421875 74.609375 57.421875 80.078125 
Q 62.109375 79.6875 67.578125 79.296875 
Q 65.625 76.5625 65.234375 69.921875 
L 79.6875 69.921875 
Q 86.71875 69.921875 91.40625 70.3125 
L 91.40625 63.28125 
Q 86.328125 63.671875 79.6875 63.671875 
L 64.84375 63.671875 
L 64.0625 55.078125 
L 84.375 55.078125 
Q 83.984375 50.390625 83.984375 42.1875 
L 83.984375 1.953125 
Q 91.40625 1.953125 94.921875 2.34375 
L 94.921875 -4.6875 
Q 89.84375 -4.296875 80.859375 -4.296875 
L 44.140625 -4.296875 
Q 35.546875 -4.296875 29.6875 -4.6875 
L 29.6875 2.34375 
Q 33.203125 1.953125 40.234375 1.953125 
L 40.234375 42.1875 
Q 40.234375 49.609375 39.84375 55.078125 
L 56.25 55.078125 
L 57.03125 63.671875 
L 49.609375 63.671875 
Q 39.84375 63.671875 34.765625 63.28125 
z
M 47.65625 49.21875 
L 47.65625 41.40625 
L 76.5625 41.40625 
L 76.5625 49.21875 
z
M 47.65625 35.546875 
L 47.65625 28.515625 
L 76.5625 28.515625 
L 76.5625 35.546875 
z
M 47.65625 22.65625 
L 47.65625 15.234375 
L 76.5625 15.234375 
L 76.5625 22.65625 
z
M 25.390625 80.859375 
Q 30.859375 78.125 34.765625 76.953125 
Q 31.640625 73.4375 25.78125 58.984375 
L 25.78125 6.640625 
Q 25.78125 -1.5625 26.171875 -8.984375 
L 17.96875 -8.984375 
Q 18.359375 -2.34375 18.359375 5.46875 
L 18.359375 46.09375 
Q 13.28125 38.28125 9.765625 33.59375 
Q 6.640625 37.890625 3.90625 40.234375 
Q 7.8125 44.140625 14.640625 55.46875 
Q 21.484375 66.796875 25.390625 80.859375 
z
" id="SimHei-20540"/>
     </defs>
     <g transform="translate(289.445 24.090625)scale(0.1 -0.1)">
      <use xlink:href="#SimHei-31181"/>
      <use x="100" xlink:href="#SimHei-32676"/>
      <use x="200" xlink:href="#SimHei-20010"/>
      <use x="300" xlink:href="#SimHei-20307"/>
      <use x="400" xlink:href="#SimHei-24179"/>
      <use x="500" xlink:href="#SimHei-22343"/>
      <use x="600" xlink:href="#SimHei-30446"/>
      <use x="700" xlink:href="#SimHei-26631"/>
      <use x="800" xlink:href="#SimHei-20989"/>
      <use x="900" xlink:href="#SimHei-25968"/>
      <use x="1000" xlink:href="#SimHei-20540"/>
     </g>
    </g>
    <g id="line2d_18">
     <path d="M 261.445 34.770312 
L 281.445 34.770312 
" style="fill:none;stroke:#ff7f0e;stroke-linecap:square;stroke-width:1.5;"/>
    </g>
    <g id="line2d_19"/>
    <g id="text_17">
     <!-- 种群最优个体目标函数值 -->
     <defs>
      <path d="M 24.21875 39.0625 
L 24.21875 32.03125 
L 41.015625 32.03125 
L 41.015625 39.0625 
z
M 24.21875 26.5625 
L 24.21875 19.921875 
L 41.015625 19.921875 
L 41.015625 26.5625 
z
M 24.21875 14.453125 
L 24.21875 6.640625 
L 41.015625 8.984375 
L 41.015625 14.453125 
z
M 10.15625 -3.515625 
Q 8.59375 0.78125 7.421875 4.6875 
Q 10.546875 4.6875 17.1875 5.46875 
L 17.1875 39.0625 
Q 12.5 39.0625 6.640625 38.671875 
L 6.640625 44.921875 
Q 12.5 44.53125 17.578125 44.53125 
L 78.90625 44.53125 
Q 85.9375 44.53125 92.1875 44.921875 
L 92.1875 38.671875 
Q 85.9375 39.0625 78.90625 39.0625 
L 48.046875 39.0625 
L 48.046875 10.546875 
Q 50.390625 10.9375 53.125 11.71875 
Q 53.125 8.59375 53.125 5.078125 
Q 50.390625 5.078125 48.046875 4.296875 
Q 48.046875 -1.953125 48.4375 -7.8125 
L 41.015625 -7.8125 
Q 41.015625 -1.953125 41.015625 3.515625 
Q 36.71875 2.734375 28.125 0.96875 
Q 19.53125 -0.78125 10.15625 -3.515625 
z
M 56.25 -9.375 
Q 54.296875 -7.03125 50.78125 -3.515625 
Q 55.46875 -1.953125 58.78125 0.1875 
Q 62.109375 2.34375 65.234375 5.859375 
Q 62.890625 7.8125 60.15625 11.90625 
Q 57.421875 16.015625 54.6875 26.953125 
Q 57.03125 26.953125 60.9375 27.34375 
Q 62.109375 17.1875 69.140625 10.546875 
Q 71.484375 13.671875 73.234375 17.96875 
Q 75 22.265625 76.171875 26.5625 
L 64.453125 26.5625 
Q 58.984375 26.5625 51.5625 26.171875 
L 51.5625 32.421875 
Q 58.984375 32.03125 64.453125 32.03125 
L 84.375 32.03125 
Q 82.03125 22.65625 79.6875 16.984375 
Q 77.34375 11.328125 74.21875 6.640625 
Q 77.34375 4.6875 81.25 3.125 
Q 85.15625 1.5625 92.578125 0.390625 
Q 90.625 -2.34375 89.0625 -7.03125 
Q 82.421875 -4.6875 78.125 -2.53125 
Q 73.828125 -0.390625 70.3125 1.953125 
Q 67.578125 -0.78125 64.84375 -3.125 
Q 62.109375 -5.46875 56.25 -9.375 
z
M 27.734375 73.046875 
L 27.734375 67.578125 
L 72.265625 67.578125 
L 72.265625 73.046875 
z
M 27.734375 62.109375 
L 27.734375 57.03125 
L 72.265625 57.03125 
L 72.265625 62.109375 
z
M 19.921875 78.515625 
L 80.078125 78.515625 
Q 79.6875 73.046875 79.6875 68.75 
L 79.6875 61.71875 
Q 79.6875 57.421875 80.078125 51.5625 
L 19.921875 51.5625 
Q 20.3125 57.421875 20.3125 61.71875 
L 20.3125 68.75 
Q 20.3125 73.046875 19.921875 78.515625 
z
" id="SimHei-26368"/>
      <path d="M 37.5 -8.59375 
Q 34.765625 -5.078125 29.6875 -3.515625 
Q 49.609375 10.546875 52.34375 47.265625 
L 45.3125 47.265625 
Q 37.109375 47.265625 31.25 46.875 
L 31.25 53.90625 
Q 37.109375 53.515625 45.3125 53.515625 
L 52.734375 53.515625 
Q 52.734375 72.65625 52.34375 79.6875 
Q 55.078125 78.90625 61.328125 78.515625 
Q 60.15625 72.65625 60.15625 53.515625 
L 80.859375 53.515625 
Q 85.15625 53.515625 91.796875 53.90625 
L 91.796875 46.875 
Q 85.546875 47.265625 81.25 47.265625 
L 60.15625 47.265625 
Q 58.203125 9.375 37.5 -8.59375 
z
M 69.140625 73.046875 
Q 71.875 75 75.390625 77.734375 
Q 77.734375 74.21875 80.078125 70.890625 
Q 82.421875 67.578125 84.765625 64.84375 
Q 81.640625 62.890625 78.125 60.15625 
Q 75.78125 64.453125 69.140625 73.046875 
z
M 87.5 12.109375 
Q 90.234375 9.765625 96.09375 8.203125 
Q 93.75 -0.390625 91.59375 -3.125 
Q 89.453125 -5.859375 85.15625 -6.25 
L 73.046875 -6.25 
Q 64.84375 -6.25 64.84375 3.125 
L 64.84375 47.265625 
L 72.265625 47.265625 
L 72.265625 5.46875 
Q 71.875 1.5625 75 0.78125 
Q 78.125 0 80.859375 0.1875 
Q 83.59375 0.390625 84.953125 1.953125 
Q 86.328125 3.515625 87.5 12.109375 
z
M 9.375 30.46875 
Q 7.421875 33.984375 3.90625 36.71875 
Q 8.984375 41.796875 16.203125 55.859375 
Q 23.4375 69.921875 25.390625 80.46875 
Q 29.296875 78.125 35.15625 76.171875 
Q 31.640625 72.65625 26.953125 59.375 
L 26.953125 9.375 
Q 26.953125 -2.34375 27.34375 -8.203125 
L 19.140625 -8.203125 
Q 19.53125 -2.734375 19.53125 8.984375 
L 19.53125 46.09375 
Q 14.453125 37.5 9.375 30.46875 
z
" id="SimHei-20248"/>
     </defs>
     <g transform="translate(289.445 38.270312)scale(0.1 -0.1)">
      <use xlink:href="#SimHei-31181"/>
      <use x="100" xlink:href="#SimHei-32676"/>
      <use x="200" xlink:href="#SimHei-26368"/>
      <use x="300" xlink:href="#SimHei-20248"/>
      <use x="400" xlink:href="#SimHei-20010"/>
      <use x="500" xlink:href="#SimHei-20307"/>
      <use x="600" xlink:href="#SimHei-30446"/>
      <use x="700" xlink:href="#SimHei-26631"/>
      <use x="800" xlink:href="#SimHei-20989"/>
      <use x="900" xlink:href="#SimHei-25968"/>
      <use x="1000" xlink:href="#SimHei-20540"/>
     </g>
    </g>
   </g>
  </g>
 </g>
 <defs>
  <clipPath id="p168cac4b6b">
   <rect height="266.112" width="357.12" x="51.325" y="7.2"/>
  </clipPath>
 </defs>
</svg>
