<?xml version="1.0" encoding="utf-8" standalone="no"?>
<!DOCTYPE svg PUBLIC "-//W3C//DTD SVG 1.1//EN"
  "http://www.w3.org/Graphics/SVG/1.1/DTD/svg11.dtd">
<!-- Created with matplotlib (https://matplotlib.org/) -->
<svg height="317.597938pt" version="1.1" viewBox="0 0 405.645 317.597938" width="405.645pt" xmlns="http://www.w3.org/2000/svg" xmlns:xlink="http://www.w3.org/1999/xlink">
 <defs>
  <style type="text/css">
*{stroke-linecap:butt;stroke-linejoin:round;}
  </style>
 </defs>
 <g id="figure_1">
  <g id="patch_1">
   <path d="M 0 317.597938 
L 405.645 317.597938 
L 405.645 0 
L 0 0 
z
" style="fill:#ffffff;"/>
  </g>
  <g id="axes_1">
   <g id="patch_2">
    <path d="M 41.325 283.147938 
L 398.445 283.147938 
L 398.445 17.035937 
L 41.325 17.035937 
z
" style="fill:#ffffff;"/>
   </g>
   <g id="matplotlib.axis_1">
    <g id="xtick_1">
     <g id="line2d_1">
      <defs>
       <path d="M 0 0 
L 0 3.5 
" id="m6b5f5e7bb8" style="stroke:#000000;stroke-width:0.8;"/>
      </defs>
      <g>
       <use style="stroke:#000000;stroke-width:0.8;" x="57.557727" xlink:href="#m6b5f5e7bb8" y="283.147938"/>
      </g>
     </g>
     <g id="text_1">
      <!-- 0 -->
      <defs>
       <path d="M 46.484375 35.15625 
Q 46.484375 21.09375 41.40625 10.9375 
Q 36.328125 0.78125 25 0.78125 
Q 13.671875 0.78125 8.390625 10.9375 
Q 3.125 21.09375 3.125 35.15625 
Q 3.125 49.21875 8.390625 59.171875 
Q 13.671875 69.140625 25 69.140625 
Q 36.328125 69.140625 41.40625 59.171875 
Q 46.484375 49.21875 46.484375 35.15625 
z
M 37.109375 35.15625 
Q 37.109375 47.65625 34.171875 54.6875 
Q 31.25 61.71875 25 61.71875 
Q 18.75 61.71875 15.625 54.6875 
Q 12.5 47.65625 12.5 35.15625 
Q 12.5 22.65625 15.625 15.421875 
Q 18.75 8.203125 25 8.203125 
Q 31.25 8.203125 34.171875 15.421875 
Q 37.109375 22.65625 37.109375 35.15625 
z
" id="SimHei-48"/>
      </defs>
      <g transform="translate(55.057727 296.983875)scale(0.1 -0.1)">
       <use xlink:href="#SimHei-48"/>
      </g>
     </g>
    </g>
    <g id="xtick_2">
     <g id="line2d_2">
      <g>
       <use style="stroke:#000000;stroke-width:0.8;" x="122.618758" xlink:href="#m6b5f5e7bb8" y="283.147938"/>
      </g>
     </g>
     <g id="text_2">
      <!-- 100 -->
      <defs>
       <path d="M 30.46875 1.5625 
L 21.484375 1.5625 
L 21.484375 53.515625 
L 9.765625 53.515625 
L 9.765625 58.203125 
Q 16.796875 58.203125 20.703125 60.9375 
Q 24.609375 63.671875 25.78125 69.140625 
L 30.46875 69.140625 
z
" id="SimHei-49"/>
      </defs>
      <g transform="translate(115.118758 296.983875)scale(0.1 -0.1)">
       <use xlink:href="#SimHei-49"/>
       <use x="50" xlink:href="#SimHei-48"/>
       <use x="100" xlink:href="#SimHei-48"/>
      </g>
     </g>
    </g>
    <g id="xtick_3">
     <g id="line2d_3">
      <g>
       <use style="stroke:#000000;stroke-width:0.8;" x="187.67979" xlink:href="#m6b5f5e7bb8" y="283.147938"/>
      </g>
     </g>
     <g id="text_3">
      <!-- 200 -->
      <defs>
       <path d="M 44.53125 1.5625 
L 4.6875 1.5625 
L 4.6875 7.8125 
Q 7.03125 14.0625 11.125 19.328125 
Q 15.234375 24.609375 23.046875 31.25 
Q 28.90625 36.328125 31.4375 40.625 
Q 33.984375 44.921875 33.984375 50 
Q 33.984375 55.078125 31.828125 58.390625 
Q 29.6875 61.71875 25 61.71875 
Q 21.09375 61.71875 18.15625 58.203125 
Q 15.234375 54.6875 15.234375 45.703125 
L 6.25 45.703125 
Q 6.640625 57.03125 11.515625 63.078125 
Q 16.40625 69.140625 25.390625 69.140625 
Q 33.984375 69.140625 38.671875 63.859375 
Q 43.359375 58.59375 43.359375 49.609375 
Q 43.359375 42.1875 39.0625 36.71875 
Q 34.765625 31.25 28.515625 25.78125 
Q 21.484375 19.53125 18.75 16.40625 
Q 16.015625 13.28125 13.671875 8.984375 
L 44.53125 8.984375 
z
" id="SimHei-50"/>
      </defs>
      <g transform="translate(180.17979 296.983875)scale(0.1 -0.1)">
       <use xlink:href="#SimHei-50"/>
       <use x="50" xlink:href="#SimHei-48"/>
       <use x="100" xlink:href="#SimHei-48"/>
      </g>
     </g>
    </g>
    <g id="xtick_4">
     <g id="line2d_4">
      <g>
       <use style="stroke:#000000;stroke-width:0.8;" x="252.740821" xlink:href="#m6b5f5e7bb8" y="283.147938"/>
      </g>
     </g>
     <g id="text_4">
      <!-- 300 -->
      <defs>
       <path d="M 44.140625 20.3125 
Q 44.140625 11.328125 38.46875 6.046875 
Q 32.8125 0.78125 24.21875 0.78125 
Q 15.625 0.78125 9.953125 6.046875 
Q 4.296875 11.328125 4.296875 22.265625 
L 13.28125 22.265625 
Q 13.28125 14.84375 16.203125 11.515625 
Q 19.140625 8.203125 24.21875 8.203125 
Q 29.296875 8.203125 32.03125 11.328125 
Q 34.765625 14.453125 34.765625 21.09375 
Q 34.765625 26.5625 31.828125 29.6875 
Q 28.90625 32.8125 21.484375 32.8125 
L 21.484375 39.453125 
Q 27.734375 39.453125 30.65625 42.578125 
Q 33.59375 45.703125 33.59375 51.953125 
Q 33.59375 56.640625 31.4375 59.375 
Q 29.296875 62.109375 24.609375 62.109375 
Q 19.921875 62.109375 17.375 58.78125 
Q 14.84375 55.46875 14.453125 49.21875 
L 5.859375 49.21875 
Q 6.640625 58.203125 11.515625 63.671875 
Q 16.40625 69.140625 24.609375 69.140625 
Q 33.203125 69.140625 37.890625 64.25 
Q 42.578125 59.375 42.578125 52.34375 
Q 42.578125 45.703125 40.234375 41.984375 
Q 37.890625 38.28125 32.421875 36.328125 
Q 37.890625 35.15625 41.015625 30.859375 
Q 44.140625 26.5625 44.140625 20.3125 
z
" id="SimHei-51"/>
      </defs>
      <g transform="translate(245.240821 296.983875)scale(0.1 -0.1)">
       <use xlink:href="#SimHei-51"/>
       <use x="50" xlink:href="#SimHei-48"/>
       <use x="100" xlink:href="#SimHei-48"/>
      </g>
     </g>
    </g>
    <g id="xtick_5">
     <g id="line2d_5">
      <g>
       <use style="stroke:#000000;stroke-width:0.8;" x="317.801852" xlink:href="#m6b5f5e7bb8" y="283.147938"/>
      </g>
     </g>
     <g id="text_5">
      <!-- 400 -->
      <defs>
       <path d="M 46.484375 18.75 
L 38.28125 18.75 
L 38.28125 1.5625 
L 29.296875 1.5625 
L 29.296875 18.75 
L 3.125 18.75 
L 3.125 26.171875 
L 29.296875 69.140625 
L 38.28125 69.140625 
L 38.28125 26.171875 
L 46.484375 26.171875 
z
M 29.296875 26.171875 
L 29.296875 55.078125 
L 11.71875 26.171875 
z
" id="SimHei-52"/>
      </defs>
      <g transform="translate(310.301852 296.983875)scale(0.1 -0.1)">
       <use xlink:href="#SimHei-52"/>
       <use x="50" xlink:href="#SimHei-48"/>
       <use x="100" xlink:href="#SimHei-48"/>
      </g>
     </g>
    </g>
    <g id="xtick_6">
     <g id="line2d_6">
      <g>
       <use style="stroke:#000000;stroke-width:0.8;" x="382.862883" xlink:href="#m6b5f5e7bb8" y="283.147938"/>
      </g>
     </g>
     <g id="text_6">
      <!-- 500 -->
      <defs>
       <path d="M 44.140625 25.78125 
Q 44.140625 14.0625 38.46875 7.421875 
Q 32.8125 0.78125 23.4375 0.78125 
Q 15.234375 0.78125 9.953125 6.25 
Q 4.6875 11.71875 4.296875 21.09375 
L 13.28125 21.09375 
Q 13.28125 15.234375 16.015625 11.71875 
Q 18.75 8.203125 23.828125 8.203125 
Q 28.90625 8.203125 31.828125 12.5 
Q 34.765625 16.796875 34.765625 25.78125 
Q 34.765625 33.59375 32.21875 37.296875 
Q 29.6875 41.015625 25.390625 41.015625 
Q 21.875 41.015625 19.328125 39.453125 
Q 16.796875 37.890625 14.453125 33.984375 
L 6.640625 33.984375 
L 8.984375 68.359375 
L 42.578125 68.359375 
L 42.578125 60.9375 
L 16.40625 60.9375 
L 14.84375 42.96875 
Q 17.1875 45.3125 19.921875 46.484375 
Q 22.65625 47.65625 27.34375 47.65625 
Q 34.765625 47.65625 39.453125 41.984375 
Q 44.140625 36.328125 44.140625 25.78125 
z
" id="SimHei-53"/>
      </defs>
      <g transform="translate(375.362883 296.983875)scale(0.1 -0.1)">
       <use xlink:href="#SimHei-53"/>
       <use x="50" xlink:href="#SimHei-48"/>
       <use x="100" xlink:href="#SimHei-48"/>
      </g>
     </g>
    </g>
    <g id="text_7">
     <!-- Number of Generation -->
     <defs>
      <path d="M 44.921875 1.5625 
L 35.15625 1.5625 
L 13.671875 50 
L 13.28125 50 
L 13.28125 1.5625 
L 4.296875 1.5625 
L 4.296875 68.359375 
L 14.0625 68.359375 
L 35.546875 19.921875 
L 35.9375 19.921875 
L 35.9375 68.359375 
L 44.921875 68.359375 
z
" id="SimHei-78"/>
      <path d="M 44.140625 1.5625 
L 36.328125 1.5625 
L 36.328125 9.765625 
Q 33.203125 5.46875 29.484375 3.125 
Q 25.78125 0.78125 19.921875 0.78125 
Q 12.890625 0.78125 9.375 4.6875 
Q 5.859375 8.59375 5.859375 14.453125 
L 5.859375 45.3125 
L 13.671875 45.3125 
L 13.671875 17.1875 
Q 13.671875 12.5 16.015625 9.765625 
Q 18.359375 7.03125 22.265625 7.03125 
Q 27.34375 7.03125 31.828125 12.296875 
Q 36.328125 17.578125 36.328125 25.390625 
L 36.328125 45.3125 
L 44.140625 45.3125 
z
" id="SimHei-117"/>
      <path d="M 48.046875 1.5625 
L 40.234375 1.5625 
L 40.234375 33.203125 
Q 40.234375 35.546875 39.453125 37.109375 
Q 38.671875 38.671875 36.328125 38.671875 
Q 33.59375 38.671875 31.25 35.734375 
Q 28.90625 32.8125 28.90625 28.125 
L 28.90625 1.5625 
L 21.09375 1.5625 
L 21.09375 33.203125 
Q 21.09375 35.546875 20.3125 37.109375 
Q 19.53125 38.671875 17.1875 38.671875 
Q 14.453125 38.671875 12.109375 35.734375 
Q 9.765625 32.8125 9.765625 28.125 
L 9.765625 1.5625 
L 1.953125 1.5625 
L 1.953125 45.3125 
L 9.765625 45.3125 
L 9.765625 39.453125 
Q 11.71875 42.578125 14.453125 44.328125 
Q 17.1875 46.09375 20.3125 46.09375 
Q 23.4375 46.09375 25.578125 44.328125 
Q 27.734375 42.578125 28.515625 39.453125 
Q 30.46875 42.578125 33 44.328125 
Q 35.546875 46.09375 38.671875 46.09375 
Q 43.359375 46.09375 45.703125 43.546875 
Q 48.046875 41.015625 48.046875 36.328125 
z
" id="SimHei-109"/>
      <path d="M 44.53125 23.4375 
Q 44.53125 12.109375 39.0625 6.4375 
Q 33.59375 0.78125 25.78125 0.78125 
Q 21.484375 0.78125 18.359375 2.34375 
Q 15.234375 3.90625 12.890625 7.421875 
L 12.890625 1.5625 
L 5.078125 1.5625 
L 5.078125 68.359375 
L 12.890625 68.359375 
L 12.890625 39.453125 
Q 15.234375 42.96875 18.359375 44.71875 
Q 21.484375 46.484375 25.78125 46.484375 
Q 33.59375 46.484375 39.0625 40.625 
Q 44.53125 34.765625 44.53125 23.4375 
z
M 35.9375 23.4375 
Q 35.9375 30.859375 33 35.15625 
Q 30.078125 39.453125 24.21875 39.453125 
Q 19.53125 39.453125 16.203125 35.15625 
Q 12.890625 30.859375 12.890625 23.4375 
Q 12.890625 16.015625 16.203125 11.90625 
Q 19.53125 7.8125 24.21875 7.8125 
Q 30.078125 7.8125 33 11.90625 
Q 35.9375 16.015625 35.9375 23.4375 
z
" id="SimHei-98"/>
      <path d="M 44.921875 16.40625 
Q 44.140625 9.375 38.671875 5.078125 
Q 33.203125 0.78125 25.78125 0.78125 
Q 16.40625 0.78125 10.34375 6.828125 
Q 4.296875 12.890625 4.296875 23.4375 
Q 4.296875 33.984375 10.34375 40.03125 
Q 16.40625 46.09375 25.78125 46.09375 
Q 33.984375 46.09375 39.25 40.8125 
Q 44.53125 35.546875 44.53125 23.4375 
L 12.890625 23.4375 
Q 12.890625 14.84375 16.59375 11.328125 
Q 20.3125 7.8125 25.78125 7.8125 
Q 30.078125 7.8125 32.8125 9.953125 
Q 35.546875 12.109375 36.328125 16.40625 
z
M 35.546875 29.6875 
Q 34.765625 35.15625 32.03125 37.296875 
Q 29.296875 39.453125 25 39.453125 
Q 21.09375 39.453125 17.96875 37.296875 
Q 14.84375 35.15625 13.28125 29.6875 
z
" id="SimHei-101"/>
      <path d="M 39.453125 37.5 
Q 32.03125 38.671875 26.953125 35.34375 
Q 21.875 32.03125 18.359375 23.828125 
L 18.359375 1.5625 
L 10.546875 1.5625 
L 10.546875 45.3125 
L 18.359375 45.3125 
L 18.359375 33.984375 
Q 21.875 40.234375 27.140625 43.15625 
Q 32.421875 46.09375 39.453125 46.09375 
z
" id="SimHei-114"/>
      <path id="SimHei-32"/>
      <path d="M 46.09375 23.4375 
Q 46.09375 13.28125 39.84375 7.03125 
Q 33.59375 0.78125 25 0.78125 
Q 16.40625 0.78125 10.15625 7.03125 
Q 3.90625 13.28125 3.90625 23.4375 
Q 3.90625 33.59375 10.15625 39.84375 
Q 16.40625 46.09375 25 46.09375 
Q 33.59375 46.09375 39.84375 39.84375 
Q 46.09375 33.59375 46.09375 23.4375 
z
M 37.5 23.4375 
Q 37.5 31.25 33.59375 35.15625 
Q 29.6875 39.0625 25 39.0625 
Q 20.3125 39.0625 16.40625 35.15625 
Q 12.5 31.25 12.5 23.4375 
Q 12.5 15.625 16.40625 11.71875 
Q 20.3125 7.8125 25 7.8125 
Q 29.6875 7.8125 33.59375 11.71875 
Q 37.5 15.625 37.5 23.4375 
z
" id="SimHei-111"/>
      <path d="M 44.921875 59.375 
Q 42.96875 60.546875 40.234375 61.328125 
Q 37.5 62.109375 33.203125 62.109375 
Q 28.90625 62.109375 27.34375 59.953125 
Q 25.78125 57.8125 25.78125 54.6875 
L 25.78125 45.3125 
L 41.796875 45.3125 
L 41.796875 39.0625 
L 25.78125 39.0625 
L 25.78125 1.5625 
L 17.96875 1.5625 
L 17.96875 39.0625 
L 4.6875 39.0625 
L 4.6875 45.3125 
L 17.96875 45.3125 
L 17.96875 54.296875 
Q 17.96875 61.328125 22.265625 65.234375 
Q 26.5625 69.140625 33.59375 69.140625 
Q 37.890625 69.140625 40.421875 68.546875 
Q 42.96875 67.96875 44.921875 67.1875 
z
" id="SimHei-102"/>
      <path d="M 44.921875 0.78125 
L 38.28125 0.78125 
L 37.109375 6.25 
Q 35.546875 3.90625 32.21875 2.34375 
Q 28.90625 0.78125 25 0.78125 
Q 16.796875 0.78125 10.34375 8.390625 
Q 3.90625 16.015625 3.90625 32.8125 
Q 3.90625 51.171875 9.765625 60.15625 
Q 15.625 69.140625 25.78125 69.140625 
Q 34.765625 69.140625 39.84375 62.5 
Q 44.921875 55.859375 44.921875 45.3125 
L 36.328125 45.3125 
Q 36.328125 53.515625 33.59375 57.609375 
Q 30.859375 61.71875 25.78125 61.71875 
Q 19.53125 61.71875 16.40625 55.265625 
Q 13.28125 48.828125 13.28125 33.59375 
Q 13.28125 19.140625 17.1875 13.671875 
Q 21.09375 8.203125 26.171875 8.203125 
Q 31.25 8.203125 34.171875 11.90625 
Q 37.109375 15.625 37.109375 23.4375 
L 37.109375 27.734375 
L 25 27.734375 
L 25 35.15625 
L 44.921875 35.15625 
z
" id="SimHei-71"/>
      <path d="M 44.140625 1.5625 
L 36.328125 1.5625 
L 36.328125 29.6875 
Q 36.328125 34.375 33.984375 37.109375 
Q 31.640625 39.84375 27.734375 39.84375 
Q 22.65625 39.84375 18.15625 34.5625 
Q 13.671875 29.296875 13.671875 21.484375 
L 13.671875 1.5625 
L 5.859375 1.5625 
L 5.859375 45.3125 
L 13.671875 45.3125 
L 13.671875 37.109375 
Q 16.796875 41.40625 20.5 43.75 
Q 24.21875 46.09375 30.078125 46.09375 
Q 37.109375 46.09375 40.625 42.1875 
Q 44.140625 38.28125 44.140625 32.421875 
z
" id="SimHei-110"/>
      <path d="M 45.3125 1.5625 
L 35.9375 1.5625 
Q 35.15625 2.34375 34.765625 3.703125 
Q 34.375 5.078125 34.375 7.03125 
Q 31.640625 3.90625 27.734375 2.34375 
Q 23.828125 0.78125 19.53125 0.78125 
Q 13.28125 0.78125 8.984375 3.90625 
Q 4.6875 7.03125 4.6875 12.890625 
Q 4.6875 18.75 8.59375 22.265625 
Q 12.5 25.78125 20.703125 26.953125 
Q 26.171875 27.734375 30.265625 28.90625 
Q 34.375 30.078125 34.375 32.03125 
Q 34.375 34.375 32.609375 36.71875 
Q 30.859375 39.0625 25 39.0625 
Q 20.3125 39.0625 18.15625 37.296875 
Q 16.015625 35.546875 15.234375 32.421875 
L 6.640625 32.421875 
Q 7.421875 38.671875 12.296875 42.375 
Q 17.1875 46.09375 25 46.09375 
Q 33.59375 46.09375 37.890625 42.1875 
Q 42.1875 38.28125 42.1875 31.25 
L 42.1875 9.765625 
Q 42.1875 7.421875 42.96875 5.46875 
Q 43.75 3.515625 45.3125 1.5625 
z
M 34.375 16.015625 
L 34.375 23.828125 
Q 32.03125 23.046875 29.875 22.453125 
Q 27.734375 21.875 22.65625 21.09375 
Q 16.796875 20.3125 15.03125 18.359375 
Q 13.28125 16.40625 13.28125 13.671875 
Q 13.28125 11.328125 15.03125 9.5625 
Q 16.796875 7.8125 20.3125 7.8125 
Q 23.828125 7.8125 27.921875 9.765625 
Q 32.03125 11.71875 34.375 16.015625 
z
" id="SimHei-97"/>
      <path d="M 43.359375 2.734375 
Q 41.40625 1.953125 38.859375 1.359375 
Q 36.328125 0.78125 32.03125 0.78125 
Q 25 0.78125 20.703125 4.6875 
Q 16.40625 8.59375 16.40625 15.625 
L 16.40625 39.0625 
L 3.125 39.0625 
L 3.125 45.3125 
L 16.40625 45.3125 
L 16.40625 60.546875 
L 24.21875 60.546875 
L 24.21875 45.3125 
L 40.234375 45.3125 
L 40.234375 39.0625 
L 24.21875 39.0625 
L 24.21875 15.234375 
Q 24.21875 12.109375 25.78125 9.953125 
Q 27.34375 7.8125 31.640625 7.8125 
Q 35.9375 7.8125 38.671875 8.59375 
Q 41.40625 9.375 43.359375 10.546875 
z
" id="SimHei-116"/>
      <path d="M 28.515625 57.8125 
L 20.703125 57.8125 
L 20.703125 67.96875 
L 28.515625 67.96875 
z
M 28.515625 1.5625 
L 20.703125 1.5625 
L 20.703125 45.3125 
L 28.515625 45.3125 
z
" id="SimHei-105"/>
     </defs>
     <g transform="translate(169.885 309.108875)scale(0.1 -0.1)">
      <use xlink:href="#SimHei-78"/>
      <use x="50" xlink:href="#SimHei-117"/>
      <use x="100" xlink:href="#SimHei-109"/>
      <use x="150" xlink:href="#SimHei-98"/>
      <use x="200" xlink:href="#SimHei-101"/>
      <use x="250" xlink:href="#SimHei-114"/>
      <use x="300" xlink:href="#SimHei-32"/>
      <use x="350" xlink:href="#SimHei-111"/>
      <use x="400" xlink:href="#SimHei-102"/>
      <use x="450" xlink:href="#SimHei-32"/>
      <use x="500" xlink:href="#SimHei-71"/>
      <use x="550" xlink:href="#SimHei-101"/>
      <use x="600" xlink:href="#SimHei-110"/>
      <use x="650" xlink:href="#SimHei-101"/>
      <use x="700" xlink:href="#SimHei-114"/>
      <use x="750" xlink:href="#SimHei-97"/>
      <use x="800" xlink:href="#SimHei-116"/>
      <use x="850" xlink:href="#SimHei-105"/>
      <use x="900" xlink:href="#SimHei-111"/>
      <use x="950" xlink:href="#SimHei-110"/>
     </g>
    </g>
   </g>
   <g id="matplotlib.axis_2">
    <g id="ytick_1">
     <g id="line2d_7">
      <defs>
       <path d="M 0 0 
L -3.5 0 
" id="me6aadc9736" style="stroke:#000000;stroke-width:0.8;"/>
      </defs>
      <g>
       <use style="stroke:#000000;stroke-width:0.8;" x="41.325" xlink:href="#me6aadc9736" y="274.991539"/>
      </g>
     </g>
     <g id="text_8">
      <!-- 0.0 -->
      <defs>
       <path d="M 17.1875 1.5625 
L 8.203125 1.5625 
L 8.203125 10.15625 
L 17.1875 10.15625 
z
" id="SimHei-46"/>
      </defs>
      <g transform="translate(19.325 278.409508)scale(0.1 -0.1)">
       <use xlink:href="#SimHei-48"/>
       <use x="50" xlink:href="#SimHei-46"/>
       <use x="100" xlink:href="#SimHei-48"/>
      </g>
     </g>
    </g>
    <g id="ytick_2">
     <g id="line2d_8">
      <g>
       <use style="stroke:#000000;stroke-width:0.8;" x="41.325" xlink:href="#me6aadc9736" y="226.903339"/>
      </g>
     </g>
     <g id="text_9">
      <!-- 0.2 -->
      <g transform="translate(19.325 230.321308)scale(0.1 -0.1)">
       <use xlink:href="#SimHei-48"/>
       <use x="50" xlink:href="#SimHei-46"/>
       <use x="100" xlink:href="#SimHei-50"/>
      </g>
     </g>
    </g>
    <g id="ytick_3">
     <g id="line2d_9">
      <g>
       <use style="stroke:#000000;stroke-width:0.8;" x="41.325" xlink:href="#me6aadc9736" y="178.815138"/>
      </g>
     </g>
     <g id="text_10">
      <!-- 0.4 -->
      <g transform="translate(19.325 182.233107)scale(0.1 -0.1)">
       <use xlink:href="#SimHei-48"/>
       <use x="50" xlink:href="#SimHei-46"/>
       <use x="100" xlink:href="#SimHei-52"/>
      </g>
     </g>
    </g>
    <g id="ytick_4">
     <g id="line2d_10">
      <g>
       <use style="stroke:#000000;stroke-width:0.8;" x="41.325" xlink:href="#me6aadc9736" y="130.726938"/>
      </g>
     </g>
     <g id="text_11">
      <!-- 0.6 -->
      <defs>
       <path d="M 44.53125 24.21875 
Q 44.53125 13.28125 39.84375 7.03125 
Q 35.15625 0.78125 25.78125 0.78125 
Q 16.40625 0.78125 10.9375 8.59375 
Q 5.46875 16.40625 5.46875 33.984375 
Q 5.46875 50 11.125 59.5625 
Q 16.796875 69.140625 27.34375 69.140625 
Q 34.765625 69.140625 39.25 63.671875 
Q 43.75 58.203125 43.75 51.5625 
L 34.765625 51.5625 
Q 34.765625 55.46875 32.609375 58.59375 
Q 30.46875 61.71875 26.953125 61.71875 
Q 21.09375 61.71875 17.96875 55.65625 
Q 14.84375 49.609375 14.453125 37.109375 
Q 17.1875 42.1875 20.3125 44.140625 
Q 23.4375 46.09375 27.734375 46.09375 
Q 35.15625 46.09375 39.84375 40.234375 
Q 44.53125 34.375 44.53125 24.21875 
z
M 35.15625 24.21875 
Q 35.15625 31.25 32.8125 35.15625 
Q 30.46875 39.0625 26.171875 39.0625 
Q 21.09375 39.0625 18.15625 35.15625 
Q 15.234375 31.25 15.234375 25.78125 
Q 15.234375 17.1875 18.15625 12.5 
Q 21.09375 7.8125 26.171875 7.8125 
Q 29.6875 7.8125 32.421875 11.328125 
Q 35.15625 14.84375 35.15625 24.21875 
z
" id="SimHei-54"/>
      </defs>
      <g transform="translate(19.325 134.144907)scale(0.1 -0.1)">
       <use xlink:href="#SimHei-48"/>
       <use x="50" xlink:href="#SimHei-46"/>
       <use x="100" xlink:href="#SimHei-54"/>
      </g>
     </g>
    </g>
    <g id="ytick_5">
     <g id="line2d_11">
      <g>
       <use style="stroke:#000000;stroke-width:0.8;" x="41.325" xlink:href="#me6aadc9736" y="82.638737"/>
      </g>
     </g>
     <g id="text_12">
      <!-- 0.8 -->
      <defs>
       <path d="M 44.921875 20.703125 
Q 44.921875 10.9375 39.453125 5.859375 
Q 33.984375 0.78125 24.609375 0.78125 
Q 15.234375 0.78125 9.765625 5.859375 
Q 4.296875 10.9375 4.296875 20.703125 
Q 4.296875 25.78125 7.421875 29.875 
Q 10.546875 33.984375 16.015625 35.9375 
Q 11.328125 37.890625 8.78125 41.40625 
Q 6.25 44.921875 6.25 50.390625 
Q 6.25 58.984375 11.71875 64.0625 
Q 17.1875 69.140625 24.609375 69.140625 
Q 32.03125 69.140625 37.5 64.0625 
Q 42.96875 58.984375 42.96875 50.390625 
Q 42.96875 44.921875 40.421875 41.40625 
Q 37.890625 37.890625 33.203125 35.9375 
Q 38.671875 33.984375 41.796875 29.875 
Q 44.921875 25.78125 44.921875 20.703125 
z
M 34.375 50.390625 
Q 34.375 56.640625 31.640625 59.375 
Q 28.90625 62.109375 24.609375 62.109375 
Q 20.3125 62.109375 17.578125 59.375 
Q 14.84375 56.640625 14.84375 50.390625 
Q 14.84375 44.140625 17.765625 41.59375 
Q 20.703125 39.0625 24.609375 39.0625 
Q 28.515625 39.0625 31.4375 41.59375 
Q 34.375 44.140625 34.375 50.390625 
z
M 35.9375 20.703125 
Q 35.9375 26.171875 33 29.296875 
Q 30.078125 32.421875 24.609375 32.421875 
Q 19.140625 32.421875 16.203125 29.296875 
Q 13.28125 26.171875 13.28125 20.703125 
Q 13.28125 14.453125 16.40625 11.125 
Q 19.53125 7.8125 24.609375 7.8125 
Q 29.6875 7.8125 32.8125 11.125 
Q 35.9375 14.453125 35.9375 20.703125 
z
" id="SimHei-56"/>
      </defs>
      <g transform="translate(19.325 86.056706)scale(0.1 -0.1)">
       <use xlink:href="#SimHei-48"/>
       <use x="50" xlink:href="#SimHei-46"/>
       <use x="100" xlink:href="#SimHei-56"/>
      </g>
     </g>
    </g>
    <g id="ytick_6">
     <g id="line2d_12">
      <g>
       <use style="stroke:#000000;stroke-width:0.8;" x="41.325" xlink:href="#me6aadc9736" y="34.550537"/>
      </g>
     </g>
     <g id="text_13">
      <!-- 1.0 -->
      <g transform="translate(19.325 37.968506)scale(0.1 -0.1)">
       <use xlink:href="#SimHei-49"/>
       <use x="50" xlink:href="#SimHei-46"/>
       <use x="100" xlink:href="#SimHei-48"/>
      </g>
     </g>
    </g>
    <g id="text_14">
     <!-- Value -->
     <defs>
      <path d="M 48.046875 68.359375 
L 28.515625 0.78125 
L 20.703125 0.78125 
L 1.171875 68.359375 
L 10.546875 68.359375 
L 24.21875 17.1875 
L 25 17.1875 
L 38.671875 68.359375 
z
" id="SimHei-86"/>
      <path d="M 28.90625 1.5625 
L 21.09375 1.5625 
L 21.09375 68.359375 
L 28.90625 68.359375 
z
" id="SimHei-108"/>
     </defs>
     <g transform="translate(14.035938 162.591937)rotate(-90)scale(0.1 -0.1)">
      <use xlink:href="#SimHei-86"/>
      <use x="50" xlink:href="#SimHei-97"/>
      <use x="100" xlink:href="#SimHei-108"/>
      <use x="150" xlink:href="#SimHei-117"/>
      <use x="200" xlink:href="#SimHei-101"/>
     </g>
    </g>
    <g id="text_15">
     <!-- 1e7 -->
     <defs>
      <path d="M 43.359375 60.15625 
L 25 1.5625 
L 16.015625 1.5625 
L 34.765625 60.9375 
L 6.25 60.9375 
L 6.25 68.359375 
L 43.359375 68.359375 
z
" id="SimHei-55"/>
     </defs>
     <g transform="translate(41.325 14.035937)scale(0.1 -0.1)">
      <use xlink:href="#SimHei-49"/>
      <use x="50" xlink:href="#SimHei-101"/>
      <use x="100" xlink:href="#SimHei-55"/>
     </g>
    </g>
   </g>
   <g id="line2d_13">
    <path clip-path="url(#pe0112f28a7)" d="M 57.557727 29.131937 
L 58.208338 53.704401 
L 59.509558 84.782492 
L 60.160169 97.778464 
L 60.810779 229.680262 
L 61.461389 259.236374 
L 62.111999 266.060741 
L 62.76261 269.178562 
L 63.41322 270.949194 
L 66.666272 270.973738 
L 382.212273 270.973738 
L 382.212273 270.973738 
" style="fill:none;stroke:#1f77b4;stroke-linecap:square;stroke-width:1.5;"/>
   </g>
   <g id="line2d_14">
    <path clip-path="url(#pe0112f28a7)" d="M 57.557727 131.769176 
L 58.208338 151.510108 
L 58.858948 151.510108 
L 59.509558 158.780546 
L 60.160169 172.343137 
L 60.810779 271.050639 
L 116.763266 271.051938 
L 382.212273 271.051938 
L 382.212273 271.051938 
" style="fill:none;stroke:#ff7f0e;stroke-linecap:square;stroke-width:1.5;"/>
   </g>
   <g id="patch_3">
    <path d="M 41.325 283.147938 
L 41.325 17.035937 
" style="fill:none;stroke:#000000;stroke-linecap:square;stroke-linejoin:miter;stroke-width:0.8;"/>
   </g>
   <g id="patch_4">
    <path d="M 398.445 283.147938 
L 398.445 17.035937 
" style="fill:none;stroke:#000000;stroke-linecap:square;stroke-linejoin:miter;stroke-width:0.8;"/>
   </g>
   <g id="patch_5">
    <path d="M 41.325 283.147938 
L 398.445 283.147938 
" style="fill:none;stroke:#000000;stroke-linecap:square;stroke-linejoin:miter;stroke-width:0.8;"/>
   </g>
   <g id="patch_6">
    <path d="M 41.325 17.035937 
L 398.445 17.035937 
" style="fill:none;stroke:#000000;stroke-linecap:square;stroke-linejoin:miter;stroke-width:0.8;"/>
   </g>
   <g id="legend_1">
    <g id="patch_7">
     <path d="M 249.445 53.395312 
L 391.445 53.395312 
Q 393.445 53.395312 393.445 51.395312 
L 393.445 24.035937 
Q 393.445 22.035937 391.445 22.035937 
L 249.445 22.035937 
Q 247.445 22.035937 247.445 24.035937 
L 247.445 51.395312 
Q 247.445 53.395312 249.445 53.395312 
z
" style="fill:#ffffff;opacity:0.8;stroke:#cccccc;stroke-linejoin:miter;"/>
    </g>
    <g id="line2d_15">
     <path d="M 251.445 30.426562 
L 271.445 30.426562 
" style="fill:none;stroke:#1f77b4;stroke-linecap:square;stroke-width:1.5;"/>
    </g>
    <g id="line2d_16"/>
    <g id="text_16">
     <!-- 种群个体平均目标函数值 -->
     <defs>
      <path d="M 14.0625 42.96875 
Q 9.765625 42.96875 6.25 42.578125 
L 6.25 49.609375 
Q 12.109375 49.21875 18.75 49.21875 
L 21.875 49.21875 
L 21.875 65.234375 
Q 17.96875 64.0625 8.984375 62.109375 
Q 7.421875 65.625 5.46875 69.53125 
Q 13.671875 69.921875 21.671875 71.875 
Q 29.6875 73.828125 36.328125 77.34375 
Q 38.28125 74.21875 41.796875 69.53125 
Q 37.890625 68.75 35.34375 68.15625 
Q 32.8125 67.578125 29.296875 66.796875 
L 29.296875 49.21875 
Q 34.375 49.21875 41.40625 49.609375 
L 41.40625 42.578125 
Q 34.375 42.96875 29.296875 42.96875 
L 29.296875 3.90625 
Q 29.296875 -1.171875 29.6875 -8.984375 
L 21.484375 -8.984375 
Q 21.875 -1.171875 21.875 3.90625 
L 21.875 28.515625 
Q 18.75 21.09375 16.203125 16.59375 
Q 13.671875 12.109375 9.765625 5.859375 
Q 6.640625 10.15625 3.90625 13.28125 
Q 9.375 19.140625 13.671875 26.5625 
Q 17.96875 33.984375 19.921875 42.96875 
z
M 29.296875 33.984375 
Q 31.640625 35.546875 35.546875 37.5 
Q 36.71875 35.15625 38.46875 32.421875 
Q 40.234375 29.6875 42.578125 25 
Q 39.0625 23.4375 36.328125 21.09375 
Q 34.375 25.390625 33 28.125 
Q 31.640625 30.859375 29.296875 33.984375 
z
M 72.265625 54.6875 
L 72.265625 28.125 
L 84.375 28.125 
L 84.375 54.6875 
z
M 44.921875 60.9375 
L 64.84375 60.9375 
Q 64.84375 75.390625 64.453125 79.6875 
L 72.65625 79.6875 
Q 72.265625 75.78125 72.265625 60.9375 
L 92.1875 60.9375 
Q 91.796875 56.640625 91.796875 49.609375 
L 91.796875 23.828125 
Q 91.796875 19.921875 92.1875 14.453125 
L 84.375 14.453125 
L 84.375 21.875 
L 72.265625 21.875 
L 72.265625 6.25 
Q 72.265625 -3.515625 72.65625 -9.765625 
L 64.453125 -9.765625 
Q 64.84375 -3.515625 64.84375 6.25 
L 64.84375 21.875 
L 52.734375 21.875 
L 52.734375 12.890625 
L 44.921875 12.890625 
Q 45.3125 17.578125 45.3125 23.046875 
L 45.3125 48.828125 
Q 45.3125 56.640625 44.921875 60.9375 
z
M 52.734375 54.6875 
L 52.734375 28.125 
L 64.84375 28.125 
L 64.84375 54.6875 
z
" id="SimHei-31181"/>
      <path d="M 23.4375 21.09375 
L 23.4375 5.859375 
L 39.0625 5.859375 
L 39.0625 21.09375 
z
M 46.09375 26.5625 
Q 45.703125 22.265625 45.703125 10.546875 
Q 45.703125 -1.171875 46.09375 -6.25 
L 39.0625 -6.25 
L 39.0625 0.390625 
L 23.4375 0.390625 
L 23.4375 -8.984375 
L 16.40625 -8.984375 
Q 16.796875 -3.125 16.796875 22.65625 
Q 13.28125 17.1875 10.15625 13.28125 
Q 7.8125 16.40625 3.90625 17.578125 
Q 8.203125 21.484375 11.90625 26.75 
Q 15.625 32.03125 17.1875 36.71875 
Q 13.671875 36.71875 9.375 36.328125 
L 9.375 42.578125 
Q 14.453125 42.1875 18.359375 42.1875 
Q 19.53125 48.046875 19.53125 52.734375 
Q 11.328125 52.734375 6.640625 52.34375 
L 6.640625 58.59375 
Q 11.71875 58.203125 19.53125 58.203125 
L 19.53125 69.53125 
Q 16.796875 69.53125 10.9375 69.140625 
L 10.9375 75.390625 
Q 16.40625 75 20.3125 75 
L 46.09375 75 
Q 45.703125 69.921875 45.703125 58.203125 
Q 48.046875 58.203125 51.5625 58.59375 
L 51.5625 52.34375 
Q 48.046875 52.734375 45.703125 52.734375 
Q 45.703125 41.40625 46.09375 36.71875 
L 23.828125 36.71875 
Q 21.484375 29.6875 19.53125 26.5625 
z
M 25.78125 69.53125 
L 25.78125 58.203125 
L 39.0625 58.203125 
L 39.0625 69.53125 
z
M 25.78125 52.734375 
Q 25.390625 48.046875 24.609375 42.1875 
L 39.0625 42.1875 
L 39.0625 52.734375 
z
M 68.75 68.359375 
Q 65.234375 66.796875 62.890625 64.84375 
Q 59.765625 70.703125 55.859375 76.171875 
Q 58.984375 77.34375 61.71875 79.6875 
Q 64.453125 75 68.75 68.359375 
z
M 91.40625 34.765625 
Q 86.328125 35.15625 75.78125 35.15625 
L 75.78125 19.921875 
Q 90.625 19.921875 94.53125 20.3125 
L 94.53125 14.0625 
Q 90.625 14.453125 75.78125 14.453125 
L 75.78125 3.515625 
Q 75.78125 -3.125 76.171875 -10.546875 
L 68.75 -10.546875 
Q 69.140625 -3.125 69.140625 3.515625 
L 69.140625 14.453125 
Q 55.859375 14.453125 50.390625 14.0625 
L 50.390625 20.3125 
Q 55.859375 19.921875 69.140625 19.921875 
L 69.140625 35.15625 
Q 57.8125 35.15625 53.515625 34.765625 
L 53.515625 41.015625 
Q 58.203125 40.625 69.140625 40.625 
L 69.140625 54.6875 
Q 60.9375 54.6875 54.6875 54.296875 
L 54.6875 60.546875 
Q 60.9375 60.15625 74.21875 60.15625 
Q 79.296875 69.921875 81.640625 80.078125 
Q 86.328125 78.125 91.015625 76.953125 
Q 88.671875 75 86.328125 70.890625 
Q 83.984375 66.796875 80.859375 60.15625 
Q 87.5 60.15625 92.578125 60.546875 
L 92.578125 54.296875 
Q 87.890625 54.6875 75.78125 54.6875 
L 75.78125 40.625 
L 81.640625 40.625 
L 91.40625 41.015625 
z
" id="SimHei-32676"/>
      <path d="M 56.25 77.734375 
Q 54.6875 76.171875 53.125 74.21875 
Q 67.96875 50.390625 95.3125 43.75 
Q 89.84375 37.890625 89.0625 33.984375 
Q 64.453125 44.140625 48.4375 67.96875 
Q 36.328125 46.484375 12.109375 32.8125 
Q 10.15625 36.71875 5.078125 40.625 
Q 22.65625 48.4375 32.609375 60.15625 
Q 42.578125 71.875 45.3125 81.25 
Q 50.78125 78.90625 56.25 77.734375 
z
M 44.921875 -10.15625 
Q 45.703125 -0.78125 45.703125 7.421875 
L 45.703125 35.15625 
Q 45.703125 41.40625 44.921875 50 
L 54.296875 50 
Q 53.515625 44.140625 53.515625 34.765625 
L 53.515625 7.8125 
Q 53.515625 -1.171875 54.296875 -10.15625 
z
" id="SimHei-20010"/>
      <path d="M 30.859375 60.15625 
Q 35.546875 59.765625 41.796875 59.765625 
L 57.03125 59.765625 
Q 57.03125 73.828125 56.640625 79.6875 
L 64.453125 79.6875 
Q 64.0625 74.21875 64.0625 59.765625 
L 81.25 59.765625 
Q 89.0625 59.765625 92.578125 60.15625 
L 92.578125 53.125 
Q 89.0625 53.515625 81.640625 53.515625 
L 69.921875 53.515625 
Q 75.390625 27.734375 96.484375 13.671875 
Q 92.1875 11.328125 90.234375 7.03125 
Q 69.140625 23.046875 64.0625 53.125 
L 64.0625 14.84375 
Q 73.828125 14.84375 77.34375 15.234375 
L 77.34375 8.203125 
Q 73.828125 8.59375 64.0625 8.59375 
Q 64.0625 0.78125 64.453125 -9.375 
L 56.640625 -9.375 
Q 57.03125 1.171875 57.03125 8.59375 
Q 51.5625 8.59375 43.75 8.203125 
L 43.75 15.234375 
Q 51.5625 14.84375 57.03125 14.84375 
L 57.03125 53.515625 
L 56.640625 53.515625 
Q 50.390625 22.65625 32.03125 5.859375 
Q 29.6875 9.375 25.390625 11.328125 
Q 43.75 25.390625 49.609375 53.515625 
L 41.796875 53.515625 
Q 35.546875 53.515625 30.859375 53.125 
z
M 22.265625 79.6875 
Q 26.5625 77.734375 31.25 76.171875 
Q 28.515625 72.65625 23.828125 58.59375 
L 23.828125 8.59375 
Q 23.828125 -3.515625 24.21875 -8.984375 
L 16.40625 -8.984375 
Q 16.796875 -3.90625 16.796875 8.203125 
L 16.796875 44.921875 
Q 14.84375 40.625 8.984375 31.640625 
Q 7.03125 35.15625 3.515625 37.5 
Q 8.203125 42.1875 14.453125 56.046875 
Q 20.703125 69.921875 22.265625 79.6875 
z
" id="SimHei-20307"/>
      <path d="M 14.453125 78.125 
Q 22.265625 77.734375 28.125 77.734375 
L 70.703125 77.734375 
Q 76.953125 77.734375 85.15625 78.125 
L 85.15625 70.703125 
Q 77.34375 71.09375 70.703125 71.09375 
L 54.6875 71.09375 
L 54.6875 31.25 
L 78.90625 31.25 
Q 87.109375 31.25 94.140625 31.640625 
L 94.140625 24.21875 
Q 87.109375 24.609375 78.90625 24.609375 
L 54.6875 24.609375 
L 54.6875 5.859375 
Q 54.6875 -1.171875 55.078125 -10.15625 
L 46.484375 -10.15625 
Q 46.875 -1.171875 46.875 5.859375 
L 46.875 24.609375 
L 18.359375 24.609375 
Q 12.890625 24.609375 6.640625 24.21875 
L 6.640625 31.640625 
Q 12.890625 31.25 18.75 31.25 
L 46.875 31.25 
L 46.875 71.09375 
L 28.515625 71.09375 
Q 22.265625 71.09375 14.453125 70.703125 
z
M 35.546875 42.96875 
Q 31.640625 41.796875 28.125 39.453125 
Q 25.390625 48.828125 19.53125 58.203125 
Q 23.046875 59.375 26.171875 61.71875 
Q 32.03125 51.5625 35.546875 42.96875 
z
M 71.09375 37.890625 
Q 67.578125 40.234375 63.671875 41.40625 
Q 70.703125 51.5625 74.21875 62.5 
Q 78.125 60.15625 82.8125 58.59375 
Q 76.953125 49.609375 71.09375 37.890625 
z
" id="SimHei-24179"/>
      <path d="M 91.015625 62.5 
L 88.28125 5.078125 
Q 88.28125 -3.90625 81.828125 -5.65625 
Q 75.390625 -7.421875 67.578125 -7.8125 
Q 66.796875 -3.125 64.84375 1.171875 
Q 75.390625 0.390625 78.125 1.75 
Q 80.859375 3.125 80.859375 8.203125 
L 83.203125 55.859375 
L 55.859375 55.859375 
Q 53.515625 51.171875 50.96875 46.484375 
Q 48.4375 41.796875 44.921875 36.71875 
Q 41.40625 39.0625 37.5 40.625 
Q 41.40625 44.921875 44.328125 49.796875 
Q 47.265625 54.6875 49.21875 59.765625 
Q 51.171875 64.84375 52.53125 69.71875 
Q 53.90625 74.609375 54.6875 78.515625 
Q 59.375 76.953125 64.84375 75.78125 
Q 63.28125 73.4375 61.71875 70.3125 
Q 60.15625 67.1875 58.59375 62.5 
z
M 54.296875 42.578125 
Q 57.03125 44.53125 60.15625 46.484375 
Q 64.0625 41.796875 68.75 33.203125 
Q 64.84375 31.25 62.109375 29.296875 
Q 59.765625 34.765625 54.296875 42.578125 
z
M 75.78125 28.515625 
Q 76.171875 25 77.34375 21.484375 
Q 72.65625 19.53125 63.859375 16.203125 
Q 55.078125 12.890625 46.484375 8.59375 
Q 45.3125 13.28125 43.359375 17.1875 
Q 54.296875 19.921875 58.78125 21.484375 
Q 63.28125 23.046875 75.78125 28.515625 
z
M 7.03125 55.46875 
Q 12.890625 55.078125 16.796875 55.078125 
L 19.140625 55.078125 
L 19.140625 66.796875 
Q 19.140625 72.65625 18.75 77.34375 
L 26.953125 77.34375 
Q 26.5625 71.875 26.5625 66.796875 
L 26.5625 55.078125 
L 28.90625 55.078125 
Q 33.59375 55.078125 38.671875 55.46875 
L 38.671875 48.046875 
Q 33.59375 48.4375 28.90625 48.4375 
L 26.5625 48.4375 
L 26.5625 17.1875 
L 38.28125 21.09375 
Q 37.890625 17.578125 38.671875 14.0625 
Q 18.75 7.421875 14.640625 5.859375 
Q 10.546875 4.296875 7.03125 2.734375 
Q 5.46875 7.421875 3.515625 11.71875 
Q 8.59375 12.5 12.109375 13.28125 
Q 15.625 14.0625 19.140625 15.234375 
L 19.140625 48.4375 
L 17.1875 48.4375 
Q 12.890625 48.4375 7.03125 48.046875 
z
" id="SimHei-22343"/>
      <path d="M 28.125 46.09375 
L 28.125 28.125 
L 73.828125 28.125 
L 73.828125 46.09375 
z
M 28.125 22.265625 
L 28.125 3.515625 
L 73.828125 3.515625 
L 73.828125 22.265625 
z
M 28.125 69.140625 
L 28.125 51.953125 
L 73.828125 51.953125 
L 73.828125 69.140625 
z
M 19.53125 75 
L 81.640625 75 
Q 81.25 64.0625 81.25 53.90625 
L 81.25 8.203125 
Q 81.25 2.34375 81.640625 -9.765625 
L 73.828125 -9.765625 
L 73.828125 -2.34375 
L 28.125 -2.34375 
L 28.125 -9.375 
L 19.921875 -9.375 
Q 20.703125 1.171875 20.703125 7.421875 
L 20.703125 53.90625 
Q 20.3125 65.234375 19.53125 75 
z
" id="SimHei-30446"/>
      <path d="M 5.078125 59.375 
Q 10.9375 58.59375 18.359375 58.984375 
L 18.359375 68.359375 
Q 18.359375 74.609375 17.96875 80.46875 
L 26.171875 80.46875 
Q 25.390625 75 25.390625 68.359375 
L 25.390625 58.984375 
Q 31.640625 58.984375 39.453125 59.375 
L 39.453125 51.5625 
Q 31.640625 52.34375 25.390625 52.34375 
L 25.390625 35.546875 
Q 28.90625 37.5 31.640625 39.453125 
Q 35.9375 33.203125 40.625 25.78125 
Q 36.328125 23.828125 33.203125 21.484375 
Q 30.078125 28.90625 25.390625 35.546875 
L 25.390625 7.03125 
Q 25.390625 -1.171875 25.78125 -9.375 
L 17.96875 -9.375 
Q 18.359375 -0.78125 18.359375 7.03125 
L 18.359375 33.203125 
Q 14.84375 22.65625 8.984375 12.109375 
Q 7.03125 16.015625 3.515625 19.140625 
Q 8.59375 25.390625 12.109375 34.5625 
Q 15.625 43.75 17.1875 52.34375 
Q 10.546875 52.34375 5.078125 51.5625 
z
M 44.140625 74.21875 
Q 49.609375 73.828125 56.25 73.828125 
L 75.390625 73.828125 
Q 81.25 73.828125 86.328125 74.21875 
L 86.328125 66.40625 
Q 81.25 67.1875 75.390625 67.1875 
L 56.25 67.1875 
Q 50 67.1875 44.140625 66.40625 
z
M 39.84375 49.609375 
Q 44.921875 49.21875 52.734375 49.21875 
L 80.46875 49.21875 
Q 86.71875 49.21875 92.578125 49.609375 
L 92.578125 42.1875 
Q 86.71875 42.578125 80.46875 42.578125 
L 67.96875 42.578125 
L 67.96875 1.953125 
Q 67.96875 -5.078125 64.640625 -6.4375 
Q 61.328125 -7.8125 53.90625 -9.375 
Q 53.125 -4.6875 50.78125 0 
Q 57.03125 -0.390625 58.984375 0.1875 
Q 60.9375 0.78125 60.9375 4.6875 
L 60.9375 42.578125 
L 52.734375 42.578125 
Q 44.53125 42.578125 39.84375 41.796875 
z
M 47.265625 32.03125 
Q 51.5625 30.078125 55.859375 28.90625 
Q 53.90625 26.953125 49.796875 16.59375 
Q 45.703125 6.25 42.1875 -0.78125 
Q 38.671875 1.171875 34.375 2.734375 
Q 39.0625 9.375 42.375 17.375 
Q 45.703125 25.390625 47.265625 32.03125 
z
M 72.265625 27.734375 
Q 75.78125 29.6875 78.90625 32.421875 
Q 88.28125 19.921875 94.921875 9.375 
Q 91.015625 7.421875 87.5 4.296875 
Q 80.859375 16.40625 72.265625 27.734375 
z
" id="SimHei-26631"/>
      <path d="M 16.015625 72.65625 
Q 23.046875 72.265625 29.6875 72.265625 
L 83.59375 72.265625 
L 83.59375 64.453125 
Q 77.34375 62.890625 67.96875 58.984375 
Q 58.59375 55.078125 53.515625 52.34375 
L 53.515625 16.015625 
Q 53.515625 8.984375 49.21875 7.8125 
Q 44.921875 6.640625 38.671875 5.46875 
Q 37.890625 9.765625 35.9375 14.453125 
Q 42.1875 14.0625 44.140625 14.84375 
Q 46.09375 15.625 46.09375 19.921875 
L 46.09375 45.703125 
Q 46.09375 52.734375 45.3125 57.03125 
Q 50.78125 58.59375 57.609375 61.328125 
Q 64.453125 64.0625 67.578125 66.015625 
L 29.6875 66.015625 
Q 21.875 66.015625 16.015625 65.625 
z
M 40.234375 43.359375 
Q 37.890625 40.625 35.546875 37.890625 
Q 32.8125 41.015625 29.875 43.75 
Q 26.953125 46.484375 23.046875 49.609375 
Q 25.390625 52.34375 27.34375 55.078125 
Q 30.859375 51.953125 34.171875 48.828125 
Q 37.5 45.703125 40.234375 43.359375 
z
M 39.0625 32.8125 
Q 39.84375 29.6875 41.40625 26.171875 
Q 37.890625 23.828125 33.78125 21.09375 
Q 29.6875 18.359375 24.609375 14.0625 
Q 22.65625 17.1875 19.921875 21.09375 
Q 25.390625 23.828125 30.078125 26.5625 
Q 34.765625 29.296875 39.0625 32.8125 
z
M 70.703125 53.125 
Q 73.4375 50 76.5625 47.265625 
Q 73.828125 46.09375 69.921875 43.359375 
Q 66.015625 40.625 61.71875 37.5 
Q 59.375 40.234375 57.03125 42.578125 
Q 61.328125 45.3125 64.25 47.453125 
Q 67.1875 49.609375 70.703125 53.125 
z
M 55.859375 26.953125 
Q 58.59375 29.6875 60.9375 32.03125 
Q 64.0625 29.6875 67.96875 26.5625 
Q 71.875 23.4375 76.171875 19.53125 
Q 73.4375 16.796875 70.703125 13.28125 
Q 67.1875 17.1875 64.25 19.921875 
Q 61.328125 22.65625 55.859375 26.953125 
z
M 19.140625 45.703125 
Q 18.359375 41.40625 18.359375 36.71875 
L 18.359375 2.734375 
L 80.078125 2.734375 
L 80.078125 32.8125 
Q 80.078125 38.671875 79.296875 44.140625 
L 87.5 44.140625 
Q 87.109375 37.109375 87.109375 32.8125 
L 87.109375 0.390625 
Q 87.109375 -4.6875 87.5 -9.765625 
L 80.078125 -9.765625 
L 80.078125 -3.90625 
L 10.15625 -3.90625 
Q 10.9375 0.390625 10.9375 20.3125 
Q 10.9375 40.234375 10.546875 45.703125 
z
" id="SimHei-20989"/>
      <path d="M 10.9375 75.78125 
Q 14.84375 76.953125 17.1875 78.515625 
Q 20.3125 73.4375 23.046875 68.359375 
Q 19.53125 66.796875 16.796875 65.234375 
Q 14.453125 71.09375 10.9375 75.78125 
z
M 44.921875 78.515625 
Q 49.21875 76.5625 53.125 75 
Q 50.78125 73.4375 49.21875 70.703125 
Q 47.65625 67.96875 45.703125 64.453125 
Q 42.578125 66.015625 39.453125 66.796875 
Q 42.578125 71.875 44.921875 78.515625 
z
M 38.28125 49.609375 
Q 41.796875 51.171875 44.140625 53.515625 
Q 48.828125 46.875 51.953125 41.40625 
Q 48.4375 39.84375 45.3125 37.5 
Q 42.1875 44.921875 38.28125 49.609375 
z
M 8.203125 61.71875 
Q 14.453125 61.328125 28.125 61.328125 
Q 28.125 72.65625 27.734375 80.859375 
L 35.546875 80.859375 
Q 35.15625 72.65625 35.15625 61.328125 
Q 48.046875 61.328125 53.90625 61.71875 
L 53.90625 54.6875 
Q 48.046875 55.078125 35.15625 55.078125 
Q 35.15625 46.09375 35.546875 39.453125 
L 27.734375 39.453125 
Q 28.125 45.3125 28.125 51.953125 
Q 26.171875 48.046875 21.671875 43.546875 
Q 17.1875 39.0625 11.71875 35.9375 
Q 10.15625 39.453125 6.640625 41.796875 
Q 10.15625 42.96875 15.421875 46.875 
Q 20.703125 50.78125 23.046875 55.078125 
Q 14.84375 55.078125 8.203125 54.6875 
z
M 26.953125 24.21875 
Q 25 20.3125 22.65625 16.40625 
Q 27.34375 15.234375 35.15625 13.28125 
Q 37.890625 16.796875 40.234375 24.21875 
z
M 24.21875 38.28125 
Q 28.515625 36.71875 32.8125 35.546875 
Q 31.25 33.984375 29.296875 30.46875 
L 44.53125 30.46875 
L 48.828125 30.46875 
Q 46.484375 20.3125 42.1875 11.328125 
Q 48.828125 9.375 52.734375 8.203125 
Q 49.609375 3.90625 48.046875 0.390625 
Q 44.53125 2.734375 37.5 5.46875 
Q 28.125 -3.90625 9.375 -10.15625 
Q 7.8125 -6.25 4.6875 -3.90625 
Q 21.484375 0 31.25 8.203125 
Q 20.3125 10.9375 13.28125 12.890625 
Q 15.625 16.015625 19.53125 24.21875 
Q 13.28125 24.21875 4.6875 23.828125 
L 4.6875 30.859375 
Q 12.109375 30.46875 21.875 30.46875 
Q 23.046875 33.59375 24.21875 38.28125 
z
M 63.671875 80.46875 
Q 68.359375 78.515625 73.4375 77.734375 
Q 71.484375 75.390625 70.5 72.265625 
Q 69.53125 69.140625 67.96875 63.28125 
L 85.546875 63.28125 
Q 89.0625 63.28125 94.53125 63.671875 
L 94.53125 56.640625 
Q 90.234375 57.03125 87.5 57.03125 
Q 87.109375 48.828125 85.546875 35.34375 
Q 83.984375 21.875 78.125 11.71875 
Q 82.03125 6.25 87.109375 2.734375 
Q 92.1875 -0.78125 96.09375 -2.34375 
Q 90.625 -5.859375 89.0625 -9.375 
Q 82.421875 -4.6875 79.296875 -1.359375 
Q 76.171875 1.953125 73.4375 5.859375 
Q 68.75 1.171875 64.640625 -1.953125 
Q 60.546875 -5.078125 51.5625 -10.15625 
Q 49.609375 -6.640625 45.3125 -3.90625 
Q 52.734375 -1.171875 58.984375 3.125 
Q 65.234375 7.421875 69.53125 12.109375 
Q 65.234375 20.703125 62.890625 29.09375 
Q 60.546875 37.5 60.15625 41.015625 
Q 59.375 38.28125 58.203125 34.765625 
Q 54.6875 36.328125 50.390625 37.890625 
Q 55.078125 46.484375 58.984375 58.59375 
Q 62.890625 70.703125 63.671875 80.46875 
z
M 66.40625 57.03125 
Q 64.84375 53.125 64.0625 50.578125 
Q 63.28125 48.046875 66.984375 36.71875 
Q 70.703125 25.390625 74.21875 19.140625 
Q 77.734375 28.515625 79.09375 38.671875 
Q 80.46875 48.828125 80.46875 57.03125 
z
" id="SimHei-25968"/>
      <path d="M 47.65625 9.375 
L 47.65625 1.953125 
L 76.5625 1.953125 
L 76.5625 9.375 
z
M 34.765625 70.3125 
Q 39.453125 69.921875 49.609375 69.921875 
L 57.421875 69.921875 
Q 57.421875 74.609375 57.421875 80.078125 
Q 62.109375 79.6875 67.578125 79.296875 
Q 65.625 76.5625 65.234375 69.921875 
L 79.6875 69.921875 
Q 86.71875 69.921875 91.40625 70.3125 
L 91.40625 63.28125 
Q 86.328125 63.671875 79.6875 63.671875 
L 64.84375 63.671875 
L 64.0625 55.078125 
L 84.375 55.078125 
Q 83.984375 50.390625 83.984375 42.1875 
L 83.984375 1.953125 
Q 91.40625 1.953125 94.921875 2.34375 
L 94.921875 -4.6875 
Q 89.84375 -4.296875 80.859375 -4.296875 
L 44.140625 -4.296875 
Q 35.546875 -4.296875 29.6875 -4.6875 
L 29.6875 2.34375 
Q 33.203125 1.953125 40.234375 1.953125 
L 40.234375 42.1875 
Q 40.234375 49.609375 39.84375 55.078125 
L 56.25 55.078125 
L 57.03125 63.671875 
L 49.609375 63.671875 
Q 39.84375 63.671875 34.765625 63.28125 
z
M 47.65625 49.21875 
L 47.65625 41.40625 
L 76.5625 41.40625 
L 76.5625 49.21875 
z
M 47.65625 35.546875 
L 47.65625 28.515625 
L 76.5625 28.515625 
L 76.5625 35.546875 
z
M 47.65625 22.65625 
L 47.65625 15.234375 
L 76.5625 15.234375 
L 76.5625 22.65625 
z
M 25.390625 80.859375 
Q 30.859375 78.125 34.765625 76.953125 
Q 31.640625 73.4375 25.78125 58.984375 
L 25.78125 6.640625 
Q 25.78125 -1.5625 26.171875 -8.984375 
L 17.96875 -8.984375 
Q 18.359375 -2.34375 18.359375 5.46875 
L 18.359375 46.09375 
Q 13.28125 38.28125 9.765625 33.59375 
Q 6.640625 37.890625 3.90625 40.234375 
Q 7.8125 44.140625 14.640625 55.46875 
Q 21.484375 66.796875 25.390625 80.859375 
z
" id="SimHei-20540"/>
     </defs>
     <g transform="translate(279.445 33.926562)scale(0.1 -0.1)">
      <use xlink:href="#SimHei-31181"/>
      <use x="100" xlink:href="#SimHei-32676"/>
      <use x="200" xlink:href="#SimHei-20010"/>
      <use x="300" xlink:href="#SimHei-20307"/>
      <use x="400" xlink:href="#SimHei-24179"/>
      <use x="500" xlink:href="#SimHei-22343"/>
      <use x="600" xlink:href="#SimHei-30446"/>
      <use x="700" xlink:href="#SimHei-26631"/>
      <use x="800" xlink:href="#SimHei-20989"/>
      <use x="900" xlink:href="#SimHei-25968"/>
      <use x="1000" xlink:href="#SimHei-20540"/>
     </g>
    </g>
    <g id="line2d_17">
     <path d="M 251.445 44.60625 
L 271.445 44.60625 
" style="fill:none;stroke:#ff7f0e;stroke-linecap:square;stroke-width:1.5;"/>
    </g>
    <g id="line2d_18"/>
    <g id="text_17">
     <!-- 种群最优个体目标函数值 -->
     <defs>
      <path d="M 24.21875 39.0625 
L 24.21875 32.03125 
L 41.015625 32.03125 
L 41.015625 39.0625 
z
M 24.21875 26.5625 
L 24.21875 19.921875 
L 41.015625 19.921875 
L 41.015625 26.5625 
z
M 24.21875 14.453125 
L 24.21875 6.640625 
L 41.015625 8.984375 
L 41.015625 14.453125 
z
M 10.15625 -3.515625 
Q 8.59375 0.78125 7.421875 4.6875 
Q 10.546875 4.6875 17.1875 5.46875 
L 17.1875 39.0625 
Q 12.5 39.0625 6.640625 38.671875 
L 6.640625 44.921875 
Q 12.5 44.53125 17.578125 44.53125 
L 78.90625 44.53125 
Q 85.9375 44.53125 92.1875 44.921875 
L 92.1875 38.671875 
Q 85.9375 39.0625 78.90625 39.0625 
L 48.046875 39.0625 
L 48.046875 10.546875 
Q 50.390625 10.9375 53.125 11.71875 
Q 53.125 8.59375 53.125 5.078125 
Q 50.390625 5.078125 48.046875 4.296875 
Q 48.046875 -1.953125 48.4375 -7.8125 
L 41.015625 -7.8125 
Q 41.015625 -1.953125 41.015625 3.515625 
Q 36.71875 2.734375 28.125 0.96875 
Q 19.53125 -0.78125 10.15625 -3.515625 
z
M 56.25 -9.375 
Q 54.296875 -7.03125 50.78125 -3.515625 
Q 55.46875 -1.953125 58.78125 0.1875 
Q 62.109375 2.34375 65.234375 5.859375 
Q 62.890625 7.8125 60.15625 11.90625 
Q 57.421875 16.015625 54.6875 26.953125 
Q 57.03125 26.953125 60.9375 27.34375 
Q 62.109375 17.1875 69.140625 10.546875 
Q 71.484375 13.671875 73.234375 17.96875 
Q 75 22.265625 76.171875 26.5625 
L 64.453125 26.5625 
Q 58.984375 26.5625 51.5625 26.171875 
L 51.5625 32.421875 
Q 58.984375 32.03125 64.453125 32.03125 
L 84.375 32.03125 
Q 82.03125 22.65625 79.6875 16.984375 
Q 77.34375 11.328125 74.21875 6.640625 
Q 77.34375 4.6875 81.25 3.125 
Q 85.15625 1.5625 92.578125 0.390625 
Q 90.625 -2.34375 89.0625 -7.03125 
Q 82.421875 -4.6875 78.125 -2.53125 
Q 73.828125 -0.390625 70.3125 1.953125 
Q 67.578125 -0.78125 64.84375 -3.125 
Q 62.109375 -5.46875 56.25 -9.375 
z
M 27.734375 73.046875 
L 27.734375 67.578125 
L 72.265625 67.578125 
L 72.265625 73.046875 
z
M 27.734375 62.109375 
L 27.734375 57.03125 
L 72.265625 57.03125 
L 72.265625 62.109375 
z
M 19.921875 78.515625 
L 80.078125 78.515625 
Q 79.6875 73.046875 79.6875 68.75 
L 79.6875 61.71875 
Q 79.6875 57.421875 80.078125 51.5625 
L 19.921875 51.5625 
Q 20.3125 57.421875 20.3125 61.71875 
L 20.3125 68.75 
Q 20.3125 73.046875 19.921875 78.515625 
z
" id="SimHei-26368"/>
      <path d="M 37.5 -8.59375 
Q 34.765625 -5.078125 29.6875 -3.515625 
Q 49.609375 10.546875 52.34375 47.265625 
L 45.3125 47.265625 
Q 37.109375 47.265625 31.25 46.875 
L 31.25 53.90625 
Q 37.109375 53.515625 45.3125 53.515625 
L 52.734375 53.515625 
Q 52.734375 72.65625 52.34375 79.6875 
Q 55.078125 78.90625 61.328125 78.515625 
Q 60.15625 72.65625 60.15625 53.515625 
L 80.859375 53.515625 
Q 85.15625 53.515625 91.796875 53.90625 
L 91.796875 46.875 
Q 85.546875 47.265625 81.25 47.265625 
L 60.15625 47.265625 
Q 58.203125 9.375 37.5 -8.59375 
z
M 69.140625 73.046875 
Q 71.875 75 75.390625 77.734375 
Q 77.734375 74.21875 80.078125 70.890625 
Q 82.421875 67.578125 84.765625 64.84375 
Q 81.640625 62.890625 78.125 60.15625 
Q 75.78125 64.453125 69.140625 73.046875 
z
M 87.5 12.109375 
Q 90.234375 9.765625 96.09375 8.203125 
Q 93.75 -0.390625 91.59375 -3.125 
Q 89.453125 -5.859375 85.15625 -6.25 
L 73.046875 -6.25 
Q 64.84375 -6.25 64.84375 3.125 
L 64.84375 47.265625 
L 72.265625 47.265625 
L 72.265625 5.46875 
Q 71.875 1.5625 75 0.78125 
Q 78.125 0 80.859375 0.1875 
Q 83.59375 0.390625 84.953125 1.953125 
Q 86.328125 3.515625 87.5 12.109375 
z
M 9.375 30.46875 
Q 7.421875 33.984375 3.90625 36.71875 
Q 8.984375 41.796875 16.203125 55.859375 
Q 23.4375 69.921875 25.390625 80.46875 
Q 29.296875 78.125 35.15625 76.171875 
Q 31.640625 72.65625 26.953125 59.375 
L 26.953125 9.375 
Q 26.953125 -2.34375 27.34375 -8.203125 
L 19.140625 -8.203125 
Q 19.53125 -2.734375 19.53125 8.984375 
L 19.53125 46.09375 
Q 14.453125 37.5 9.375 30.46875 
z
" id="SimHei-20248"/>
     </defs>
     <g transform="translate(279.445 48.10625)scale(0.1 -0.1)">
      <use xlink:href="#SimHei-31181"/>
      <use x="100" xlink:href="#SimHei-32676"/>
      <use x="200" xlink:href="#SimHei-26368"/>
      <use x="300" xlink:href="#SimHei-20248"/>
      <use x="400" xlink:href="#SimHei-20010"/>
      <use x="500" xlink:href="#SimHei-20307"/>
      <use x="600" xlink:href="#SimHei-30446"/>
      <use x="700" xlink:href="#SimHei-26631"/>
      <use x="800" xlink:href="#SimHei-20989"/>
      <use x="900" xlink:href="#SimHei-25968"/>
      <use x="1000" xlink:href="#SimHei-20540"/>
     </g>
    </g>
   </g>
  </g>
 </g>
 <defs>
  <clipPath id="pe0112f28a7">
   <rect height="266.112" width="357.12" x="41.325" y="17.035937"/>
  </clipPath>
 </defs>
</svg>
