<?xml version="1.0" encoding="utf-8" standalone="no"?>
<!DOCTYPE svg PUBLIC "-//W3C//DTD SVG 1.1//EN"
  "http://www.w3.org/Graphics/SVG/1.1/DTD/svg11.dtd">
<!-- Created with matplotlib (https://matplotlib.org/) -->
<svg height="307.762pt" version="1.1" viewBox="0 0 420.645 307.762" width="420.645pt" xmlns="http://www.w3.org/2000/svg" xmlns:xlink="http://www.w3.org/1999/xlink">
 <defs>
  <style type="text/css">
*{stroke-linecap:butt;stroke-linejoin:round;}
  </style>
 </defs>
 <g id="figure_1">
  <g id="patch_1">
   <path d="M 0 307.762 
L 420.645 307.762 
L 420.645 0 
L 0 0 
z
" style="fill:#ffffff;"/>
  </g>
  <g id="axes_1">
   <g id="patch_2">
    <path d="M 56.325 273.312 
L 413.445 273.312 
L 413.445 7.2 
L 56.325 7.2 
z
" style="fill:#ffffff;"/>
   </g>
   <g id="matplotlib.axis_1">
    <g id="xtick_1">
     <g id="line2d_1">
      <defs>
       <path d="M 0 0 
L 0 3.5 
" id="mc06d3ec7c9" style="stroke:#000000;stroke-width:0.8;"/>
      </defs>
      <g>
       <use style="stroke:#000000;stroke-width:0.8;" x="72.557727" xlink:href="#mc06d3ec7c9" y="273.312"/>
      </g>
     </g>
     <g id="text_1">
      <!-- 0 -->
      <defs>
       <path d="M 46.484375 35.15625 
Q 46.484375 21.09375 41.40625 10.9375 
Q 36.328125 0.78125 25 0.78125 
Q 13.671875 0.78125 8.390625 10.9375 
Q 3.125 21.09375 3.125 35.15625 
Q 3.125 49.21875 8.390625 59.171875 
Q 13.671875 69.140625 25 69.140625 
Q 36.328125 69.140625 41.40625 59.171875 
Q 46.484375 49.21875 46.484375 35.15625 
z
M 37.109375 35.15625 
Q 37.109375 47.65625 34.171875 54.6875 
Q 31.25 61.71875 25 61.71875 
Q 18.75 61.71875 15.625 54.6875 
Q 12.5 47.65625 12.5 35.15625 
Q 12.5 22.65625 15.625 15.421875 
Q 18.75 8.203125 25 8.203125 
Q 31.25 8.203125 34.171875 15.421875 
Q 37.109375 22.65625 37.109375 35.15625 
z
" id="SimHei-48"/>
      </defs>
      <g transform="translate(70.057727 287.147937)scale(0.1 -0.1)">
       <use xlink:href="#SimHei-48"/>
      </g>
     </g>
    </g>
    <g id="xtick_2">
     <g id="line2d_2">
      <g>
       <use style="stroke:#000000;stroke-width:0.8;" x="137.49513" xlink:href="#mc06d3ec7c9" y="273.312"/>
      </g>
     </g>
     <g id="text_2">
      <!-- 2000 -->
      <defs>
       <path d="M 44.53125 1.5625 
L 4.6875 1.5625 
L 4.6875 7.8125 
Q 7.03125 14.0625 11.125 19.328125 
Q 15.234375 24.609375 23.046875 31.25 
Q 28.90625 36.328125 31.4375 40.625 
Q 33.984375 44.921875 33.984375 50 
Q 33.984375 55.078125 31.828125 58.390625 
Q 29.6875 61.71875 25 61.71875 
Q 21.09375 61.71875 18.15625 58.203125 
Q 15.234375 54.6875 15.234375 45.703125 
L 6.25 45.703125 
Q 6.640625 57.03125 11.515625 63.078125 
Q 16.40625 69.140625 25.390625 69.140625 
Q 33.984375 69.140625 38.671875 63.859375 
Q 43.359375 58.59375 43.359375 49.609375 
Q 43.359375 42.1875 39.0625 36.71875 
Q 34.765625 31.25 28.515625 25.78125 
Q 21.484375 19.53125 18.75 16.40625 
Q 16.015625 13.28125 13.671875 8.984375 
L 44.53125 8.984375 
z
" id="SimHei-50"/>
      </defs>
      <g transform="translate(127.49513 287.147937)scale(0.1 -0.1)">
       <use xlink:href="#SimHei-50"/>
       <use x="50" xlink:href="#SimHei-48"/>
       <use x="100" xlink:href="#SimHei-48"/>
       <use x="150" xlink:href="#SimHei-48"/>
      </g>
     </g>
    </g>
    <g id="xtick_3">
     <g id="line2d_3">
      <g>
       <use style="stroke:#000000;stroke-width:0.8;" x="202.432533" xlink:href="#mc06d3ec7c9" y="273.312"/>
      </g>
     </g>
     <g id="text_3">
      <!-- 4000 -->
      <defs>
       <path d="M 46.484375 18.75 
L 38.28125 18.75 
L 38.28125 1.5625 
L 29.296875 1.5625 
L 29.296875 18.75 
L 3.125 18.75 
L 3.125 26.171875 
L 29.296875 69.140625 
L 38.28125 69.140625 
L 38.28125 26.171875 
L 46.484375 26.171875 
z
M 29.296875 26.171875 
L 29.296875 55.078125 
L 11.71875 26.171875 
z
" id="SimHei-52"/>
      </defs>
      <g transform="translate(192.432533 287.147937)scale(0.1 -0.1)">
       <use xlink:href="#SimHei-52"/>
       <use x="50" xlink:href="#SimHei-48"/>
       <use x="100" xlink:href="#SimHei-48"/>
       <use x="150" xlink:href="#SimHei-48"/>
      </g>
     </g>
    </g>
    <g id="xtick_4">
     <g id="line2d_4">
      <g>
       <use style="stroke:#000000;stroke-width:0.8;" x="267.369936" xlink:href="#mc06d3ec7c9" y="273.312"/>
      </g>
     </g>
     <g id="text_4">
      <!-- 6000 -->
      <defs>
       <path d="M 44.53125 24.21875 
Q 44.53125 13.28125 39.84375 7.03125 
Q 35.15625 0.78125 25.78125 0.78125 
Q 16.40625 0.78125 10.9375 8.59375 
Q 5.46875 16.40625 5.46875 33.984375 
Q 5.46875 50 11.125 59.5625 
Q 16.796875 69.140625 27.34375 69.140625 
Q 34.765625 69.140625 39.25 63.671875 
Q 43.75 58.203125 43.75 51.5625 
L 34.765625 51.5625 
Q 34.765625 55.46875 32.609375 58.59375 
Q 30.46875 61.71875 26.953125 61.71875 
Q 21.09375 61.71875 17.96875 55.65625 
Q 14.84375 49.609375 14.453125 37.109375 
Q 17.1875 42.1875 20.3125 44.140625 
Q 23.4375 46.09375 27.734375 46.09375 
Q 35.15625 46.09375 39.84375 40.234375 
Q 44.53125 34.375 44.53125 24.21875 
z
M 35.15625 24.21875 
Q 35.15625 31.25 32.8125 35.15625 
Q 30.46875 39.0625 26.171875 39.0625 
Q 21.09375 39.0625 18.15625 35.15625 
Q 15.234375 31.25 15.234375 25.78125 
Q 15.234375 17.1875 18.15625 12.5 
Q 21.09375 7.8125 26.171875 7.8125 
Q 29.6875 7.8125 32.421875 11.328125 
Q 35.15625 14.84375 35.15625 24.21875 
z
" id="SimHei-54"/>
      </defs>
      <g transform="translate(257.369936 287.147937)scale(0.1 -0.1)">
       <use xlink:href="#SimHei-54"/>
       <use x="50" xlink:href="#SimHei-48"/>
       <use x="100" xlink:href="#SimHei-48"/>
       <use x="150" xlink:href="#SimHei-48"/>
      </g>
     </g>
    </g>
    <g id="xtick_5">
     <g id="line2d_5">
      <g>
       <use style="stroke:#000000;stroke-width:0.8;" x="332.307339" xlink:href="#mc06d3ec7c9" y="273.312"/>
      </g>
     </g>
     <g id="text_5">
      <!-- 8000 -->
      <defs>
       <path d="M 44.921875 20.703125 
Q 44.921875 10.9375 39.453125 5.859375 
Q 33.984375 0.78125 24.609375 0.78125 
Q 15.234375 0.78125 9.765625 5.859375 
Q 4.296875 10.9375 4.296875 20.703125 
Q 4.296875 25.78125 7.421875 29.875 
Q 10.546875 33.984375 16.015625 35.9375 
Q 11.328125 37.890625 8.78125 41.40625 
Q 6.25 44.921875 6.25 50.390625 
Q 6.25 58.984375 11.71875 64.0625 
Q 17.1875 69.140625 24.609375 69.140625 
Q 32.03125 69.140625 37.5 64.0625 
Q 42.96875 58.984375 42.96875 50.390625 
Q 42.96875 44.921875 40.421875 41.40625 
Q 37.890625 37.890625 33.203125 35.9375 
Q 38.671875 33.984375 41.796875 29.875 
Q 44.921875 25.78125 44.921875 20.703125 
z
M 34.375 50.390625 
Q 34.375 56.640625 31.640625 59.375 
Q 28.90625 62.109375 24.609375 62.109375 
Q 20.3125 62.109375 17.578125 59.375 
Q 14.84375 56.640625 14.84375 50.390625 
Q 14.84375 44.140625 17.765625 41.59375 
Q 20.703125 39.0625 24.609375 39.0625 
Q 28.515625 39.0625 31.4375 41.59375 
Q 34.375 44.140625 34.375 50.390625 
z
M 35.9375 20.703125 
Q 35.9375 26.171875 33 29.296875 
Q 30.078125 32.421875 24.609375 32.421875 
Q 19.140625 32.421875 16.203125 29.296875 
Q 13.28125 26.171875 13.28125 20.703125 
Q 13.28125 14.453125 16.40625 11.125 
Q 19.53125 7.8125 24.609375 7.8125 
Q 29.6875 7.8125 32.8125 11.125 
Q 35.9375 14.453125 35.9375 20.703125 
z
" id="SimHei-56"/>
      </defs>
      <g transform="translate(322.307339 287.147937)scale(0.1 -0.1)">
       <use xlink:href="#SimHei-56"/>
       <use x="50" xlink:href="#SimHei-48"/>
       <use x="100" xlink:href="#SimHei-48"/>
       <use x="150" xlink:href="#SimHei-48"/>
      </g>
     </g>
    </g>
    <g id="xtick_6">
     <g id="line2d_6">
      <g>
       <use style="stroke:#000000;stroke-width:0.8;" x="397.244741" xlink:href="#mc06d3ec7c9" y="273.312"/>
      </g>
     </g>
     <g id="text_6">
      <!-- 10000 -->
      <defs>
       <path d="M 30.46875 1.5625 
L 21.484375 1.5625 
L 21.484375 53.515625 
L 9.765625 53.515625 
L 9.765625 58.203125 
Q 16.796875 58.203125 20.703125 60.9375 
Q 24.609375 63.671875 25.78125 69.140625 
L 30.46875 69.140625 
z
" id="SimHei-49"/>
      </defs>
      <g transform="translate(384.744741 287.147937)scale(0.1 -0.1)">
       <use xlink:href="#SimHei-49"/>
       <use x="50" xlink:href="#SimHei-48"/>
       <use x="100" xlink:href="#SimHei-48"/>
       <use x="150" xlink:href="#SimHei-48"/>
       <use x="200" xlink:href="#SimHei-48"/>
      </g>
     </g>
    </g>
    <g id="text_7">
     <!-- Number of Generation -->
     <defs>
      <path d="M 44.921875 1.5625 
L 35.15625 1.5625 
L 13.671875 50 
L 13.28125 50 
L 13.28125 1.5625 
L 4.296875 1.5625 
L 4.296875 68.359375 
L 14.0625 68.359375 
L 35.546875 19.921875 
L 35.9375 19.921875 
L 35.9375 68.359375 
L 44.921875 68.359375 
z
" id="SimHei-78"/>
      <path d="M 44.140625 1.5625 
L 36.328125 1.5625 
L 36.328125 9.765625 
Q 33.203125 5.46875 29.484375 3.125 
Q 25.78125 0.78125 19.921875 0.78125 
Q 12.890625 0.78125 9.375 4.6875 
Q 5.859375 8.59375 5.859375 14.453125 
L 5.859375 45.3125 
L 13.671875 45.3125 
L 13.671875 17.1875 
Q 13.671875 12.5 16.015625 9.765625 
Q 18.359375 7.03125 22.265625 7.03125 
Q 27.34375 7.03125 31.828125 12.296875 
Q 36.328125 17.578125 36.328125 25.390625 
L 36.328125 45.3125 
L 44.140625 45.3125 
z
" id="SimHei-117"/>
      <path d="M 48.046875 1.5625 
L 40.234375 1.5625 
L 40.234375 33.203125 
Q 40.234375 35.546875 39.453125 37.109375 
Q 38.671875 38.671875 36.328125 38.671875 
Q 33.59375 38.671875 31.25 35.734375 
Q 28.90625 32.8125 28.90625 28.125 
L 28.90625 1.5625 
L 21.09375 1.5625 
L 21.09375 33.203125 
Q 21.09375 35.546875 20.3125 37.109375 
Q 19.53125 38.671875 17.1875 38.671875 
Q 14.453125 38.671875 12.109375 35.734375 
Q 9.765625 32.8125 9.765625 28.125 
L 9.765625 1.5625 
L 1.953125 1.5625 
L 1.953125 45.3125 
L 9.765625 45.3125 
L 9.765625 39.453125 
Q 11.71875 42.578125 14.453125 44.328125 
Q 17.1875 46.09375 20.3125 46.09375 
Q 23.4375 46.09375 25.578125 44.328125 
Q 27.734375 42.578125 28.515625 39.453125 
Q 30.46875 42.578125 33 44.328125 
Q 35.546875 46.09375 38.671875 46.09375 
Q 43.359375 46.09375 45.703125 43.546875 
Q 48.046875 41.015625 48.046875 36.328125 
z
" id="SimHei-109"/>
      <path d="M 44.53125 23.4375 
Q 44.53125 12.109375 39.0625 6.4375 
Q 33.59375 0.78125 25.78125 0.78125 
Q 21.484375 0.78125 18.359375 2.34375 
Q 15.234375 3.90625 12.890625 7.421875 
L 12.890625 1.5625 
L 5.078125 1.5625 
L 5.078125 68.359375 
L 12.890625 68.359375 
L 12.890625 39.453125 
Q 15.234375 42.96875 18.359375 44.71875 
Q 21.484375 46.484375 25.78125 46.484375 
Q 33.59375 46.484375 39.0625 40.625 
Q 44.53125 34.765625 44.53125 23.4375 
z
M 35.9375 23.4375 
Q 35.9375 30.859375 33 35.15625 
Q 30.078125 39.453125 24.21875 39.453125 
Q 19.53125 39.453125 16.203125 35.15625 
Q 12.890625 30.859375 12.890625 23.4375 
Q 12.890625 16.015625 16.203125 11.90625 
Q 19.53125 7.8125 24.21875 7.8125 
Q 30.078125 7.8125 33 11.90625 
Q 35.9375 16.015625 35.9375 23.4375 
z
" id="SimHei-98"/>
      <path d="M 44.921875 16.40625 
Q 44.140625 9.375 38.671875 5.078125 
Q 33.203125 0.78125 25.78125 0.78125 
Q 16.40625 0.78125 10.34375 6.828125 
Q 4.296875 12.890625 4.296875 23.4375 
Q 4.296875 33.984375 10.34375 40.03125 
Q 16.40625 46.09375 25.78125 46.09375 
Q 33.984375 46.09375 39.25 40.8125 
Q 44.53125 35.546875 44.53125 23.4375 
L 12.890625 23.4375 
Q 12.890625 14.84375 16.59375 11.328125 
Q 20.3125 7.8125 25.78125 7.8125 
Q 30.078125 7.8125 32.8125 9.953125 
Q 35.546875 12.109375 36.328125 16.40625 
z
M 35.546875 29.6875 
Q 34.765625 35.15625 32.03125 37.296875 
Q 29.296875 39.453125 25 39.453125 
Q 21.09375 39.453125 17.96875 37.296875 
Q 14.84375 35.15625 13.28125 29.6875 
z
" id="SimHei-101"/>
      <path d="M 39.453125 37.5 
Q 32.03125 38.671875 26.953125 35.34375 
Q 21.875 32.03125 18.359375 23.828125 
L 18.359375 1.5625 
L 10.546875 1.5625 
L 10.546875 45.3125 
L 18.359375 45.3125 
L 18.359375 33.984375 
Q 21.875 40.234375 27.140625 43.15625 
Q 32.421875 46.09375 39.453125 46.09375 
z
" id="SimHei-114"/>
      <path id="SimHei-32"/>
      <path d="M 46.09375 23.4375 
Q 46.09375 13.28125 39.84375 7.03125 
Q 33.59375 0.78125 25 0.78125 
Q 16.40625 0.78125 10.15625 7.03125 
Q 3.90625 13.28125 3.90625 23.4375 
Q 3.90625 33.59375 10.15625 39.84375 
Q 16.40625 46.09375 25 46.09375 
Q 33.59375 46.09375 39.84375 39.84375 
Q 46.09375 33.59375 46.09375 23.4375 
z
M 37.5 23.4375 
Q 37.5 31.25 33.59375 35.15625 
Q 29.6875 39.0625 25 39.0625 
Q 20.3125 39.0625 16.40625 35.15625 
Q 12.5 31.25 12.5 23.4375 
Q 12.5 15.625 16.40625 11.71875 
Q 20.3125 7.8125 25 7.8125 
Q 29.6875 7.8125 33.59375 11.71875 
Q 37.5 15.625 37.5 23.4375 
z
" id="SimHei-111"/>
      <path d="M 44.921875 59.375 
Q 42.96875 60.546875 40.234375 61.328125 
Q 37.5 62.109375 33.203125 62.109375 
Q 28.90625 62.109375 27.34375 59.953125 
Q 25.78125 57.8125 25.78125 54.6875 
L 25.78125 45.3125 
L 41.796875 45.3125 
L 41.796875 39.0625 
L 25.78125 39.0625 
L 25.78125 1.5625 
L 17.96875 1.5625 
L 17.96875 39.0625 
L 4.6875 39.0625 
L 4.6875 45.3125 
L 17.96875 45.3125 
L 17.96875 54.296875 
Q 17.96875 61.328125 22.265625 65.234375 
Q 26.5625 69.140625 33.59375 69.140625 
Q 37.890625 69.140625 40.421875 68.546875 
Q 42.96875 67.96875 44.921875 67.1875 
z
" id="SimHei-102"/>
      <path d="M 44.921875 0.78125 
L 38.28125 0.78125 
L 37.109375 6.25 
Q 35.546875 3.90625 32.21875 2.34375 
Q 28.90625 0.78125 25 0.78125 
Q 16.796875 0.78125 10.34375 8.390625 
Q 3.90625 16.015625 3.90625 32.8125 
Q 3.90625 51.171875 9.765625 60.15625 
Q 15.625 69.140625 25.78125 69.140625 
Q 34.765625 69.140625 39.84375 62.5 
Q 44.921875 55.859375 44.921875 45.3125 
L 36.328125 45.3125 
Q 36.328125 53.515625 33.59375 57.609375 
Q 30.859375 61.71875 25.78125 61.71875 
Q 19.53125 61.71875 16.40625 55.265625 
Q 13.28125 48.828125 13.28125 33.59375 
Q 13.28125 19.140625 17.1875 13.671875 
Q 21.09375 8.203125 26.171875 8.203125 
Q 31.25 8.203125 34.171875 11.90625 
Q 37.109375 15.625 37.109375 23.4375 
L 37.109375 27.734375 
L 25 27.734375 
L 25 35.15625 
L 44.921875 35.15625 
z
" id="SimHei-71"/>
      <path d="M 44.140625 1.5625 
L 36.328125 1.5625 
L 36.328125 29.6875 
Q 36.328125 34.375 33.984375 37.109375 
Q 31.640625 39.84375 27.734375 39.84375 
Q 22.65625 39.84375 18.15625 34.5625 
Q 13.671875 29.296875 13.671875 21.484375 
L 13.671875 1.5625 
L 5.859375 1.5625 
L 5.859375 45.3125 
L 13.671875 45.3125 
L 13.671875 37.109375 
Q 16.796875 41.40625 20.5 43.75 
Q 24.21875 46.09375 30.078125 46.09375 
Q 37.109375 46.09375 40.625 42.1875 
Q 44.140625 38.28125 44.140625 32.421875 
z
" id="SimHei-110"/>
      <path d="M 45.3125 1.5625 
L 35.9375 1.5625 
Q 35.15625 2.34375 34.765625 3.703125 
Q 34.375 5.078125 34.375 7.03125 
Q 31.640625 3.90625 27.734375 2.34375 
Q 23.828125 0.78125 19.53125 0.78125 
Q 13.28125 0.78125 8.984375 3.90625 
Q 4.6875 7.03125 4.6875 12.890625 
Q 4.6875 18.75 8.59375 22.265625 
Q 12.5 25.78125 20.703125 26.953125 
Q 26.171875 27.734375 30.265625 28.90625 
Q 34.375 30.078125 34.375 32.03125 
Q 34.375 34.375 32.609375 36.71875 
Q 30.859375 39.0625 25 39.0625 
Q 20.3125 39.0625 18.15625 37.296875 
Q 16.015625 35.546875 15.234375 32.421875 
L 6.640625 32.421875 
Q 7.421875 38.671875 12.296875 42.375 
Q 17.1875 46.09375 25 46.09375 
Q 33.59375 46.09375 37.890625 42.1875 
Q 42.1875 38.28125 42.1875 31.25 
L 42.1875 9.765625 
Q 42.1875 7.421875 42.96875 5.46875 
Q 43.75 3.515625 45.3125 1.5625 
z
M 34.375 16.015625 
L 34.375 23.828125 
Q 32.03125 23.046875 29.875 22.453125 
Q 27.734375 21.875 22.65625 21.09375 
Q 16.796875 20.3125 15.03125 18.359375 
Q 13.28125 16.40625 13.28125 13.671875 
Q 13.28125 11.328125 15.03125 9.5625 
Q 16.796875 7.8125 20.3125 7.8125 
Q 23.828125 7.8125 27.921875 9.765625 
Q 32.03125 11.71875 34.375 16.015625 
z
" id="SimHei-97"/>
      <path d="M 43.359375 2.734375 
Q 41.40625 1.953125 38.859375 1.359375 
Q 36.328125 0.78125 32.03125 0.78125 
Q 25 0.78125 20.703125 4.6875 
Q 16.40625 8.59375 16.40625 15.625 
L 16.40625 39.0625 
L 3.125 39.0625 
L 3.125 45.3125 
L 16.40625 45.3125 
L 16.40625 60.546875 
L 24.21875 60.546875 
L 24.21875 45.3125 
L 40.234375 45.3125 
L 40.234375 39.0625 
L 24.21875 39.0625 
L 24.21875 15.234375 
Q 24.21875 12.109375 25.78125 9.953125 
Q 27.34375 7.8125 31.640625 7.8125 
Q 35.9375 7.8125 38.671875 8.59375 
Q 41.40625 9.375 43.359375 10.546875 
z
" id="SimHei-116"/>
      <path d="M 28.515625 57.8125 
L 20.703125 57.8125 
L 20.703125 67.96875 
L 28.515625 67.96875 
z
M 28.515625 1.5625 
L 20.703125 1.5625 
L 20.703125 45.3125 
L 28.515625 45.3125 
z
" id="SimHei-105"/>
     </defs>
     <g transform="translate(184.885 299.272937)scale(0.1 -0.1)">
      <use xlink:href="#SimHei-78"/>
      <use x="50" xlink:href="#SimHei-117"/>
      <use x="100" xlink:href="#SimHei-109"/>
      <use x="150" xlink:href="#SimHei-98"/>
      <use x="200" xlink:href="#SimHei-101"/>
      <use x="250" xlink:href="#SimHei-114"/>
      <use x="300" xlink:href="#SimHei-32"/>
      <use x="350" xlink:href="#SimHei-111"/>
      <use x="400" xlink:href="#SimHei-102"/>
      <use x="450" xlink:href="#SimHei-32"/>
      <use x="500" xlink:href="#SimHei-71"/>
      <use x="550" xlink:href="#SimHei-101"/>
      <use x="600" xlink:href="#SimHei-110"/>
      <use x="650" xlink:href="#SimHei-101"/>
      <use x="700" xlink:href="#SimHei-114"/>
      <use x="750" xlink:href="#SimHei-97"/>
      <use x="800" xlink:href="#SimHei-116"/>
      <use x="850" xlink:href="#SimHei-105"/>
      <use x="900" xlink:href="#SimHei-111"/>
      <use x="950" xlink:href="#SimHei-110"/>
     </g>
    </g>
   </g>
   <g id="matplotlib.axis_2">
    <g id="ytick_1">
     <g id="line2d_7">
      <defs>
       <path d="M 0 0 
L -3.5 0 
" id="mef8dbb7565" style="stroke:#000000;stroke-width:0.8;"/>
      </defs>
      <g>
       <use style="stroke:#000000;stroke-width:0.8;" x="56.325" xlink:href="#mef8dbb7565" y="240.3504"/>
      </g>
     </g>
     <g id="text_8">
      <!-- -30000 -->
      <defs>
       <path d="M 46.875 32.8125 
L 2.34375 32.8125 
L 2.34375 39.0625 
L 46.875 39.0625 
z
" id="SimHei-45"/>
       <path d="M 44.140625 20.3125 
Q 44.140625 11.328125 38.46875 6.046875 
Q 32.8125 0.78125 24.21875 0.78125 
Q 15.625 0.78125 9.953125 6.046875 
Q 4.296875 11.328125 4.296875 22.265625 
L 13.28125 22.265625 
Q 13.28125 14.84375 16.203125 11.515625 
Q 19.140625 8.203125 24.21875 8.203125 
Q 29.296875 8.203125 32.03125 11.328125 
Q 34.765625 14.453125 34.765625 21.09375 
Q 34.765625 26.5625 31.828125 29.6875 
Q 28.90625 32.8125 21.484375 32.8125 
L 21.484375 39.453125 
Q 27.734375 39.453125 30.65625 42.578125 
Q 33.59375 45.703125 33.59375 51.953125 
Q 33.59375 56.640625 31.4375 59.375 
Q 29.296875 62.109375 24.609375 62.109375 
Q 19.921875 62.109375 17.375 58.78125 
Q 14.84375 55.46875 14.453125 49.21875 
L 5.859375 49.21875 
Q 6.640625 58.203125 11.515625 63.671875 
Q 16.40625 69.140625 24.609375 69.140625 
Q 33.203125 69.140625 37.890625 64.25 
Q 42.578125 59.375 42.578125 52.34375 
Q 42.578125 45.703125 40.234375 41.984375 
Q 37.890625 38.28125 32.421875 36.328125 
Q 37.890625 35.15625 41.015625 30.859375 
Q 44.140625 26.5625 44.140625 20.3125 
z
" id="SimHei-51"/>
      </defs>
      <g transform="translate(19.325 243.768369)scale(0.1 -0.1)">
       <use xlink:href="#SimHei-45"/>
       <use x="50" xlink:href="#SimHei-51"/>
       <use x="100" xlink:href="#SimHei-48"/>
       <use x="150" xlink:href="#SimHei-48"/>
       <use x="200" xlink:href="#SimHei-48"/>
       <use x="250" xlink:href="#SimHei-48"/>
      </g>
     </g>
    </g>
    <g id="ytick_2">
     <g id="line2d_8">
      <g>
       <use style="stroke:#000000;stroke-width:0.8;" x="56.325" xlink:href="#mef8dbb7565" y="188.241663"/>
      </g>
     </g>
     <g id="text_9">
      <!-- -20000 -->
      <g transform="translate(19.325 191.659632)scale(0.1 -0.1)">
       <use xlink:href="#SimHei-45"/>
       <use x="50" xlink:href="#SimHei-50"/>
       <use x="100" xlink:href="#SimHei-48"/>
       <use x="150" xlink:href="#SimHei-48"/>
       <use x="200" xlink:href="#SimHei-48"/>
       <use x="250" xlink:href="#SimHei-48"/>
      </g>
     </g>
    </g>
    <g id="ytick_3">
     <g id="line2d_9">
      <g>
       <use style="stroke:#000000;stroke-width:0.8;" x="56.325" xlink:href="#mef8dbb7565" y="136.132927"/>
      </g>
     </g>
     <g id="text_10">
      <!-- -10000 -->
      <g transform="translate(19.325 139.550896)scale(0.1 -0.1)">
       <use xlink:href="#SimHei-45"/>
       <use x="50" xlink:href="#SimHei-49"/>
       <use x="100" xlink:href="#SimHei-48"/>
       <use x="150" xlink:href="#SimHei-48"/>
       <use x="200" xlink:href="#SimHei-48"/>
       <use x="250" xlink:href="#SimHei-48"/>
      </g>
     </g>
    </g>
    <g id="ytick_4">
     <g id="line2d_10">
      <g>
       <use style="stroke:#000000;stroke-width:0.8;" x="56.325" xlink:href="#mef8dbb7565" y="84.024191"/>
      </g>
     </g>
     <g id="text_11">
      <!-- 0 -->
      <g transform="translate(44.325 87.44216)scale(0.1 -0.1)">
       <use xlink:href="#SimHei-48"/>
      </g>
     </g>
    </g>
    <g id="ytick_5">
     <g id="line2d_11">
      <g>
       <use style="stroke:#000000;stroke-width:0.8;" x="56.325" xlink:href="#mef8dbb7565" y="31.915454"/>
      </g>
     </g>
     <g id="text_12">
      <!-- 10000 -->
      <g transform="translate(24.325 35.333423)scale(0.1 -0.1)">
       <use xlink:href="#SimHei-49"/>
       <use x="50" xlink:href="#SimHei-48"/>
       <use x="100" xlink:href="#SimHei-48"/>
       <use x="150" xlink:href="#SimHei-48"/>
       <use x="200" xlink:href="#SimHei-48"/>
      </g>
     </g>
    </g>
    <g id="text_13">
     <!-- Value -->
     <defs>
      <path d="M 48.046875 68.359375 
L 28.515625 0.78125 
L 20.703125 0.78125 
L 1.171875 68.359375 
L 10.546875 68.359375 
L 24.21875 17.1875 
L 25 17.1875 
L 38.671875 68.359375 
z
" id="SimHei-86"/>
      <path d="M 28.90625 1.5625 
L 21.09375 1.5625 
L 21.09375 68.359375 
L 28.90625 68.359375 
z
" id="SimHei-108"/>
     </defs>
     <g transform="translate(14.035938 152.756)rotate(-90)scale(0.1 -0.1)">
      <use xlink:href="#SimHei-86"/>
      <use x="50" xlink:href="#SimHei-97"/>
      <use x="100" xlink:href="#SimHei-108"/>
      <use x="150" xlink:href="#SimHei-117"/>
      <use x="200" xlink:href="#SimHei-101"/>
     </g>
    </g>
   </g>
   <g id="line2d_12">
    <path clip-path="url(#p96402081e1)" d="M 72.557727 19.296 
L 72.752539 26.106732 
L 73.401914 28.843001 
L 73.466851 28.885689 
L 73.726601 29.68602 
L 74.148694 30.33175 
L 74.311037 30.644468 
L 74.375975 30.644468 
L 74.538318 30.925966 
L 74.635724 30.95767 
L 74.863005 31.372936 
L 75.025349 31.48227 
L 75.317567 32.151569 
L 75.47991 32.423047 
L 75.642254 32.488681 
L 76.161753 33.248039 
L 76.421503 33.308611 
L 76.583846 33.520467 
L 76.908533 33.541383 
L 77.038408 33.885953 
L 77.395564 33.978103 
L 77.525439 34.117778 
L 77.720251 34.1958 
L 77.850126 34.298567 
L 77.947532 34.373269 
L 78.077407 34.550644 
L 78.369625 34.550644 
L 78.4995 34.883094 
L 78.694312 34.979974 
L 78.921593 35.335069 
L 79.148874 35.413756 
L 79.376155 36.056854 
L 79.99306 36.065854 
L 80.122935 36.183932 
L 80.350216 36.263128 
L 80.869715 36.680524 
L 81.324277 36.749318 
L 81.454151 36.83461 
L 82.363275 36.923596 
L 82.525619 36.960632 
L 83.077587 37.039699 
L 83.402274 37.440092 
L 83.791898 37.486727 
L 83.921773 37.587812 
L 84.084116 37.587812 
L 84.213991 37.700032 
L 85.123115 37.777161 
L 85.25299 37.933113 
L 85.415333 37.969897 
L 86.324457 38.044199 
L 86.4868 38.381884 
L 87.201112 38.481167 
L 87.330986 38.567062 
L 87.75308 38.58004 
L 87.98036 38.58004 
L 88.110235 38.804298 
L 89.24664 38.906273 
L 89.506389 39.236156 
L 90.577857 39.315486 
L 90.7402 39.349422 
L 93.337696 39.446941 
L 93.467571 39.51098 
L 93.954602 39.566465 
L 94.084476 39.72926 
L 94.701382 39.78713 
L 94.831256 39.842192 
L 95.610505 39.941886 
L 95.837786 39.991008 
L 98.272939 40.025092 
L 98.402814 40.105143 
L 99.863905 40.14665 
L 99.99378 40.225597 
L 100.935372 40.302225 
L 101.065247 40.363579 
L 102.656213 40.451845 
L 102.883494 40.762752 
L 104.377055 40.865663 
L 104.636804 40.881827 
L 105.091366 40.951647 
L 105.221241 41.048186 
L 105.383584 41.048186 
L 105.513459 41.238952 
L 106.974551 41.345413 
L 107.169363 41.439605 
L 107.591456 41.543702 
L 107.7538 41.809881 
L 110.383764 41.849804 
L 110.546108 41.980511 
L 111.098076 42.003001 
L 111.227951 42.163831 
L 111.520169 42.266358 
L 111.650044 42.495184 
L 111.909793 42.510558 
L 112.266949 42.574978 
L 112.429293 42.62526 
L 114.052728 42.735409 
L 114.24754 42.761888 
L 115.059257 42.865835 
L 115.286538 42.953651 
L 117.202192 43.052241 
L 117.364535 43.092887 
L 117.851566 43.174322 
L 117.981441 43.329447 
L 122.299778 43.439265 
L 122.429653 43.528544 
L 123.273839 43.609275 
L 123.403714 43.798113 
L 124.572587 43.899699 
L 124.702462 43.919954 
L 124.832337 44.960257 
L 126.553178 44.982175 
L 126.683053 45.171674 
L 131.910513 45.262976 
L 132.137794 45.285229 
L 132.981981 45.285229 
L 133.111855 45.475481 
L 133.209262 45.475481 
L 133.339136 45.6687 
L 149.183863 45.769894 
L 149.313737 45.907882 
L 152.625545 45.997809 
L 152.75542 46.075842 
L 158.372505 46.151319 
L 158.534849 46.204556 
L 162.171343 46.31433 
L 162.398624 46.333248 
L 162.983061 46.333248 
L 163.112936 46.457767 
L 167.75596 46.550254 
L 168.145584 46.760183 
L 170.418393 46.760399 
L 170.548268 46.877701 
L 171.879485 46.910618 
L 172.00936 47.048192 
L 175.321167 47.120836 
L 175.451042 47.205692 
L 181.490221 47.296027 
L 181.652564 47.328398 
L 184.737091 47.365522 
L 184.866965 47.46571 
L 189.704802 47.46571 
L 189.834677 47.740343 
L 193.114016 47.763117 
L 193.24389 47.922295 
L 194.282889 48.01765 
L 194.412764 48.07993 
L 197.205072 48.106072 
L 197.334947 48.216087 
L 199.055788 48.216087 
L 199.185663 48.34304 
L 199.835037 48.41942 
L 199.964912 48.499141 
L 200.971441 48.53457 
L 201.101316 48.66444 
L 201.458472 48.754049 
L 201.588347 48.963934 
L 203.536469 49.039928 
L 203.698812 49.293165 
L 207.952212 49.399242 
L 208.24443 49.531528 
L 209.283429 49.631436 
L 209.445772 49.668349 
L 211.556238 49.759421 
L 211.718582 49.81263 
L 215.192733 49.850753 
L 215.322607 50.001998 
L 220.322787 50.06775 
L 220.452662 50.157769 
L 220.679943 50.157769 
L 220.809818 50.282226 
L 224.056688 50.305878 
L 224.186563 50.404975 
L 224.803468 50.404975 
L 224.933343 50.5486 
L 231.26474 50.655016 
L 231.394615 50.796379 
L 235.680483 50.877471 
L 235.810358 51.099998 
L 239.057228 51.1536 
L 239.187103 51.217611 
L 241.070288 51.295364 
L 241.200162 51.365309 
L 241.2651 51.365309 
L 241.394975 51.478749 
L 241.687193 51.494046 
L 244.25222 51.604447 
L 244.804188 51.742349 
L 248.667964 51.816223 
L 248.797839 51.877255 
L 251.720022 51.931618 
L 251.882365 52.027729 
L 255.356516 52.027729 
L 255.486391 52.177278 
L 257.337107 52.237675 
L 257.466982 52.318234 
L 260.291759 52.398478 
L 260.454102 52.438076 
L 264.350347 52.508846 
L 264.480221 52.61474 
L 266.493281 52.704274 
L 266.655624 52.753105 
L 267.01278 52.842066 
L 267.142655 52.927952 
L 267.986841 52.96602 
L 268.116716 53.130525 
L 268.895965 53.167436 
L 269.02584 53.255937 
L 272.305178 53.361252 
L 272.467522 53.404402 
L 274.902674 53.455853 
L 275.032549 53.558146 
L 276.591047 53.663972 
L 277.045609 53.672704 
L 279.091137 53.695793 
L 279.221012 53.788703 
L 279.902855 53.788703 
L 280.065198 54.232865 
L 280.617166 54.329569 
L 280.779509 54.380008 
L 282.402945 54.421353 
L 282.532819 54.503102 
L 283.831567 54.548515 
L 283.961442 54.688315 
L 284.935503 54.738943 
L 285.065378 54.858183 
L 285.812158 54.858183 
L 285.942033 54.978331 
L 287.825218 55.074963 
L 287.955092 55.130565 
L 288.669404 55.234984 
L 288.799279 55.393408 
L 289.870746 55.523532 
L 290.000621 55.609875 
L 291.2669 55.67873 
L 291.396775 55.741082 
L 294.221552 55.828591 
L 294.351427 55.890592 
L 295.357956 55.937433 
L 295.487831 56.010689 
L 296.234611 56.081819 
L 296.429424 56.208846 
L 297.143735 56.316513 
L 298.117796 56.413779 
L 298.28014 56.460786 
L 298.410014 56.55852 
L 299.384075 56.656988 
L 299.51395 56.899356 
L 301.332197 57.086695 
L 302.436133 57.184514 
L 302.566008 57.252619 
L 305.228442 57.302792 
L 305.358316 57.397487 
L 305.715472 57.46944 
L 305.845347 57.583712 
L 306.949283 57.646122 
L 307.079158 57.846019 
L 307.566188 57.862702 
L 307.696063 58.001833 
L 308.118156 58.053271 
L 308.248031 58.162812 
L 309.222092 58.252821 
L 309.351967 58.344802 
L 309.741591 58.36522 
L 309.871466 58.623826 
L 310.553309 58.731962 
L 310.715652 58.777271 
L 310.813058 58.862096 
L 311.00787 58.976142 
L 311.462432 59.071297 
L 311.592307 59.209838 
L 312.923524 59.313148 
L 313.053399 59.696863 
L 313.605367 59.806706 
L 313.832647 59.825644 
L 314.417084 59.825644 
L 314.546959 87.025665 
L 316.040519 87.129713 
L 316.170394 87.219517 
L 318.345797 87.219517 
L 318.475672 87.36564 
L 320.001701 87.436506 
L 320.164044 87.484771 
L 322.988821 87.484771 
L 323.118696 87.7788 
L 324.579788 87.866787 
L 324.709662 87.929044 
L 327.437033 87.96073 
L 327.566908 88.051784 
L 329.092937 88.051784 
L 329.222812 88.264115 
L 347.048129 88.363262 
L 347.113066 88.61158 
L 347.242941 94.421411 
L 347.27541 94.421411 
L 347.405285 94.579195 
L 360.912265 94.684524 
L 361.107077 94.711077 
L 376.205023 94.774413 
L 376.334898 94.851223 
L 390.361377 94.851223 
L 390.491252 95.909062 
L 397.212273 95.925359 
L 397.212273 95.925359 
" style="fill:none;stroke:#1f77b4;stroke-linecap:square;stroke-width:1.5;"/>
   </g>
   <g id="line2d_13">
    <path clip-path="url(#p96402081e1)" d="M 72.557727 30.458764 
L 72.590196 30.679492 
L 72.720071 34.798576 
L 74.148694 34.798576 
L 74.278568 36.215331 
L 74.700662 36.215331 
L 74.830536 36.711243 
L 76.064347 36.711243 
L 76.194222 37.234538 
L 76.908533 37.234538 
L 77.038408 40.003968 
L 79.181342 40.003968 
L 79.311217 41.82871 
L 83.272399 41.82871 
L 83.402274 43.597462 
L 84.928303 43.597462 
L 85.058177 43.791862 
L 87.98036 43.791862 
L 88.110235 47.088787 
L 89.279109 47.088787 
L 89.408983 47.625124 
L 123.273839 47.625124 
L 123.403714 47.983303 
L 124.702462 47.983303 
L 124.832337 52.692805 
L 199.055788 52.692805 
L 199.185663 53.270259 
L 203.536469 53.270259 
L 203.666344 53.578647 
L 210.614646 53.578647 
L 210.74452 53.916994 
L 224.803468 53.916994 
L 224.933343 54.41539 
L 239.544259 54.41539 
L 239.674133 54.619925 
L 241.2651 54.619925 
L 241.394975 55.365872 
L 251.720022 55.365872 
L 251.849896 57.37137 
L 266.493281 57.37137 
L 266.623156 57.614631 
L 279.967792 57.614631 
L 280.097667 64.024063 
L 314.417084 64.024063 
L 314.546959 261.216 
L 397.212273 261.216 
L 397.212273 261.216 
" style="fill:none;stroke:#ff7f0e;stroke-linecap:square;stroke-width:1.5;"/>
   </g>
   <g id="patch_3">
    <path d="M 56.325 273.312 
L 56.325 7.2 
" style="fill:none;stroke:#000000;stroke-linecap:square;stroke-linejoin:miter;stroke-width:0.8;"/>
   </g>
   <g id="patch_4">
    <path d="M 413.445 273.312 
L 413.445 7.2 
" style="fill:none;stroke:#000000;stroke-linecap:square;stroke-linejoin:miter;stroke-width:0.8;"/>
   </g>
   <g id="patch_5">
    <path d="M 56.325 273.312 
L 413.445 273.312 
" style="fill:none;stroke:#000000;stroke-linecap:square;stroke-linejoin:miter;stroke-width:0.8;"/>
   </g>
   <g id="patch_6">
    <path d="M 56.325 7.2 
L 413.445 7.2 
" style="fill:none;stroke:#000000;stroke-linecap:square;stroke-linejoin:miter;stroke-width:0.8;"/>
   </g>
   <g id="legend_1">
    <g id="patch_7">
     <path d="M 264.445 43.559375 
L 406.445 43.559375 
Q 408.445 43.559375 408.445 41.559375 
L 408.445 14.2 
Q 408.445 12.2 406.445 12.2 
L 264.445 12.2 
Q 262.445 12.2 262.445 14.2 
L 262.445 41.559375 
Q 262.445 43.559375 264.445 43.559375 
z
" style="fill:#ffffff;opacity:0.8;stroke:#cccccc;stroke-linejoin:miter;"/>
    </g>
    <g id="line2d_14">
     <path d="M 266.445 20.590625 
L 286.445 20.590625 
" style="fill:none;stroke:#1f77b4;stroke-linecap:square;stroke-width:1.5;"/>
    </g>
    <g id="line2d_15"/>
    <g id="text_14">
     <!-- 种群个体平均目标函数值 -->
     <defs>
      <path d="M 14.0625 42.96875 
Q 9.765625 42.96875 6.25 42.578125 
L 6.25 49.609375 
Q 12.109375 49.21875 18.75 49.21875 
L 21.875 49.21875 
L 21.875 65.234375 
Q 17.96875 64.0625 8.984375 62.109375 
Q 7.421875 65.625 5.46875 69.53125 
Q 13.671875 69.921875 21.671875 71.875 
Q 29.6875 73.828125 36.328125 77.34375 
Q 38.28125 74.21875 41.796875 69.53125 
Q 37.890625 68.75 35.34375 68.15625 
Q 32.8125 67.578125 29.296875 66.796875 
L 29.296875 49.21875 
Q 34.375 49.21875 41.40625 49.609375 
L 41.40625 42.578125 
Q 34.375 42.96875 29.296875 42.96875 
L 29.296875 3.90625 
Q 29.296875 -1.171875 29.6875 -8.984375 
L 21.484375 -8.984375 
Q 21.875 -1.171875 21.875 3.90625 
L 21.875 28.515625 
Q 18.75 21.09375 16.203125 16.59375 
Q 13.671875 12.109375 9.765625 5.859375 
Q 6.640625 10.15625 3.90625 13.28125 
Q 9.375 19.140625 13.671875 26.5625 
Q 17.96875 33.984375 19.921875 42.96875 
z
M 29.296875 33.984375 
Q 31.640625 35.546875 35.546875 37.5 
Q 36.71875 35.15625 38.46875 32.421875 
Q 40.234375 29.6875 42.578125 25 
Q 39.0625 23.4375 36.328125 21.09375 
Q 34.375 25.390625 33 28.125 
Q 31.640625 30.859375 29.296875 33.984375 
z
M 72.265625 54.6875 
L 72.265625 28.125 
L 84.375 28.125 
L 84.375 54.6875 
z
M 44.921875 60.9375 
L 64.84375 60.9375 
Q 64.84375 75.390625 64.453125 79.6875 
L 72.65625 79.6875 
Q 72.265625 75.78125 72.265625 60.9375 
L 92.1875 60.9375 
Q 91.796875 56.640625 91.796875 49.609375 
L 91.796875 23.828125 
Q 91.796875 19.921875 92.1875 14.453125 
L 84.375 14.453125 
L 84.375 21.875 
L 72.265625 21.875 
L 72.265625 6.25 
Q 72.265625 -3.515625 72.65625 -9.765625 
L 64.453125 -9.765625 
Q 64.84375 -3.515625 64.84375 6.25 
L 64.84375 21.875 
L 52.734375 21.875 
L 52.734375 12.890625 
L 44.921875 12.890625 
Q 45.3125 17.578125 45.3125 23.046875 
L 45.3125 48.828125 
Q 45.3125 56.640625 44.921875 60.9375 
z
M 52.734375 54.6875 
L 52.734375 28.125 
L 64.84375 28.125 
L 64.84375 54.6875 
z
" id="SimHei-31181"/>
      <path d="M 23.4375 21.09375 
L 23.4375 5.859375 
L 39.0625 5.859375 
L 39.0625 21.09375 
z
M 46.09375 26.5625 
Q 45.703125 22.265625 45.703125 10.546875 
Q 45.703125 -1.171875 46.09375 -6.25 
L 39.0625 -6.25 
L 39.0625 0.390625 
L 23.4375 0.390625 
L 23.4375 -8.984375 
L 16.40625 -8.984375 
Q 16.796875 -3.125 16.796875 22.65625 
Q 13.28125 17.1875 10.15625 13.28125 
Q 7.8125 16.40625 3.90625 17.578125 
Q 8.203125 21.484375 11.90625 26.75 
Q 15.625 32.03125 17.1875 36.71875 
Q 13.671875 36.71875 9.375 36.328125 
L 9.375 42.578125 
Q 14.453125 42.1875 18.359375 42.1875 
Q 19.53125 48.046875 19.53125 52.734375 
Q 11.328125 52.734375 6.640625 52.34375 
L 6.640625 58.59375 
Q 11.71875 58.203125 19.53125 58.203125 
L 19.53125 69.53125 
Q 16.796875 69.53125 10.9375 69.140625 
L 10.9375 75.390625 
Q 16.40625 75 20.3125 75 
L 46.09375 75 
Q 45.703125 69.921875 45.703125 58.203125 
Q 48.046875 58.203125 51.5625 58.59375 
L 51.5625 52.34375 
Q 48.046875 52.734375 45.703125 52.734375 
Q 45.703125 41.40625 46.09375 36.71875 
L 23.828125 36.71875 
Q 21.484375 29.6875 19.53125 26.5625 
z
M 25.78125 69.53125 
L 25.78125 58.203125 
L 39.0625 58.203125 
L 39.0625 69.53125 
z
M 25.78125 52.734375 
Q 25.390625 48.046875 24.609375 42.1875 
L 39.0625 42.1875 
L 39.0625 52.734375 
z
M 68.75 68.359375 
Q 65.234375 66.796875 62.890625 64.84375 
Q 59.765625 70.703125 55.859375 76.171875 
Q 58.984375 77.34375 61.71875 79.6875 
Q 64.453125 75 68.75 68.359375 
z
M 91.40625 34.765625 
Q 86.328125 35.15625 75.78125 35.15625 
L 75.78125 19.921875 
Q 90.625 19.921875 94.53125 20.3125 
L 94.53125 14.0625 
Q 90.625 14.453125 75.78125 14.453125 
L 75.78125 3.515625 
Q 75.78125 -3.125 76.171875 -10.546875 
L 68.75 -10.546875 
Q 69.140625 -3.125 69.140625 3.515625 
L 69.140625 14.453125 
Q 55.859375 14.453125 50.390625 14.0625 
L 50.390625 20.3125 
Q 55.859375 19.921875 69.140625 19.921875 
L 69.140625 35.15625 
Q 57.8125 35.15625 53.515625 34.765625 
L 53.515625 41.015625 
Q 58.203125 40.625 69.140625 40.625 
L 69.140625 54.6875 
Q 60.9375 54.6875 54.6875 54.296875 
L 54.6875 60.546875 
Q 60.9375 60.15625 74.21875 60.15625 
Q 79.296875 69.921875 81.640625 80.078125 
Q 86.328125 78.125 91.015625 76.953125 
Q 88.671875 75 86.328125 70.890625 
Q 83.984375 66.796875 80.859375 60.15625 
Q 87.5 60.15625 92.578125 60.546875 
L 92.578125 54.296875 
Q 87.890625 54.6875 75.78125 54.6875 
L 75.78125 40.625 
L 81.640625 40.625 
L 91.40625 41.015625 
z
" id="SimHei-32676"/>
      <path d="M 56.25 77.734375 
Q 54.6875 76.171875 53.125 74.21875 
Q 67.96875 50.390625 95.3125 43.75 
Q 89.84375 37.890625 89.0625 33.984375 
Q 64.453125 44.140625 48.4375 67.96875 
Q 36.328125 46.484375 12.109375 32.8125 
Q 10.15625 36.71875 5.078125 40.625 
Q 22.65625 48.4375 32.609375 60.15625 
Q 42.578125 71.875 45.3125 81.25 
Q 50.78125 78.90625 56.25 77.734375 
z
M 44.921875 -10.15625 
Q 45.703125 -0.78125 45.703125 7.421875 
L 45.703125 35.15625 
Q 45.703125 41.40625 44.921875 50 
L 54.296875 50 
Q 53.515625 44.140625 53.515625 34.765625 
L 53.515625 7.8125 
Q 53.515625 -1.171875 54.296875 -10.15625 
z
" id="SimHei-20010"/>
      <path d="M 30.859375 60.15625 
Q 35.546875 59.765625 41.796875 59.765625 
L 57.03125 59.765625 
Q 57.03125 73.828125 56.640625 79.6875 
L 64.453125 79.6875 
Q 64.0625 74.21875 64.0625 59.765625 
L 81.25 59.765625 
Q 89.0625 59.765625 92.578125 60.15625 
L 92.578125 53.125 
Q 89.0625 53.515625 81.640625 53.515625 
L 69.921875 53.515625 
Q 75.390625 27.734375 96.484375 13.671875 
Q 92.1875 11.328125 90.234375 7.03125 
Q 69.140625 23.046875 64.0625 53.125 
L 64.0625 14.84375 
Q 73.828125 14.84375 77.34375 15.234375 
L 77.34375 8.203125 
Q 73.828125 8.59375 64.0625 8.59375 
Q 64.0625 0.78125 64.453125 -9.375 
L 56.640625 -9.375 
Q 57.03125 1.171875 57.03125 8.59375 
Q 51.5625 8.59375 43.75 8.203125 
L 43.75 15.234375 
Q 51.5625 14.84375 57.03125 14.84375 
L 57.03125 53.515625 
L 56.640625 53.515625 
Q 50.390625 22.65625 32.03125 5.859375 
Q 29.6875 9.375 25.390625 11.328125 
Q 43.75 25.390625 49.609375 53.515625 
L 41.796875 53.515625 
Q 35.546875 53.515625 30.859375 53.125 
z
M 22.265625 79.6875 
Q 26.5625 77.734375 31.25 76.171875 
Q 28.515625 72.65625 23.828125 58.59375 
L 23.828125 8.59375 
Q 23.828125 -3.515625 24.21875 -8.984375 
L 16.40625 -8.984375 
Q 16.796875 -3.90625 16.796875 8.203125 
L 16.796875 44.921875 
Q 14.84375 40.625 8.984375 31.640625 
Q 7.03125 35.15625 3.515625 37.5 
Q 8.203125 42.1875 14.453125 56.046875 
Q 20.703125 69.921875 22.265625 79.6875 
z
" id="SimHei-20307"/>
      <path d="M 14.453125 78.125 
Q 22.265625 77.734375 28.125 77.734375 
L 70.703125 77.734375 
Q 76.953125 77.734375 85.15625 78.125 
L 85.15625 70.703125 
Q 77.34375 71.09375 70.703125 71.09375 
L 54.6875 71.09375 
L 54.6875 31.25 
L 78.90625 31.25 
Q 87.109375 31.25 94.140625 31.640625 
L 94.140625 24.21875 
Q 87.109375 24.609375 78.90625 24.609375 
L 54.6875 24.609375 
L 54.6875 5.859375 
Q 54.6875 -1.171875 55.078125 -10.15625 
L 46.484375 -10.15625 
Q 46.875 -1.171875 46.875 5.859375 
L 46.875 24.609375 
L 18.359375 24.609375 
Q 12.890625 24.609375 6.640625 24.21875 
L 6.640625 31.640625 
Q 12.890625 31.25 18.75 31.25 
L 46.875 31.25 
L 46.875 71.09375 
L 28.515625 71.09375 
Q 22.265625 71.09375 14.453125 70.703125 
z
M 35.546875 42.96875 
Q 31.640625 41.796875 28.125 39.453125 
Q 25.390625 48.828125 19.53125 58.203125 
Q 23.046875 59.375 26.171875 61.71875 
Q 32.03125 51.5625 35.546875 42.96875 
z
M 71.09375 37.890625 
Q 67.578125 40.234375 63.671875 41.40625 
Q 70.703125 51.5625 74.21875 62.5 
Q 78.125 60.15625 82.8125 58.59375 
Q 76.953125 49.609375 71.09375 37.890625 
z
" id="SimHei-24179"/>
      <path d="M 91.015625 62.5 
L 88.28125 5.078125 
Q 88.28125 -3.90625 81.828125 -5.65625 
Q 75.390625 -7.421875 67.578125 -7.8125 
Q 66.796875 -3.125 64.84375 1.171875 
Q 75.390625 0.390625 78.125 1.75 
Q 80.859375 3.125 80.859375 8.203125 
L 83.203125 55.859375 
L 55.859375 55.859375 
Q 53.515625 51.171875 50.96875 46.484375 
Q 48.4375 41.796875 44.921875 36.71875 
Q 41.40625 39.0625 37.5 40.625 
Q 41.40625 44.921875 44.328125 49.796875 
Q 47.265625 54.6875 49.21875 59.765625 
Q 51.171875 64.84375 52.53125 69.71875 
Q 53.90625 74.609375 54.6875 78.515625 
Q 59.375 76.953125 64.84375 75.78125 
Q 63.28125 73.4375 61.71875 70.3125 
Q 60.15625 67.1875 58.59375 62.5 
z
M 54.296875 42.578125 
Q 57.03125 44.53125 60.15625 46.484375 
Q 64.0625 41.796875 68.75 33.203125 
Q 64.84375 31.25 62.109375 29.296875 
Q 59.765625 34.765625 54.296875 42.578125 
z
M 75.78125 28.515625 
Q 76.171875 25 77.34375 21.484375 
Q 72.65625 19.53125 63.859375 16.203125 
Q 55.078125 12.890625 46.484375 8.59375 
Q 45.3125 13.28125 43.359375 17.1875 
Q 54.296875 19.921875 58.78125 21.484375 
Q 63.28125 23.046875 75.78125 28.515625 
z
M 7.03125 55.46875 
Q 12.890625 55.078125 16.796875 55.078125 
L 19.140625 55.078125 
L 19.140625 66.796875 
Q 19.140625 72.65625 18.75 77.34375 
L 26.953125 77.34375 
Q 26.5625 71.875 26.5625 66.796875 
L 26.5625 55.078125 
L 28.90625 55.078125 
Q 33.59375 55.078125 38.671875 55.46875 
L 38.671875 48.046875 
Q 33.59375 48.4375 28.90625 48.4375 
L 26.5625 48.4375 
L 26.5625 17.1875 
L 38.28125 21.09375 
Q 37.890625 17.578125 38.671875 14.0625 
Q 18.75 7.421875 14.640625 5.859375 
Q 10.546875 4.296875 7.03125 2.734375 
Q 5.46875 7.421875 3.515625 11.71875 
Q 8.59375 12.5 12.109375 13.28125 
Q 15.625 14.0625 19.140625 15.234375 
L 19.140625 48.4375 
L 17.1875 48.4375 
Q 12.890625 48.4375 7.03125 48.046875 
z
" id="SimHei-22343"/>
      <path d="M 28.125 46.09375 
L 28.125 28.125 
L 73.828125 28.125 
L 73.828125 46.09375 
z
M 28.125 22.265625 
L 28.125 3.515625 
L 73.828125 3.515625 
L 73.828125 22.265625 
z
M 28.125 69.140625 
L 28.125 51.953125 
L 73.828125 51.953125 
L 73.828125 69.140625 
z
M 19.53125 75 
L 81.640625 75 
Q 81.25 64.0625 81.25 53.90625 
L 81.25 8.203125 
Q 81.25 2.34375 81.640625 -9.765625 
L 73.828125 -9.765625 
L 73.828125 -2.34375 
L 28.125 -2.34375 
L 28.125 -9.375 
L 19.921875 -9.375 
Q 20.703125 1.171875 20.703125 7.421875 
L 20.703125 53.90625 
Q 20.3125 65.234375 19.53125 75 
z
" id="SimHei-30446"/>
      <path d="M 5.078125 59.375 
Q 10.9375 58.59375 18.359375 58.984375 
L 18.359375 68.359375 
Q 18.359375 74.609375 17.96875 80.46875 
L 26.171875 80.46875 
Q 25.390625 75 25.390625 68.359375 
L 25.390625 58.984375 
Q 31.640625 58.984375 39.453125 59.375 
L 39.453125 51.5625 
Q 31.640625 52.34375 25.390625 52.34375 
L 25.390625 35.546875 
Q 28.90625 37.5 31.640625 39.453125 
Q 35.9375 33.203125 40.625 25.78125 
Q 36.328125 23.828125 33.203125 21.484375 
Q 30.078125 28.90625 25.390625 35.546875 
L 25.390625 7.03125 
Q 25.390625 -1.171875 25.78125 -9.375 
L 17.96875 -9.375 
Q 18.359375 -0.78125 18.359375 7.03125 
L 18.359375 33.203125 
Q 14.84375 22.65625 8.984375 12.109375 
Q 7.03125 16.015625 3.515625 19.140625 
Q 8.59375 25.390625 12.109375 34.5625 
Q 15.625 43.75 17.1875 52.34375 
Q 10.546875 52.34375 5.078125 51.5625 
z
M 44.140625 74.21875 
Q 49.609375 73.828125 56.25 73.828125 
L 75.390625 73.828125 
Q 81.25 73.828125 86.328125 74.21875 
L 86.328125 66.40625 
Q 81.25 67.1875 75.390625 67.1875 
L 56.25 67.1875 
Q 50 67.1875 44.140625 66.40625 
z
M 39.84375 49.609375 
Q 44.921875 49.21875 52.734375 49.21875 
L 80.46875 49.21875 
Q 86.71875 49.21875 92.578125 49.609375 
L 92.578125 42.1875 
Q 86.71875 42.578125 80.46875 42.578125 
L 67.96875 42.578125 
L 67.96875 1.953125 
Q 67.96875 -5.078125 64.640625 -6.4375 
Q 61.328125 -7.8125 53.90625 -9.375 
Q 53.125 -4.6875 50.78125 0 
Q 57.03125 -0.390625 58.984375 0.1875 
Q 60.9375 0.78125 60.9375 4.6875 
L 60.9375 42.578125 
L 52.734375 42.578125 
Q 44.53125 42.578125 39.84375 41.796875 
z
M 47.265625 32.03125 
Q 51.5625 30.078125 55.859375 28.90625 
Q 53.90625 26.953125 49.796875 16.59375 
Q 45.703125 6.25 42.1875 -0.78125 
Q 38.671875 1.171875 34.375 2.734375 
Q 39.0625 9.375 42.375 17.375 
Q 45.703125 25.390625 47.265625 32.03125 
z
M 72.265625 27.734375 
Q 75.78125 29.6875 78.90625 32.421875 
Q 88.28125 19.921875 94.921875 9.375 
Q 91.015625 7.421875 87.5 4.296875 
Q 80.859375 16.40625 72.265625 27.734375 
z
" id="SimHei-26631"/>
      <path d="M 16.015625 72.65625 
Q 23.046875 72.265625 29.6875 72.265625 
L 83.59375 72.265625 
L 83.59375 64.453125 
Q 77.34375 62.890625 67.96875 58.984375 
Q 58.59375 55.078125 53.515625 52.34375 
L 53.515625 16.015625 
Q 53.515625 8.984375 49.21875 7.8125 
Q 44.921875 6.640625 38.671875 5.46875 
Q 37.890625 9.765625 35.9375 14.453125 
Q 42.1875 14.0625 44.140625 14.84375 
Q 46.09375 15.625 46.09375 19.921875 
L 46.09375 45.703125 
Q 46.09375 52.734375 45.3125 57.03125 
Q 50.78125 58.59375 57.609375 61.328125 
Q 64.453125 64.0625 67.578125 66.015625 
L 29.6875 66.015625 
Q 21.875 66.015625 16.015625 65.625 
z
M 40.234375 43.359375 
Q 37.890625 40.625 35.546875 37.890625 
Q 32.8125 41.015625 29.875 43.75 
Q 26.953125 46.484375 23.046875 49.609375 
Q 25.390625 52.34375 27.34375 55.078125 
Q 30.859375 51.953125 34.171875 48.828125 
Q 37.5 45.703125 40.234375 43.359375 
z
M 39.0625 32.8125 
Q 39.84375 29.6875 41.40625 26.171875 
Q 37.890625 23.828125 33.78125 21.09375 
Q 29.6875 18.359375 24.609375 14.0625 
Q 22.65625 17.1875 19.921875 21.09375 
Q 25.390625 23.828125 30.078125 26.5625 
Q 34.765625 29.296875 39.0625 32.8125 
z
M 70.703125 53.125 
Q 73.4375 50 76.5625 47.265625 
Q 73.828125 46.09375 69.921875 43.359375 
Q 66.015625 40.625 61.71875 37.5 
Q 59.375 40.234375 57.03125 42.578125 
Q 61.328125 45.3125 64.25 47.453125 
Q 67.1875 49.609375 70.703125 53.125 
z
M 55.859375 26.953125 
Q 58.59375 29.6875 60.9375 32.03125 
Q 64.0625 29.6875 67.96875 26.5625 
Q 71.875 23.4375 76.171875 19.53125 
Q 73.4375 16.796875 70.703125 13.28125 
Q 67.1875 17.1875 64.25 19.921875 
Q 61.328125 22.65625 55.859375 26.953125 
z
M 19.140625 45.703125 
Q 18.359375 41.40625 18.359375 36.71875 
L 18.359375 2.734375 
L 80.078125 2.734375 
L 80.078125 32.8125 
Q 80.078125 38.671875 79.296875 44.140625 
L 87.5 44.140625 
Q 87.109375 37.109375 87.109375 32.8125 
L 87.109375 0.390625 
Q 87.109375 -4.6875 87.5 -9.765625 
L 80.078125 -9.765625 
L 80.078125 -3.90625 
L 10.15625 -3.90625 
Q 10.9375 0.390625 10.9375 20.3125 
Q 10.9375 40.234375 10.546875 45.703125 
z
" id="SimHei-20989"/>
      <path d="M 10.9375 75.78125 
Q 14.84375 76.953125 17.1875 78.515625 
Q 20.3125 73.4375 23.046875 68.359375 
Q 19.53125 66.796875 16.796875 65.234375 
Q 14.453125 71.09375 10.9375 75.78125 
z
M 44.921875 78.515625 
Q 49.21875 76.5625 53.125 75 
Q 50.78125 73.4375 49.21875 70.703125 
Q 47.65625 67.96875 45.703125 64.453125 
Q 42.578125 66.015625 39.453125 66.796875 
Q 42.578125 71.875 44.921875 78.515625 
z
M 38.28125 49.609375 
Q 41.796875 51.171875 44.140625 53.515625 
Q 48.828125 46.875 51.953125 41.40625 
Q 48.4375 39.84375 45.3125 37.5 
Q 42.1875 44.921875 38.28125 49.609375 
z
M 8.203125 61.71875 
Q 14.453125 61.328125 28.125 61.328125 
Q 28.125 72.65625 27.734375 80.859375 
L 35.546875 80.859375 
Q 35.15625 72.65625 35.15625 61.328125 
Q 48.046875 61.328125 53.90625 61.71875 
L 53.90625 54.6875 
Q 48.046875 55.078125 35.15625 55.078125 
Q 35.15625 46.09375 35.546875 39.453125 
L 27.734375 39.453125 
Q 28.125 45.3125 28.125 51.953125 
Q 26.171875 48.046875 21.671875 43.546875 
Q 17.1875 39.0625 11.71875 35.9375 
Q 10.15625 39.453125 6.640625 41.796875 
Q 10.15625 42.96875 15.421875 46.875 
Q 20.703125 50.78125 23.046875 55.078125 
Q 14.84375 55.078125 8.203125 54.6875 
z
M 26.953125 24.21875 
Q 25 20.3125 22.65625 16.40625 
Q 27.34375 15.234375 35.15625 13.28125 
Q 37.890625 16.796875 40.234375 24.21875 
z
M 24.21875 38.28125 
Q 28.515625 36.71875 32.8125 35.546875 
Q 31.25 33.984375 29.296875 30.46875 
L 44.53125 30.46875 
L 48.828125 30.46875 
Q 46.484375 20.3125 42.1875 11.328125 
Q 48.828125 9.375 52.734375 8.203125 
Q 49.609375 3.90625 48.046875 0.390625 
Q 44.53125 2.734375 37.5 5.46875 
Q 28.125 -3.90625 9.375 -10.15625 
Q 7.8125 -6.25 4.6875 -3.90625 
Q 21.484375 0 31.25 8.203125 
Q 20.3125 10.9375 13.28125 12.890625 
Q 15.625 16.015625 19.53125 24.21875 
Q 13.28125 24.21875 4.6875 23.828125 
L 4.6875 30.859375 
Q 12.109375 30.46875 21.875 30.46875 
Q 23.046875 33.59375 24.21875 38.28125 
z
M 63.671875 80.46875 
Q 68.359375 78.515625 73.4375 77.734375 
Q 71.484375 75.390625 70.5 72.265625 
Q 69.53125 69.140625 67.96875 63.28125 
L 85.546875 63.28125 
Q 89.0625 63.28125 94.53125 63.671875 
L 94.53125 56.640625 
Q 90.234375 57.03125 87.5 57.03125 
Q 87.109375 48.828125 85.546875 35.34375 
Q 83.984375 21.875 78.125 11.71875 
Q 82.03125 6.25 87.109375 2.734375 
Q 92.1875 -0.78125 96.09375 -2.34375 
Q 90.625 -5.859375 89.0625 -9.375 
Q 82.421875 -4.6875 79.296875 -1.359375 
Q 76.171875 1.953125 73.4375 5.859375 
Q 68.75 1.171875 64.640625 -1.953125 
Q 60.546875 -5.078125 51.5625 -10.15625 
Q 49.609375 -6.640625 45.3125 -3.90625 
Q 52.734375 -1.171875 58.984375 3.125 
Q 65.234375 7.421875 69.53125 12.109375 
Q 65.234375 20.703125 62.890625 29.09375 
Q 60.546875 37.5 60.15625 41.015625 
Q 59.375 38.28125 58.203125 34.765625 
Q 54.6875 36.328125 50.390625 37.890625 
Q 55.078125 46.484375 58.984375 58.59375 
Q 62.890625 70.703125 63.671875 80.46875 
z
M 66.40625 57.03125 
Q 64.84375 53.125 64.0625 50.578125 
Q 63.28125 48.046875 66.984375 36.71875 
Q 70.703125 25.390625 74.21875 19.140625 
Q 77.734375 28.515625 79.09375 38.671875 
Q 80.46875 48.828125 80.46875 57.03125 
z
" id="SimHei-25968"/>
      <path d="M 47.65625 9.375 
L 47.65625 1.953125 
L 76.5625 1.953125 
L 76.5625 9.375 
z
M 34.765625 70.3125 
Q 39.453125 69.921875 49.609375 69.921875 
L 57.421875 69.921875 
Q 57.421875 74.609375 57.421875 80.078125 
Q 62.109375 79.6875 67.578125 79.296875 
Q 65.625 76.5625 65.234375 69.921875 
L 79.6875 69.921875 
Q 86.71875 69.921875 91.40625 70.3125 
L 91.40625 63.28125 
Q 86.328125 63.671875 79.6875 63.671875 
L 64.84375 63.671875 
L 64.0625 55.078125 
L 84.375 55.078125 
Q 83.984375 50.390625 83.984375 42.1875 
L 83.984375 1.953125 
Q 91.40625 1.953125 94.921875 2.34375 
L 94.921875 -4.6875 
Q 89.84375 -4.296875 80.859375 -4.296875 
L 44.140625 -4.296875 
Q 35.546875 -4.296875 29.6875 -4.6875 
L 29.6875 2.34375 
Q 33.203125 1.953125 40.234375 1.953125 
L 40.234375 42.1875 
Q 40.234375 49.609375 39.84375 55.078125 
L 56.25 55.078125 
L 57.03125 63.671875 
L 49.609375 63.671875 
Q 39.84375 63.671875 34.765625 63.28125 
z
M 47.65625 49.21875 
L 47.65625 41.40625 
L 76.5625 41.40625 
L 76.5625 49.21875 
z
M 47.65625 35.546875 
L 47.65625 28.515625 
L 76.5625 28.515625 
L 76.5625 35.546875 
z
M 47.65625 22.65625 
L 47.65625 15.234375 
L 76.5625 15.234375 
L 76.5625 22.65625 
z
M 25.390625 80.859375 
Q 30.859375 78.125 34.765625 76.953125 
Q 31.640625 73.4375 25.78125 58.984375 
L 25.78125 6.640625 
Q 25.78125 -1.5625 26.171875 -8.984375 
L 17.96875 -8.984375 
Q 18.359375 -2.34375 18.359375 5.46875 
L 18.359375 46.09375 
Q 13.28125 38.28125 9.765625 33.59375 
Q 6.640625 37.890625 3.90625 40.234375 
Q 7.8125 44.140625 14.640625 55.46875 
Q 21.484375 66.796875 25.390625 80.859375 
z
" id="SimHei-20540"/>
     </defs>
     <g transform="translate(294.445 24.090625)scale(0.1 -0.1)">
      <use xlink:href="#SimHei-31181"/>
      <use x="100" xlink:href="#SimHei-32676"/>
      <use x="200" xlink:href="#SimHei-20010"/>
      <use x="300" xlink:href="#SimHei-20307"/>
      <use x="400" xlink:href="#SimHei-24179"/>
      <use x="500" xlink:href="#SimHei-22343"/>
      <use x="600" xlink:href="#SimHei-30446"/>
      <use x="700" xlink:href="#SimHei-26631"/>
      <use x="800" xlink:href="#SimHei-20989"/>
      <use x="900" xlink:href="#SimHei-25968"/>
      <use x="1000" xlink:href="#SimHei-20540"/>
     </g>
    </g>
    <g id="line2d_16">
     <path d="M 266.445 34.770312 
L 286.445 34.770312 
" style="fill:none;stroke:#ff7f0e;stroke-linecap:square;stroke-width:1.5;"/>
    </g>
    <g id="line2d_17"/>
    <g id="text_15">
     <!-- 种群最优个体目标函数值 -->
     <defs>
      <path d="M 24.21875 39.0625 
L 24.21875 32.03125 
L 41.015625 32.03125 
L 41.015625 39.0625 
z
M 24.21875 26.5625 
L 24.21875 19.921875 
L 41.015625 19.921875 
L 41.015625 26.5625 
z
M 24.21875 14.453125 
L 24.21875 6.640625 
L 41.015625 8.984375 
L 41.015625 14.453125 
z
M 10.15625 -3.515625 
Q 8.59375 0.78125 7.421875 4.6875 
Q 10.546875 4.6875 17.1875 5.46875 
L 17.1875 39.0625 
Q 12.5 39.0625 6.640625 38.671875 
L 6.640625 44.921875 
Q 12.5 44.53125 17.578125 44.53125 
L 78.90625 44.53125 
Q 85.9375 44.53125 92.1875 44.921875 
L 92.1875 38.671875 
Q 85.9375 39.0625 78.90625 39.0625 
L 48.046875 39.0625 
L 48.046875 10.546875 
Q 50.390625 10.9375 53.125 11.71875 
Q 53.125 8.59375 53.125 5.078125 
Q 50.390625 5.078125 48.046875 4.296875 
Q 48.046875 -1.953125 48.4375 -7.8125 
L 41.015625 -7.8125 
Q 41.015625 -1.953125 41.015625 3.515625 
Q 36.71875 2.734375 28.125 0.96875 
Q 19.53125 -0.78125 10.15625 -3.515625 
z
M 56.25 -9.375 
Q 54.296875 -7.03125 50.78125 -3.515625 
Q 55.46875 -1.953125 58.78125 0.1875 
Q 62.109375 2.34375 65.234375 5.859375 
Q 62.890625 7.8125 60.15625 11.90625 
Q 57.421875 16.015625 54.6875 26.953125 
Q 57.03125 26.953125 60.9375 27.34375 
Q 62.109375 17.1875 69.140625 10.546875 
Q 71.484375 13.671875 73.234375 17.96875 
Q 75 22.265625 76.171875 26.5625 
L 64.453125 26.5625 
Q 58.984375 26.5625 51.5625 26.171875 
L 51.5625 32.421875 
Q 58.984375 32.03125 64.453125 32.03125 
L 84.375 32.03125 
Q 82.03125 22.65625 79.6875 16.984375 
Q 77.34375 11.328125 74.21875 6.640625 
Q 77.34375 4.6875 81.25 3.125 
Q 85.15625 1.5625 92.578125 0.390625 
Q 90.625 -2.34375 89.0625 -7.03125 
Q 82.421875 -4.6875 78.125 -2.53125 
Q 73.828125 -0.390625 70.3125 1.953125 
Q 67.578125 -0.78125 64.84375 -3.125 
Q 62.109375 -5.46875 56.25 -9.375 
z
M 27.734375 73.046875 
L 27.734375 67.578125 
L 72.265625 67.578125 
L 72.265625 73.046875 
z
M 27.734375 62.109375 
L 27.734375 57.03125 
L 72.265625 57.03125 
L 72.265625 62.109375 
z
M 19.921875 78.515625 
L 80.078125 78.515625 
Q 79.6875 73.046875 79.6875 68.75 
L 79.6875 61.71875 
Q 79.6875 57.421875 80.078125 51.5625 
L 19.921875 51.5625 
Q 20.3125 57.421875 20.3125 61.71875 
L 20.3125 68.75 
Q 20.3125 73.046875 19.921875 78.515625 
z
" id="SimHei-26368"/>
      <path d="M 37.5 -8.59375 
Q 34.765625 -5.078125 29.6875 -3.515625 
Q 49.609375 10.546875 52.34375 47.265625 
L 45.3125 47.265625 
Q 37.109375 47.265625 31.25 46.875 
L 31.25 53.90625 
Q 37.109375 53.515625 45.3125 53.515625 
L 52.734375 53.515625 
Q 52.734375 72.65625 52.34375 79.6875 
Q 55.078125 78.90625 61.328125 78.515625 
Q 60.15625 72.65625 60.15625 53.515625 
L 80.859375 53.515625 
Q 85.15625 53.515625 91.796875 53.90625 
L 91.796875 46.875 
Q 85.546875 47.265625 81.25 47.265625 
L 60.15625 47.265625 
Q 58.203125 9.375 37.5 -8.59375 
z
M 69.140625 73.046875 
Q 71.875 75 75.390625 77.734375 
Q 77.734375 74.21875 80.078125 70.890625 
Q 82.421875 67.578125 84.765625 64.84375 
Q 81.640625 62.890625 78.125 60.15625 
Q 75.78125 64.453125 69.140625 73.046875 
z
M 87.5 12.109375 
Q 90.234375 9.765625 96.09375 8.203125 
Q 93.75 -0.390625 91.59375 -3.125 
Q 89.453125 -5.859375 85.15625 -6.25 
L 73.046875 -6.25 
Q 64.84375 -6.25 64.84375 3.125 
L 64.84375 47.265625 
L 72.265625 47.265625 
L 72.265625 5.46875 
Q 71.875 1.5625 75 0.78125 
Q 78.125 0 80.859375 0.1875 
Q 83.59375 0.390625 84.953125 1.953125 
Q 86.328125 3.515625 87.5 12.109375 
z
M 9.375 30.46875 
Q 7.421875 33.984375 3.90625 36.71875 
Q 8.984375 41.796875 16.203125 55.859375 
Q 23.4375 69.921875 25.390625 80.46875 
Q 29.296875 78.125 35.15625 76.171875 
Q 31.640625 72.65625 26.953125 59.375 
L 26.953125 9.375 
Q 26.953125 -2.34375 27.34375 -8.203125 
L 19.140625 -8.203125 
Q 19.53125 -2.734375 19.53125 8.984375 
L 19.53125 46.09375 
Q 14.453125 37.5 9.375 30.46875 
z
" id="SimHei-20248"/>
     </defs>
     <g transform="translate(294.445 38.270312)scale(0.1 -0.1)">
      <use xlink:href="#SimHei-31181"/>
      <use x="100" xlink:href="#SimHei-32676"/>
      <use x="200" xlink:href="#SimHei-26368"/>
      <use x="300" xlink:href="#SimHei-20248"/>
      <use x="400" xlink:href="#SimHei-20010"/>
      <use x="500" xlink:href="#SimHei-20307"/>
      <use x="600" xlink:href="#SimHei-30446"/>
      <use x="700" xlink:href="#SimHei-26631"/>
      <use x="800" xlink:href="#SimHei-20989"/>
      <use x="900" xlink:href="#SimHei-25968"/>
      <use x="1000" xlink:href="#SimHei-20540"/>
     </g>
    </g>
   </g>
  </g>
 </g>
 <defs>
  <clipPath id="p96402081e1">
   <rect height="266.112" width="357.12" x="56.325" y="7.2"/>
  </clipPath>
 </defs>
</svg>
